<svg width="612" height="561" viewBox="0 0 612 561" fill="none" xmlns="http://www.w3.org/2000/svg">
<path d="M405.887 47.3445C425.688 82.2175 416.2 139.393 453.737 186.025C490.862 232.252 575.425 267.936 596.462 311.73C617.912 355.524 576.25 408.24 527.575 444.734C479.312 481.635 424.037 502.316 367.112 519.752C310.188 537.594 251.613 551.787 200.875 538C150.138 524.618 106.825 482.852 73 437.03C38.7625 391.614 14.0125 342.143 11.5375 292.267C9.06254 242.796 28.4501 192.919 55.2625 151.152C82.4875 109.386 116.725 75.324 156.738 49.7775C196.338 24.231 242.125 6.79448 289.563 3.95598C336.588 1.11748 386.087 12.877 405.887 47.3445Z" fill="white"/>
</svg>
