<svg width="243" height="232" viewBox="0 0 243 232" fill="none" xmlns="http://www.w3.org/2000/svg">
    <path d="M118.135 223.045C177.467 223.045 225.565 195.275 225.565 161.02C225.565 126.765 177.467 98.995 118.135 98.995C58.8031 98.995 10.7051 126.765 10.7051 161.02C10.7051 195.275 58.8031 223.045 118.135 223.045Z" fill="#F5F5F5"/>
    <path d="M175.5 208.395C187.36 208.395 196.975 202.366 196.975 194.93C196.975 187.493 187.36 181.465 175.5 181.465C163.64 181.465 154.025 187.493 154.025 194.93C154.025 202.366 163.64 208.395 175.5 208.395Z" fill="#E6E6E6"/>
    <path d="M214.5 146.64L210.045 144.14C210.045 144.14 209.625 136.005 210.265 129.515C211.16 120.395 217.05 109.415 224.08 112.015C231.11 114.615 220.855 123.88 218.58 131.62C216.305 139.36 214.5 146.64 214.5 146.64Z" fill="#37474F"/>
    <path d="M212.425 145.685C212.456 145.684 212.487 145.677 212.516 145.665C212.544 145.652 212.57 145.634 212.591 145.611C212.613 145.588 212.629 145.561 212.64 145.532C212.651 145.502 212.656 145.471 212.655 145.44C211.965 125.175 222.055 114.975 222.155 114.875C222.199 114.831 222.225 114.772 222.225 114.709C222.225 114.647 222.201 114.587 222.157 114.542C222.114 114.498 222.054 114.473 221.992 114.472C221.929 114.472 221.869 114.496 221.825 114.54C221.72 114.64 211.485 124.985 212.18 145.46C212.181 145.491 212.189 145.521 212.202 145.549C212.215 145.577 212.233 145.602 212.256 145.623C212.278 145.644 212.305 145.66 212.334 145.671C212.363 145.681 212.394 145.686 212.425 145.685Z" fill="white"/>
    <path d="M216.945 148.05L214.16 146.44C214.16 146.44 213.685 140.69 216.505 133.7C218.96 127.615 225.055 122.57 228.115 123.63C231.175 124.69 231.115 126.865 229.615 129.13C228.115 131.395 219.03 136.855 216.945 148.05Z" fill="#455A64"/>
    <path d="M215.5 147.435C215.531 147.436 215.562 147.43 215.592 147.419C215.621 147.407 215.647 147.39 215.669 147.368C215.692 147.346 215.71 147.32 215.722 147.291C215.734 147.262 215.74 147.231 215.74 147.2C215.685 134.385 227.715 125.7 227.84 125.635C227.89 125.598 227.924 125.543 227.935 125.481C227.945 125.42 227.931 125.356 227.895 125.305C227.877 125.28 227.854 125.258 227.828 125.241C227.802 125.225 227.772 125.214 227.742 125.209C227.711 125.203 227.679 125.204 227.649 125.212C227.619 125.219 227.59 125.232 227.565 125.25C227.44 125.335 215.21 134.14 215.265 147.2C215.265 147.231 215.271 147.261 215.283 147.29C215.295 147.318 215.312 147.344 215.334 147.366C215.356 147.388 215.382 147.405 215.41 147.417C215.439 147.429 215.469 147.435 215.5 147.435Z" fill="white"/>
    <path d="M134.47 109.325L131.575 107.67C131.447 107.574 131.346 107.447 131.281 107.301C131.216 107.155 131.19 106.994 131.205 106.835V87.5451C131.234 87.0278 131.407 86.5289 131.705 86.1051L134.585 87.7651C134.297 88.1879 134.134 88.6837 134.115 89.1951V108.5C134.097 108.657 134.12 108.815 134.182 108.96C134.245 109.105 134.344 109.231 134.47 109.325Z" fill="#38A1FF"/>
    <path opacity="0.55" d="M134.47 109.325L131.575 107.67C131.447 107.574 131.346 107.447 131.281 107.301C131.216 107.155 131.19 106.994 131.205 106.835V87.5451C131.234 87.0278 131.407 86.5289 131.705 86.1051L134.585 87.7651C134.297 88.1879 134.134 88.6837 134.115 89.1951V108.5C134.097 108.657 134.12 108.815 134.182 108.96C134.245 109.105 134.344 109.231 134.47 109.325Z" fill="white"/>
    <path d="M135.39 86.9251L175.78 63.61C176.505 63.19 177.09 63.53 177.09 64.365V83.695C177.066 84.1492 176.935 84.5912 176.707 84.9849C176.479 85.3786 176.162 85.7128 175.78 85.96L135.39 109.24C134.67 109.655 134.08 109.315 134.08 108.48V89.195C134.106 88.7406 134.238 88.2985 134.465 87.9042C134.693 87.51 135.009 87.1746 135.39 86.9251Z" fill="#38A1FF"/>
    <path opacity="0.7" d="M135.39 86.9251L175.78 63.61C176.505 63.19 177.09 63.53 177.09 64.365V83.695C177.066 84.1492 176.935 84.5912 176.707 84.9849C176.479 85.3786 176.162 85.7128 175.78 85.96L135.39 109.24C134.67 109.655 134.08 109.315 134.08 108.48V89.195C134.106 88.7406 134.238 88.2985 134.465 87.9042C134.693 87.51 135.009 87.1746 135.39 86.9251Z" fill="white"/>
    <path d="M173.81 61.8651L176.66 63.4901C176.515 63.4361 176.359 63.4184 176.206 63.4385C176.052 63.4585 175.906 63.5157 175.78 63.6051L135.39 86.9251C135.049 87.1362 134.761 87.4238 134.55 87.7651L131.67 86.1051C131.875 85.767 132.158 85.4826 132.495 85.2751L172.885 61.9551C173.061 61.8464 173.263 61.786 173.47 61.7801C173.589 61.7791 173.706 61.8083 173.81 61.8651Z" fill="#38A1FF"/>
    <path opacity="0.85" d="M173.81 61.8651L176.66 63.4901C176.515 63.4361 176.359 63.4184 176.206 63.4385C176.052 63.4585 175.906 63.5157 175.78 63.6051L135.39 86.9251C135.049 87.1362 134.761 87.4238 134.55 87.7651L131.67 86.1051C131.875 85.767 132.158 85.4826 132.495 85.2751L172.885 61.9551C173.061 61.8464 173.263 61.786 173.47 61.7801C173.589 61.7791 173.706 61.8083 173.81 61.8651Z" fill="white"/>
    <path d="M138.55 88.71L172.62 69C172.97 68.8 173.25 68.94 173.25 69.315C173.235 69.5266 173.17 69.7315 173.06 69.9131C172.951 70.0947 172.8 70.2479 172.62 70.36L138.55 90.06C138.205 90.26 137.92 90.12 137.92 89.745C137.937 89.5354 138.003 89.3326 138.112 89.1529C138.222 88.9732 138.372 88.8215 138.55 88.71Z" fill="#38A1FF"/>
    <path d="M138.55 102.5L172.62 82.8001C172.97 82.6001 173.25 82.7401 173.25 83.1201C173.235 83.3309 173.17 83.5351 173.06 83.716C172.951 83.8968 172.8 84.049 172.62 84.1601L138.55 103.84C138.205 104.04 137.92 103.895 137.92 103.52C137.94 103.313 138.007 103.114 138.116 102.937C138.226 102.76 138.374 102.611 138.55 102.5Z" fill="#38A1FF"/>
    <path d="M138.55 95.595L172.62 75.89C172.97 75.69 173.25 75.835 173.25 76.21C173.234 76.4213 173.169 76.626 173.059 76.8075C172.95 76.9889 172.799 77.1422 172.62 77.255L138.55 96.955C138.205 97.155 137.92 97.01 137.92 96.635C137.936 96.4245 138.002 96.2207 138.111 96.0401C138.221 95.8595 138.371 95.707 138.55 95.595Z" fill="#38A1FF"/>
    <path d="M138.55 99.035L172.62 79.335C172.97 79.135 173.25 79.275 173.25 79.65C173.235 79.8615 173.17 80.0664 173.06 80.2481C172.951 80.4297 172.8 80.5828 172.62 80.695L138.55 100.395C138.205 100.595 137.92 100.455 137.92 100.08C137.936 99.8686 138.001 99.6638 138.11 99.4823C138.22 99.3007 138.37 99.1475 138.55 99.035Z" fill="#38A1FF"/>
    <path d="M138.55 92.1501L172.62 72.4501C172.97 72.2501 173.25 72.3901 173.25 72.7701C173.235 72.9809 173.17 73.1852 173.06 73.366C172.951 73.5468 172.8 73.699 172.62 73.8101L138.55 93.5001C138.205 93.7001 137.92 93.5551 137.92 93.1801C137.939 92.9715 138.005 92.77 138.114 92.5914C138.224 92.4127 138.373 92.2617 138.55 92.1501Z" fill="#38A1FF"/>
    <path d="M134.25 79.8851L131.5 78.3201C131.372 78.2245 131.27 78.0974 131.205 77.9512C131.141 77.8049 131.115 77.6444 131.13 77.4851V26.1751C131.157 25.6574 131.33 25.158 131.63 24.7351L134.31 26.2851C134.037 26.699 133.883 27.1798 133.865 27.6751V79.0401C133.846 79.2026 133.872 79.3672 133.94 79.5161C134.008 79.665 134.115 79.7926 134.25 79.8851Z" fill="#263238"/>
    <path d="M176.25 1.91506C176.008 1.89344 175.765 1.95326 175.56 2.08506L135.17 25.4051C134.817 25.6262 134.52 25.9277 134.305 26.2851L131.62 24.7351C131.829 24.3996 132.111 24.1158 132.445 23.9051L172.835 0.590057C173.01 0.478541 173.212 0.416357 173.42 0.410057C173.539 0.409102 173.656 0.438352 173.76 0.495057L176.25 1.91506Z" fill="#37474F"/>
    <path d="M135.17 25.405L175.56 2.09003C176.285 1.67003 176.87 2.01003 176.87 2.84503V54.255C176.846 54.7092 176.715 55.1512 176.487 55.5449C176.259 55.9386 175.942 56.2727 175.56 56.52L135.175 79.8C134.45 80.215 133.86 79.875 133.86 79.04V27.675C133.886 27.2206 134.018 26.7784 134.245 26.3842C134.473 25.99 134.789 25.6546 135.17 25.405Z" fill="#455A64"/>
    <path d="M137.41 27.08L173.66 6.15004C174.31 5.77504 174.835 6.08004 174.835 6.83004V53C174.813 53.4078 174.695 53.8046 174.491 54.1582C174.287 54.5118 174.002 54.8122 173.66 55.035L137.41 75.925C136.76 76.3 136.235 75.995 136.235 75.245V29.115C136.257 28.7073 136.375 28.3105 136.579 27.9569C136.783 27.6033 137.068 27.3029 137.41 27.08Z" fill="#F0F0F0"/>
    <mask id="mask0_101_228" style="mask-type:luminance" maskUnits="userSpaceOnUse" x="136" y="5" width="39" height="72">
    <path d="M137.41 27.08L173.66 6.15004C174.31 5.77504 174.835 6.08004 174.835 6.83004V53C174.813 53.4078 174.695 53.8046 174.491 54.1582C174.287 54.5118 174.002 54.8122 173.66 55.035L137.41 75.925C136.76 76.3 136.235 75.995 136.235 75.245V29.115C136.257 28.7073 136.375 28.3105 136.579 27.9569C136.783 27.6033 137.068 27.3029 137.41 27.08Z" fill="white"/>
    </mask>
    <g mask="url(#mask0_101_228)">
    <path d="M167.545 46.0001C166.909 44.8878 165.897 44.0382 164.692 43.6031C163.486 43.168 162.165 43.1758 160.965 43.6251C160.965 43.6251 160.755 47.4901 162.735 53.0401C162.735 53.0401 171.36 65.6101 173.08 66.7801L175.465 58.8701C175.465 58.8701 169.17 48.5451 167.545 46.0001Z" fill="#B16668"/>
    <path d="M146.41 48.6851C144.375 49.4601 144.68 51.6851 144.745 53.6601C144.78 54.8751 144.98 56.9351 145.11 59.7601L145.69 68.8551L145.56 88.5851C152.175 90.8401 160.59 88.8551 167.65 81.0101C167.65 81.0101 167.255 55.7601 167.255 51.6151C167.255 51.4251 167.255 51.2401 167.255 51.0501C167.005 45.3801 164.19 42.9551 160.975 43.6351C159.945 43.8551 157.715 44.5651 156.24 45.0251L152.19 46.3351C152.19 46.3351 148.44 47.9101 146.41 48.6851Z" fill="#38A1FF"/>
    <path opacity="0.2" d="M146.41 48.6851C144.375 49.4601 144.68 51.6851 144.745 53.6601C144.78 54.8751 144.98 56.9351 145.11 59.7601L145.69 68.8551L145.56 88.5851C152.175 90.8401 160.59 88.8551 167.65 81.0101C167.65 81.0101 167.255 55.7601 167.255 51.6151C167.255 51.4251 167.255 51.2401 167.255 51.0501C167.005 45.3801 164.19 42.9551 160.975 43.6351C159.945 43.8551 157.715 44.5651 156.24 45.0251L152.19 46.3351C152.19 46.3351 148.44 47.9101 146.41 48.6851Z" fill="black"/>
    <path d="M161.73 29.0401C161.73 27.2151 162.015 24.8201 163.87 23.9451C164.81 23.5001 166.15 23.3151 167.045 23.8951C167.94 24.4751 168.51 25.2951 168.35 26.4351C168.194 27.2862 167.768 28.0645 167.135 28.6551C167.026 28.7393 166.944 28.8542 166.9 28.9851C166.883 29.0906 166.892 29.1986 166.925 29.3001C167.165 30.4251 167.15 31.7151 166.385 32.5751C166.122 32.8676 165.789 33.0892 165.418 33.2193C165.046 33.3495 164.648 33.3842 164.26 33.3201C163.824 33.217 163.417 33.0156 163.07 32.7314C162.724 32.4472 162.447 32.0876 162.26 31.6801C161.879 30.8538 161.697 29.9495 161.73 29.0401Z" fill="#263238"/>
    <path d="M149.5 35.4501C149.5 35.4501 150.53 40.7551 150.94 41.5601C151.064 41.7944 151.244 41.9938 151.465 42.1398C151.687 42.2857 151.941 42.3735 152.205 42.3951L152.135 38.4951L149.5 35.4501Z" fill="#263238"/>
    <path d="M150.765 27.1151C150.765 27.1151 149.81 27.3501 149.765 27.3751C149.325 27.5394 148.929 27.8049 148.61 28.1501C148.362 28.4135 148.182 28.733 148.084 29.0813C147.987 29.4296 147.975 29.7963 148.05 30.1501C148.21 30.6655 148.501 31.1306 148.895 31.5001C148.592 31.809 148.356 32.1765 148.2 32.5801C148.047 32.988 148.047 33.4373 148.2 33.8451C148.307 34.0824 148.444 34.3044 148.61 34.5051C148.975 34.9701 149.405 35.4251 150.035 35.3551C150.495 35.3051 150.96 35.2301 151.42 35.1701L150.765 27.1151Z" fill="#263238"/>
    <path d="M152 35.0351C151.615 35.4101 151.06 34.6951 150.58 34.2451C150.1 33.7951 148.54 33.4251 147.76 35.5301C146.98 37.6351 148.45 39.8301 149.68 39.9501C151.8 40.1501 152.12 38.4951 152.12 38.4951L152.19 47.2051C154.505 52.0501 164.045 50.2051 159.19 45.1751V42.5001C160.162 42.4154 161.121 42.2139 162.045 41.9001C163.605 41.2051 164.59 39.5201 165.045 37.4451C165.805 34.1101 165.74 32.1351 165.485 26.1201C165.31 21.9901 157.945 20.7151 154.275 24.3651C150.605 28.0151 152 35.0351 152 35.0351Z" fill="#B16668"/>
    <path d="M150.57 34.2451C150.32 34.0501 150.345 33.4801 150.33 33.2051C150.304 32.5383 150.316 31.8706 150.365 31.2051C150.43 30.1551 150.72 29.0551 150.48 28.0251C150.361 27.6507 150.325 27.2548 150.375 26.8651C150.403 26.67 150.494 26.4891 150.632 26.3488C150.771 26.2084 150.95 26.1161 151.145 26.0851C150.915 25.4835 150.851 24.831 150.961 24.1963C151.071 23.5617 151.35 22.9684 151.769 22.479C152.187 21.9896 152.73 21.6223 153.341 21.4157C153.951 21.2091 154.605 21.1709 155.235 21.3051C155.404 20.7289 155.725 20.2091 156.165 19.8007C156.606 19.3923 157.148 19.1105 157.735 18.9851C158.407 18.8432 159.104 18.8672 159.765 19.0551C160.102 19.1462 160.414 19.3103 160.681 19.5358C160.947 19.7614 161.16 20.0428 161.305 20.3601C161.72 19.4701 163.155 18.6701 164.465 18.8201C165.565 18.9501 166.695 19.6301 167.07 20.5201C167.326 21.0981 167.458 21.7231 167.458 22.3551C167.458 22.9871 167.326 23.6121 167.07 24.1901C166.865 24.5919 166.576 24.9446 166.222 25.2242C165.868 25.5038 165.458 25.7037 165.02 25.8101C164.127 26.0263 163.184 25.8788 162.4 25.4001C162.398 25.8729 162.244 26.3325 161.96 26.7107C161.676 27.089 161.278 27.3658 160.825 27.5001C160.195 27.7036 159.522 27.7364 158.875 27.5951C158.267 27.3627 157.714 27.0069 157.25 26.5501C157.21 26.9773 157.052 27.3851 156.796 27.7291C156.539 28.073 156.193 28.3397 155.795 28.5001C155.395 28.6501 154.968 28.7112 154.542 28.6792C154.116 28.6473 153.703 28.523 153.33 28.3151C153.516 28.9099 153.62 29.5272 153.64 30.1501C153.668 30.4738 153.618 30.7994 153.495 31.1001C153.428 31.2465 153.321 31.3711 153.187 31.4596C153.053 31.548 152.896 31.5967 152.735 31.6001C153.096 32.511 153.224 33.4971 153.11 34.4701C153.099 34.8592 152.946 35.2309 152.68 35.5151C151.815 36.3151 151.105 34.6651 150.57 34.2451Z" fill="#263238"/>
    <path d="M150.77 27.61L148.42 26.785C148.755 25.92 149.55 25.405 150.2 25.63C150.85 25.855 151.1 26.745 150.77 27.61Z" fill="#263238"/>
    <path d="M159.165 42.5001C159.165 42.5001 155.665 42.6201 154.465 42.2001C153.735 41.9456 153.131 41.4189 152.78 40.7301C152.951 41.4584 153.279 42.1408 153.74 42.7301C154.63 43.8051 159.165 43.5601 159.165 43.5601V42.5001Z" fill="#9A4A4D"/>
    <path d="M158.265 33.0451C158.264 33.2633 158.197 33.476 158.072 33.6547C157.946 33.8335 157.77 33.9697 157.565 34.0451C157.18 34.1501 156.865 33.8551 156.865 33.3951C156.867 33.1771 156.934 32.9647 157.059 32.7861C157.184 32.6075 157.361 32.4712 157.565 32.3951C157.95 32.2901 158.265 32.5851 158.265 33.0451Z" fill="#263238"/>
    <path d="M157.735 30.7551L156.035 31.8351C155.961 31.5781 155.97 31.3043 156.059 31.0523C156.149 30.8003 156.315 30.5827 156.535 30.4301C156.631 30.3595 156.742 30.3114 156.86 30.2895C156.977 30.2676 157.098 30.2724 157.213 30.3036C157.329 30.3349 157.436 30.3917 157.526 30.4698C157.616 30.548 157.688 30.6455 157.735 30.7551Z" fill="#263238"/>
    <path d="M158.85 37.7601L160.44 38.0201C160.395 38.2735 160.262 38.5028 160.064 38.6675C159.867 38.8322 159.617 38.9217 159.36 38.9201C158.92 38.8501 158.69 38.3301 158.85 37.7601Z" fill="#9A4A4D"/>
    <path d="M164.585 30.4201L163.225 29.5751C163.5 29.0501 164.03 28.8151 164.405 29.0451C164.597 29.2132 164.721 29.4456 164.754 29.6986C164.788 29.9517 164.727 30.2082 164.585 30.4201Z" fill="#263238"/>
    <path d="M164.23 31.6401C164.23 31.8577 164.163 32.07 164.039 32.2486C163.914 32.4273 163.739 32.5639 163.535 32.6401C163.15 32.7451 162.835 32.4501 162.835 31.9901C162.837 31.7723 162.905 31.5602 163.03 31.3817C163.155 31.2033 163.331 31.0667 163.535 30.9901C163.92 30.8851 164.23 31.1751 164.23 31.6401Z" fill="#263238"/>
    <path d="M160.44 31.8351L160.52 36.6951L163.02 35.3901L160.44 31.8351Z" fill="#9A4A4D"/>
    <path d="M145.145 90.3001C145.259 91.6127 145.638 92.8885 146.26 94.0501C146.949 95.1308 147.791 96.106 148.76 96.9451C148.864 97.0244 148.939 97.1348 148.975 97.2601C149.01 97.5201 148.715 97.7001 148.475 97.7601C147.928 97.8413 147.37 97.7319 146.895 97.4501C146.539 97.2418 146.211 96.988 145.92 96.6951C145.82 96.6051 145.2 96.1651 145.2 96.0651C145.396 97.1181 145.765 98.1316 146.29 99.0651C146.807 99.8683 147.273 100.703 147.685 101.565C147.92 102.13 148.03 102.86 147.595 103.29C147.411 103.446 147.194 103.557 146.96 103.615C146.168 103.838 145.331 103.847 144.535 103.642C143.738 103.436 143.01 103.023 142.425 102.445C141.912 101.887 141.484 101.257 141.155 100.575C140.955 100.2 140.775 99.8143 140.615 99.4201C140.349 98.7326 140.143 98.0233 140 97.3001C139.615 95.5651 139.47 93.8001 139.205 92.0601C138.418 86.5185 138.103 80.9199 138.265 75.3251C139.165 56.7951 140.43 50.5301 146.42 48.6851C148.115 49.9451 148.875 55.3401 147.09 60.1501C146.204 65.5229 145.623 70.9416 145.35 76.3801C145.24 78.9501 144.825 84.1301 144.945 86.7001C145 87.8501 145 89.0001 145.145 90.3001Z" fill="#B16668"/>
    </g>
    <path d="M24.9351 172.525L22.0401 170.87C21.9121 170.774 21.811 170.647 21.7462 170.501C21.6814 170.355 21.6552 170.194 21.6701 170.035V150.75C21.6988 150.233 21.872 149.734 22.1701 149.31L25.0001 150.97C24.7118 151.393 24.5488 151.889 24.5301 152.4V171.68C24.5135 171.845 24.5425 172.01 24.6139 172.159C24.6854 172.308 24.7965 172.435 24.9351 172.525Z" fill="#38A1FF"/>
    <path opacity="0.55" d="M24.9351 172.525L22.0401 170.87C21.9121 170.774 21.811 170.647 21.7462 170.501C21.6814 170.355 21.6552 170.194 21.6701 170.035V150.75C21.6988 150.233 21.872 149.734 22.1701 149.31L25.0001 150.97C24.7118 151.393 24.5488 151.889 24.5301 152.4V171.68C24.5135 171.845 24.5425 172.01 24.6139 172.159C24.6854 172.308 24.7965 172.435 24.9351 172.525Z" fill="white"/>
    <path d="M25.8549 150.13L66.2449 126.81C66.9649 126.39 67.5549 126.73 67.5549 127.565V146.895C67.5292 147.35 67.3967 147.793 67.1683 148.187C66.9398 148.581 66.6218 148.916 66.2399 149.165L25.8549 172.44C25.1299 172.855 24.5449 172.515 24.5449 171.68V152.395C24.5689 151.941 24.7002 151.499 24.9279 151.105C25.1555 150.711 25.4732 150.377 25.8549 150.13Z" fill="#38A1FF"/>
    <path opacity="0.7" d="M25.8549 150.13L66.2449 126.81C66.9649 126.39 67.5549 126.73 67.5549 127.565V146.895C67.5292 147.35 67.3967 147.793 67.1683 148.187C66.9398 148.581 66.6218 148.916 66.2399 149.165L25.8549 172.44C25.1299 172.855 24.5449 172.515 24.5449 171.68V152.395C24.5689 151.941 24.7002 151.499 24.9279 151.105C25.1555 150.711 25.4732 150.377 25.8549 150.13Z" fill="white"/>
    <path d="M64.2751 125.07L67.1251 126.695C66.9802 126.641 66.8242 126.623 66.6709 126.643C66.5175 126.664 66.3714 126.721 66.2451 126.81L25.8551 150.13C25.5084 150.339 25.2155 150.627 25.0001 150.97L22.1201 149.31C22.3323 148.978 22.6201 148.7 22.9601 148.5L63.3501 125.18C63.5264 125.071 63.7281 125.011 63.9351 125.005C64.0521 124.998 64.169 125.02 64.2751 125.07Z" fill="#38A1FF"/>
    <path opacity="0.85" d="M64.2751 125.07L67.1251 126.695C66.9802 126.641 66.8242 126.623 66.6709 126.643C66.5175 126.664 66.3714 126.721 66.2451 126.81L25.8551 150.13C25.5084 150.339 25.2155 150.627 25.0001 150.97L22.1201 149.31C22.3323 148.978 22.6201 148.7 22.9601 148.5L63.3501 125.18C63.5264 125.071 63.7281 125.011 63.9351 125.005C64.0521 124.998 64.169 125.02 64.2751 125.07Z" fill="white"/>
    <path d="M29.0001 151.91L63.0701 132.21C63.4151 132.01 63.7001 132.15 63.7001 132.53C63.6838 132.741 63.6183 132.944 63.5088 133.125C63.3994 133.306 63.2492 133.458 63.0701 133.57L29.0001 153.27C28.6501 153.47 28.3701 153.33 28.3701 152.955C28.3853 152.744 28.4503 152.539 28.5598 152.357C28.6693 152.175 28.8202 152.022 29.0001 151.91Z" fill="#38A1FF"/>
    <path d="M29.0001 165.68L63.0851 146C63.4301 145.8 63.7151 145.945 63.7151 146.32C63.6988 146.531 63.6333 146.734 63.5238 146.915C63.4144 147.096 63.2642 147.248 63.0851 147.36L29.0001 167.04C28.6501 167.24 28.3701 167.095 28.3701 166.72C28.3853 166.509 28.4503 166.305 28.5598 166.124C28.6694 165.943 28.8203 165.791 29.0001 165.68Z" fill="#38A1FF"/>
    <path d="M29.0001 158.795L63.0701 139.095C63.4151 138.895 63.7001 139.035 63.7001 139.41C63.6838 139.621 63.6183 139.826 63.5089 140.007C63.3995 140.189 63.2493 140.342 63.0701 140.455L29.0001 160.155C28.6501 160.355 28.3701 160.215 28.3701 159.84C28.3845 159.628 28.4492 159.423 28.5587 159.241C28.6683 159.06 28.8196 158.907 29.0001 158.795Z" fill="#38A1FF"/>
    <path d="M29.0001 162.235L63.0701 142.535C63.4151 142.335 63.7001 142.475 63.7001 142.85C63.6845 143.061 63.6194 143.266 63.5099 143.448C63.4005 143.629 63.2498 143.783 63.0701 143.895L29.0001 163.595C28.6501 163.795 28.3701 163.655 28.3701 163.28C28.3853 163.069 28.4503 162.864 28.5598 162.682C28.6693 162.5 28.8202 162.347 29.0001 162.235Z" fill="#38A1FF"/>
    <path d="M29.0001 155.355L63.0701 135.65C63.4151 135.45 63.7001 135.595 63.7001 135.97C63.6838 136.181 63.6183 136.384 63.5088 136.565C63.3994 136.746 63.2492 136.898 63.0701 137.01L29.0001 156.715C28.6501 156.915 28.3701 156.77 28.3701 156.395C28.3853 156.184 28.4503 155.98 28.5598 155.799C28.6694 155.618 28.8203 155.466 29.0001 155.355Z" fill="#38A1FF"/>
    <path d="M24.765 143L22 141.455C21.8717 141.36 21.7703 141.232 21.7055 141.086C21.6407 140.94 21.6147 140.779 21.63 140.62V89.3101C21.6569 88.7924 21.8303 88.293 22.13 87.8701L24.81 89.4201C24.5374 89.834 24.3835 90.3148 24.365 90.8101V142.175C24.3517 142.336 24.3817 142.497 24.4521 142.642C24.5225 142.788 24.6305 142.911 24.765 143Z" fill="#263238"/>
    <path d="M66.765 65.0501C66.5225 65.0285 66.2797 65.0883 66.075 65.2201L25.685 88.5401C25.3314 88.7613 25.0351 89.0628 24.82 89.4201L22.135 87.8701C22.3438 87.5346 22.6258 87.2509 22.96 87.0401L63.35 63.7251C63.5253 63.6136 63.7274 63.5514 63.935 63.5451C64.0537 63.5441 64.1707 63.5734 64.275 63.6301L66.765 65.0501Z" fill="#37474F"/>
    <path d="M25.685 88.535L66.075 65.22C66.795 64.8 67.385 65.14 67.385 65.975V117.385C67.3594 117.839 67.2275 118.282 67 118.676C66.7725 119.07 66.4557 119.405 66.075 119.655L25.685 142.93C24.96 143.345 24.375 143.01 24.375 142.175V90.805C24.3998 90.3504 24.5313 89.908 24.7589 89.5136C24.9865 89.1192 25.3038 88.784 25.685 88.535Z" fill="#455A64"/>
    <path d="M27.7551 90.1301L64.0001 69.2001C64.6501 68.8251 65.1751 69.1301 65.1751 69.8801V116C65.1539 116.408 65.0364 116.805 64.8322 117.159C64.6279 117.513 64.3428 117.813 64.0001 118.035L27.7551 138.95C27.1051 139.325 26.5801 139.02 26.5801 138.27V92.1651C26.602 91.7574 26.7199 91.3606 26.924 91.007C27.1282 90.6534 27.4129 90.3529 27.7551 90.1301Z" fill="#F0F0F0"/>
    <mask id="mask1_101_228" style="mask-type:luminance" maskUnits="userSpaceOnUse" x="26" y="69" width="40" height="71">
    <path d="M27.7551 90.1301L64.0001 69.2001C64.6501 68.8251 65.1751 69.1301 65.1751 69.8801V116C65.1539 116.408 65.0364 116.805 64.8322 117.159C64.6279 117.513 64.3428 117.813 64.0001 118.035L27.7551 138.95C27.1051 139.325 26.5801 139.02 26.5801 138.27V92.1651C26.602 91.7574 26.7199 91.3606 26.924 91.007C27.1282 90.6534 27.4129 90.3529 27.7551 90.1301Z" fill="white"/>
    </mask>
    <g mask="url(#mask1_101_228)">
    <path d="M56.8601 109.375C54.0301 105.7 49.3601 106.22 49.3601 106.22C49.7719 109.415 50.5486 112.552 51.6751 115.57C51.6751 115.57 60.3051 128.135 62.0251 129.31L64.4101 121.395C64.4101 121.395 58.6951 111.765 56.8601 109.375Z" fill="#FFBDA7"/>
    <path d="M48.3501 106.4C49.5732 106.007 50.857 105.838 52.1401 105.9C54.1751 106.03 56.6801 108.335 58.1751 110.735C60.1751 113.945 61.5051 116.235 61.5051 116.235C61.5051 116.235 60.8401 120.005 55.6951 121.63L50.9351 115.42L48.3501 106.4Z" fill="#38A1FF"/>
    <path opacity="0.5" d="M48.3501 106.4C49.5732 106.007 50.857 105.838 52.1401 105.9C54.1751 106.03 56.6801 108.335 58.1751 110.735C60.1751 113.945 61.5051 116.235 61.5051 116.235C61.5051 116.235 60.8401 120.005 55.6951 121.63L50.9351 115.42L48.3501 106.4Z" fill="black"/>
    <path d="M35.2199 121.13L34.5549 131.63L35.0899 151.275C41.7049 153.53 50.1199 151.545 57.1799 143.7C57.1799 143.7 56.8899 117.61 55.9699 113.155C54.8649 107.79 52.2299 104.855 46.8899 106.765L41.6549 108.855L36.2699 111C36.2699 111 35.2199 119.1 35.2199 121.13Z" fill="#38A1FF"/>
    <path opacity="0.4" d="M35.2199 121.13L34.5549 131.63L35.0899 151.275C41.7049 153.53 50.1199 151.545 57.1799 143.7C57.1799 143.7 56.8899 117.61 55.9699 113.155C54.8649 107.79 52.2299 104.855 46.8899 106.765L41.6549 108.855L36.2699 111C36.2699 111 35.2199 119.1 35.2199 121.13Z" fill="black"/>
    <path d="M42.1301 91.85C42.1301 96.3 45.2551 99.07 49.1301 98.035C53.0051 97 56.1301 92.56 56.1301 88.11C56.1301 83.66 52.8051 83.66 48.9501 84.695C45.0951 85.73 42.1301 87.4 42.1301 91.85Z" fill="#263238"/>
    <path d="M41.0001 101.16L39.8301 99.8051L40.3051 97.8551L39.3051 90.1501C38.8985 90.0822 38.4809 90.1466 38.1137 90.3338C37.7464 90.521 37.449 90.8212 37.2651 91.1901C35.5901 94.2301 39.4951 103.575 39.8301 104.225C39.9535 104.46 40.134 104.66 40.3551 104.807C40.5762 104.954 40.8307 105.043 41.0951 105.065L41.0001 101.16Z" fill="#263238"/>
    <path d="M40.8651 97.7C40.4801 98.075 39.9251 97.36 39.4451 96.91C38.9651 96.46 37.4051 96.09 36.6251 98.195C35.8451 100.3 37.3101 102.5 38.5401 102.615C40.6651 102.815 40.9801 101.16 40.9801 101.16L41.0551 110.21C44.6101 113.985 52.8001 112.14 48.0551 107.865V105.18C49.0286 105.095 49.9886 104.896 50.9151 104.585C52.4751 103.885 53.4551 102.205 53.9151 100.125C54.6751 96.795 54.9651 94.19 54.3201 88.205C53.6101 81.645 46.8201 83.395 43.1401 87.045C39.4601 90.695 40.8651 97.7 40.8651 97.7Z" fill="#FFBDA7"/>
    <path d="M40.795 98.335C40.145 98.165 39.72 97.125 39.445 96.91C39.17 96.695 39.2151 96.145 39.2051 95.87C39.2286 95.1947 39.212 94.5184 39.155 93.845C39.0159 93.1364 38.939 92.417 38.925 91.695C38.925 90.195 38.9601 88.105 39.5751 86.72C40.7101 84.165 42.4801 83.52 44.6151 82.835C46.2551 82.335 48.05 82.385 49.66 81.775C50.9771 81.1851 52.1829 80.3733 53.225 79.375C53.62 79.04 54.17 78.69 54.605 78.965C54.811 79.1255 54.9529 79.3542 55.0051 79.61C55.2433 80.3794 55.3166 81.1904 55.2201 81.99C55.4062 82.0036 55.5929 81.9746 55.7662 81.9053C55.9394 81.836 56.0946 81.7282 56.2201 81.59C56.2951 81.5 56.3751 81.395 56.4901 81.395C56.6051 81.395 56.7301 81.58 56.7551 81.735C56.8493 82.4064 56.7895 83.0903 56.5801 83.735C55.6601 86.955 52.46 88.905 49.195 89.655C47.3675 90.1552 45.4486 90.2236 43.59 89.855C43.3667 89.8076 43.1336 89.8488 42.94 89.97C42.7741 90.0962 42.6518 90.271 42.59 90.47C42.235 91.385 42.59 93.255 42.5 94.515C42.365 96.05 42.13 97.35 41.55 98.075C41.4711 98.1962 41.3539 98.2876 41.2172 98.3346C41.0804 98.3817 40.9319 98.3819 40.795 98.335Z" fill="#263238"/>
    <path d="M39.1001 90.28L36.7551 89.45C37.0851 88.585 37.8801 88.07 38.5301 88.3C39.1801 88.53 39.4351 89.41 39.1001 90.28Z" fill="#263238"/>
    <path d="M48.035 105.18C48.035 105.18 44.535 105.305 43.34 104.88C42.6099 104.625 42.0063 104.099 41.655 103.41C41.8258 104.138 42.1515 104.82 42.61 105.41C43.5 106.485 48.035 106.24 48.035 106.24V105.18Z" fill="#F0997A"/>
    <path d="M47.1999 95.6801C47.1995 95.8977 47.1327 96.1099 47.0086 96.2886C46.8844 96.4673 46.7087 96.6038 46.5049 96.6801C46.1149 96.7801 45.8049 96.4901 45.8049 96.0251C45.8064 95.8071 45.8742 95.5947 45.9992 95.4161C46.1242 95.2375 46.3006 95.1011 46.5049 95.0251C46.8899 94.9251 47.1999 95.2151 47.1999 95.6801Z" fill="#263238"/>
    <path d="M46.0801 92.6451L44.5801 93.9951C44.4821 93.7443 44.4631 93.4696 44.5256 93.2077C44.5882 92.9459 44.7293 92.7094 44.9301 92.5301C45.0013 92.4395 45.0943 92.3684 45.2003 92.3232C45.3063 92.2781 45.422 92.2605 45.5367 92.272C45.6513 92.2834 45.7612 92.3236 45.8562 92.3888C45.9512 92.4541 46.0282 92.5422 46.0801 92.6451Z" fill="#263238"/>
    <path d="M47.72 100.4L49.315 100.665C49.2671 100.917 49.1324 101.145 48.9342 101.309C48.7361 101.472 48.4869 101.561 48.23 101.56C47.795 101.5 47.565 100.97 47.72 100.4Z" fill="#F0997A"/>
    <path d="M53.6 91.3351L52.24 90.5001C52.515 90.0001 53.045 89.7401 53.42 90.0001C53.6035 90.1651 53.7224 90.39 53.7553 90.6345C53.7883 90.8791 53.7332 91.1274 53.6 91.3351Z" fill="#263238"/>
    <path d="M53.3051 93.8101C53.3036 94.0281 53.2358 94.2404 53.1108 94.419C52.9858 94.5976 52.8094 94.734 52.6051 94.8101C52.2201 94.9151 51.9101 94.6201 51.9101 94.1601C51.9061 93.9384 51.9707 93.7209 52.0952 93.5374C52.2196 93.3539 52.3977 93.2134 52.6051 93.1351C53.0001 93.0551 53.3051 93.3451 53.3051 93.8101Z" fill="#263238"/>
    <path d="M49.5549 93.8501L49.6349 98.7151L52.1349 97.4051L49.5549 93.8501Z" fill="#F0997A"/>
    <path d="M26.94 141.435C29.14 117.965 32.13 112.23 36.44 111.64C38.13 112.9 38.665 118.29 37.47 123.88C37.47 123.88 35.03 136.535 34.815 141.09C34.625 145.09 33.52 149.99 34.01 153.14C34.1 153.695 34.39 155.315 34.69 155.69C35.69 156.92 35.445 157.49 36.19 158.45C36.79 159.2 37.785 159.65 37.69 159.95C37.545 160.31 36.89 160.775 35.85 160.295C35.2452 159.971 34.7299 159.502 34.35 158.93C34.35 158.93 34.46 160.43 35.85 162.71C37.155 164.895 37.54 167.175 33.905 166.755C31.85 166.52 30.34 165.94 29.01 160.64C28.64 159.175 28.34 156.515 28.05 154.6C27.195 149.075 26.635 144.665 26.94 141.435Z" fill="#FFBDA7"/>
    <path d="M36.5 110.925C36.5 110.925 32.145 111.78 30.93 115.83C29.93 119.25 29.1 122.33 28.02 129.51C29.1541 130.547 30.561 131.239 32.075 131.503C33.589 131.767 35.1469 131.592 36.565 131C36.565 131 38.865 121.635 39.095 117.425C39.345 112.815 36.5 110.925 36.5 110.925Z" fill="#38A1FF"/>
    <path opacity="0.5" d="M36.5 110.925C36.5 110.925 32.145 111.78 30.93 115.83C29.93 119.25 29.1 122.33 28.02 129.51C29.1541 130.547 30.561 131.239 32.075 131.503C33.589 131.767 35.1469 131.592 36.565 131C36.565 131 38.865 121.635 39.095 117.425C39.345 112.815 36.5 110.925 36.5 110.925Z" fill="black"/>
    </g>
    <path d="M79.75 140.445L76.855 138.79C76.7278 138.694 76.6272 138.566 76.5625 138.42C76.4978 138.274 76.4711 138.114 76.485 137.955V118.67C76.5138 118.153 76.687 117.654 76.985 117.23L79.865 118.89C79.5782 119.313 79.417 119.809 79.4 120.32V139.6C79.3775 139.759 79.3981 139.922 79.4597 140.07C79.5213 140.219 79.6215 140.348 79.75 140.445Z" fill="#38A1FF"/>
    <path opacity="0.55" d="M79.75 140.445L76.855 138.79C76.7278 138.694 76.6272 138.566 76.5625 138.42C76.4978 138.274 76.4711 138.114 76.485 137.955V118.67C76.5138 118.153 76.687 117.654 76.985 117.23L79.865 118.89C79.5782 119.313 79.417 119.809 79.4 120.32V139.6C79.3775 139.759 79.3981 139.922 79.4597 140.07C79.5213 140.219 79.6215 140.348 79.75 140.445Z" fill="white"/>
    <path d="M80.675 118.05L121.06 94.73C121.785 94.31 122.37 94.65 122.37 95.485V114.815C122.346 115.269 122.215 115.711 121.987 116.105C121.759 116.499 121.442 116.833 121.06 117.08L80.675 140.36C79.95 140.775 79.365 140.435 79.365 139.6V120.315C79.389 119.861 79.5202 119.419 79.7479 119.025C79.9756 118.632 80.2933 118.297 80.675 118.05Z" fill="#38A1FF"/>
    <path opacity="0.7" d="M80.675 118.05L121.06 94.73C121.785 94.31 122.37 94.65 122.37 95.485V114.815C122.346 115.269 122.215 115.711 121.987 116.105C121.759 116.499 121.442 116.833 121.06 117.08L80.675 140.36C79.95 140.775 79.365 140.435 79.365 139.6V120.315C79.389 119.861 79.5202 119.419 79.7479 119.025C79.9756 118.632 80.2933 118.297 80.675 118.05Z" fill="white"/>
    <path d="M119.09 93L121.94 94.625C121.795 94.5711 121.639 94.5534 121.486 94.5735C121.332 94.5935 121.186 94.6507 121.06 94.74L80.67 118.05C80.3287 118.261 80.0411 118.549 79.83 118.89L76.95 117.23C77.1554 116.892 77.4382 116.608 77.775 116.4L118.165 93.08C118.343 92.9714 118.546 92.9111 118.755 92.905C118.873 92.9064 118.989 92.9392 119.09 93Z" fill="#38A1FF"/>
    <path opacity="0.85" d="M119.09 93L121.94 94.625C121.795 94.5711 121.639 94.5534 121.486 94.5735C121.332 94.5935 121.186 94.6507 121.06 94.74L80.67 118.05C80.3287 118.261 80.0411 118.549 79.83 118.89L76.95 117.23C77.1554 116.892 77.4382 116.608 77.775 116.4L118.165 93.08C118.343 92.9714 118.546 92.9111 118.755 92.905C118.873 92.9064 118.989 92.9392 119.09 93Z" fill="white"/>
    <path d="M83.8301 119.83L117.905 100.13C118.25 99.93 118.53 100.07 118.53 100.445C118.515 100.656 118.451 100.861 118.343 101.042C118.234 101.224 118.084 101.377 117.905 101.49L83.8301 121.19C83.4851 121.39 83.2051 121.25 83.2051 120.875C83.2205 120.664 83.2851 120.46 83.3936 120.278C83.5021 120.097 83.6516 119.943 83.8301 119.83Z" fill="#38A1FF"/>
    <path d="M83.8301 133.6L117.905 113.895C118.25 113.695 118.53 113.84 118.53 114.215C118.515 114.425 118.45 114.629 118.342 114.81C118.233 114.99 118.083 115.143 117.905 115.255L83.8301 134.96C83.4851 135.16 83.2051 135.015 83.2051 134.64C83.2205 134.43 83.2851 134.226 83.3936 134.046C83.5022 133.865 83.6517 133.712 83.8301 133.6Z" fill="#38A1FF"/>
    <path d="M83.8301 126.715L117.905 107C118.25 106.8 118.53 106.94 118.53 107.315C118.515 107.526 118.45 107.73 118.342 107.912C118.233 108.093 118.084 108.247 117.905 108.36L83.8301 128.06C83.4851 128.26 83.2051 128.12 83.2051 127.74C83.2228 127.532 83.2884 127.332 83.3969 127.154C83.5053 126.976 83.6536 126.826 83.8301 126.715Z" fill="#38A1FF"/>
    <path d="M83.8301 130.155L117.905 110.455C118.25 110.255 118.53 110.395 118.53 110.77C118.515 110.981 118.451 111.186 118.343 111.367C118.234 111.549 118.084 111.702 117.905 111.815L83.8301 131.5C83.4851 131.7 83.2051 131.56 83.2051 131.185C83.2228 130.977 83.2884 130.776 83.3968 130.597C83.5052 130.418 83.6535 130.267 83.8301 130.155Z" fill="#38A1FF"/>
    <path d="M83.8301 123.275L117.905 103.57C118.25 103.37 118.53 103.515 118.53 103.89C118.515 104.1 118.45 104.304 118.342 104.485C118.233 104.665 118.083 104.818 117.905 104.93L83.8301 124.635C83.4851 124.835 83.2051 124.69 83.2051 124.315C83.2205 124.105 83.2851 123.901 83.3936 123.721C83.5022 123.54 83.6517 123.387 83.8301 123.275Z" fill="#38A1FF"/>
    <path d="M79.695 111.55L76.95 110C76.8217 109.904 76.7202 109.777 76.6554 109.631C76.5906 109.485 76.5646 109.324 76.58 109.165V57.84C76.6068 57.3223 76.7802 56.8229 77.08 56.4L79.76 57.95C79.4873 58.3639 79.3334 58.8447 79.315 59.34V110.705C79.2958 110.867 79.321 111.031 79.3879 111.18C79.4548 111.329 79.561 111.457 79.695 111.55Z" fill="#263238"/>
    <path d="M121.695 33.5801C121.452 33.5585 121.21 33.6183 121.005 33.7501L80.6149 57.0701C80.2614 57.2913 79.965 57.5928 79.7499 57.9501L77.0649 56.4001C77.2737 56.0647 77.5558 55.7809 77.8899 55.5701L118.28 32.2551C118.455 32.1436 118.657 32.0814 118.865 32.0751C118.984 32.0741 119.101 32.1034 119.205 32.1601L121.695 33.5801Z" fill="#37474F"/>
    <path d="M80.615 57.0701L121 33.7501C121.725 33.3351 122.31 33.6701 122.31 34.5101V85.9201C122.286 86.3742 122.155 86.8162 121.927 87.2099C121.699 87.6036 121.382 87.9378 121 88.1851L80.61 111.46C79.89 111.88 79.3 111.54 79.3 110.705V59.3401C79.3258 58.8851 79.4583 58.4425 79.6867 58.0482C79.9152 57.6538 80.2332 57.3188 80.615 57.0701Z" fill="#455A64"/>
    <path d="M82.6901 58.66L118.94 37.73C119.59 37.355 120.115 37.66 120.115 38.41V84.555C120.093 84.9627 119.975 85.3595 119.771 85.7131C119.567 86.0667 119.282 86.3671 118.94 86.59L82.6901 107.5C82.0401 107.875 81.5151 107.57 81.5151 106.82V60.7C81.5371 60.2916 81.6549 59.8941 81.859 59.5397C82.0632 59.1853 82.3479 58.8839 82.6901 58.66Z" fill="#F0F0F0"/>
    <mask id="mask2_101_228" style="mask-type:luminance" maskUnits="userSpaceOnUse" x="81" y="37" width="40" height="71">
    <path d="M82.6901 58.66L118.94 37.73C119.59 37.355 120.115 37.66 120.115 38.41V84.555C120.093 84.9627 119.975 85.3595 119.771 85.7131C119.567 86.0667 119.282 86.3671 118.94 86.59L82.6901 107.5C82.0401 107.875 81.5151 107.57 81.5151 106.82V60.695C81.5375 60.2874 81.6555 59.8907 81.8596 59.5372C82.0638 59.1836 82.3483 58.8831 82.6901 58.66Z" fill="white"/>
    </mask>
    <g mask="url(#mask2_101_228)">
    <path d="M113.06 99.825C107.695 80.91 107.635 77.825 107.955 75.595C112.825 74.42 114.955 77.76 116.255 83.39C116.88 86.095 118.68 96.39 119.795 100.695C120.795 104.47 122.005 108.52 123.475 111.195C123.594 111.421 123.766 111.616 123.975 111.763C124.185 111.91 124.427 112.005 124.68 112.04C126.045 112.235 126.45 113 127.56 113.57C128.43 114.01 129.06 113.9 129.035 114.205C128.971 114.544 128.805 114.856 128.559 115.099C128.314 115.342 128 115.504 127.66 115.565C127.113 115.624 126.56 115.588 126.025 115.46C126.683 116.322 127.489 117.06 128.405 117.64C130.545 119.025 131.21 121.14 127.505 122.185C126.05 122.59 123.34 122.13 120.115 117.775C119.041 116.216 118.15 114.538 117.46 112.775C115.625 108.13 114.13 103.605 113.06 99.825Z" fill="#FFA8A7"/>
    <path d="M100.035 77.77C100.035 77.77 94.725 79.655 93.355 80.3C96.855 84.5 92.665 95.96 92.665 95.96L94.9 103.68L111.7 97.795C114.48 90.795 115.025 87.62 114.78 85.7C114.225 81.35 111.625 78.495 107.955 75.595L100.035 77.77Z" fill="#38A1FF"/>
    <path d="M112.65 73.11L103.89 75.86C102.555 76.2795 101.139 76.3791 99.758 76.1506C98.3769 75.922 97.069 75.3718 95.9398 74.5444C94.8106 73.717 93.8919 72.6356 93.2579 71.3876C92.6239 70.1395 92.2923 68.7598 92.29 67.36V65.5C92.29 59.22 96.7 52.95 102.14 51.5L102.875 51.305C108.315 49.845 112.725 53.755 112.725 60.035V61.79C112.725 67.41 112.65 73.11 112.65 73.11Z" fill="#37474F"/>
    <path d="M95.6801 54.1049C95.1401 53.5749 94.2351 53.7749 93.6551 54.5499L94.7351 55.6199C94.4794 55.5896 94.2205 55.6403 93.9951 55.7649C93.6039 55.9846 93.2884 56.3177 93.0903 56.7202C92.8921 57.1228 92.8206 57.5759 92.8851 58.0199L95.6901 56.5849C95.6755 56.5206 95.6571 56.4572 95.6351 56.3949C96.1651 55.6249 96.2001 54.6199 95.6801 54.1049Z" fill="#37474F"/>
    <path d="M108.89 56.2C109.89 56.855 111.29 58.03 111.16 64.635C111.05 70.23 109.485 72.025 108.7 72.635C107.915 73.245 106.4 73.405 104.93 73.515V77.045C104.93 77.045 107.475 79.455 107.345 81.045C107.215 82.635 104.93 83.94 101.48 81.825C100.265 81.0152 99.2416 79.9505 98.4801 78.705L98.5101 71.155C98.5101 71.155 97.6451 72.355 96.1801 71.265C95.5615 70.7749 95.1487 70.0711 95.0229 69.292C94.897 68.5129 95.0673 67.7149 95.5001 67.055C95.6895 66.7612 95.9397 66.5114 96.2338 66.3225C96.528 66.1336 96.8592 66.01 97.2051 65.96C97.4079 65.9505 97.6105 65.9823 97.8007 66.0534C97.9908 66.1245 98.1645 66.2335 98.3113 66.3738C98.4581 66.514 98.5749 66.6826 98.6546 66.8693C98.7343 67.056 98.7753 67.2569 98.7751 67.46V67.875C98.7751 67.875 99.8451 68.04 99.9151 65.95C99.9551 64.79 101.34 62.95 102.695 61.79C105 59.805 107.935 59.78 108.89 56.2Z" fill="#FFA8A7"/>
    <path d="M105.165 64.2899C105.174 64.4823 105.124 64.6727 105.021 64.8354C104.918 64.9982 104.768 65.1254 104.59 65.1999C104.255 65.3099 103.97 65.0749 103.955 64.6999C103.946 64.5069 103.996 64.3158 104.099 64.1521C104.202 63.9885 104.352 63.8604 104.53 63.785C104.86 63.66 105.15 63.8899 105.165 64.2899Z" fill="#263238"/>
    <path d="M105.57 69.085L107.355 69.265C107.311 69.547 107.171 69.8053 106.959 69.9965C106.747 70.1876 106.475 70.3001 106.19 70.315C105.7 70.265 105.42 69.715 105.57 69.085Z" fill="#F28F8F"/>
    <path d="M110.415 61.25L109.19 60.595C109.41 60.13 109.87 59.9 110.19 60.095C110.365 60.2251 110.484 60.4155 110.526 60.629C110.567 60.8426 110.528 61.0639 110.415 61.25Z" fill="#263238"/>
    <path d="M103.43 63.065L104.655 61.75C104.43 61.41 103.975 61.42 103.655 61.785C103.488 61.9476 103.376 62.1588 103.336 62.3886C103.295 62.6184 103.328 62.855 103.43 63.065Z" fill="#263238"/>
    <path d="M110.27 63.245C110.281 63.4382 110.231 63.6301 110.128 63.7939C110.025 63.9578 109.874 64.0857 109.695 64.16C109.36 64.27 109.075 64.035 109.06 63.66C109.05 63.4668 109.1 63.2753 109.203 63.1116C109.306 62.9478 109.457 62.8198 109.635 62.745C109.965 62.615 110.255 62.85 110.27 63.245Z" fill="#263238"/>
    <path d="M107.355 63.4449L107.45 67.6349L109.37 66.4349L107.355 63.4449Z" fill="#F28F8F"/>
    <path d="M104.93 73.5C103.38 73.68 100.19 73.5 99.6902 72.155C99.8651 72.7921 100.262 73.3455 100.81 73.715C101.765 74.4 104.93 74.615 104.93 74.615V73.5Z" fill="#F28F8F"/>
    <path d="M84.2051 110.53C85.8601 92.4549 86.8051 82.2699 93.3551 80.2999C94.3301 80.6549 95.2351 82.7999 95.4051 84.3549C95.7001 86.9849 95.3451 91.5249 93.7151 93.8549C93.7151 93.8549 91.6601 104.685 90.8651 110.92C90.3151 115.235 89.1301 121.45 89.4051 124.95C89.5353 125.582 89.8129 126.175 90.2151 126.68L91.3251 128.525C91.5437 128.912 91.7946 129.28 92.0751 129.625C92.3301 129.92 92.6251 130.175 92.9001 130.45C93.1051 130.65 93.3051 130.95 93.1351 131.19C93.0692 131.268 92.9825 131.325 92.8851 131.355C92.5594 131.478 92.2098 131.525 91.8631 131.492C91.5164 131.459 91.1819 131.347 90.8851 131.165C90.5151 130.935 90.2151 130.6 89.8301 130.4C89.862 131.045 90.0453 131.674 90.3651 132.235C90.5851 132.69 90.8051 133.15 91.0501 133.6C91.3143 134.051 91.5482 134.518 91.7501 135C91.9579 135.482 92.0087 136.017 91.8951 136.53C91.7679 136.921 91.5338 137.269 91.2192 137.534C90.9047 137.799 90.5222 137.971 90.1151 138.03C89.2973 138.135 88.4674 137.972 87.7501 137.565C85.2851 136.29 84.4601 133.73 84.1501 131.16C83.8492 129.022 83.6822 126.868 83.6501 124.71C83.7451 119 83.8851 114.05 84.2051 110.53Z" fill="#FFA8A7"/>
    <path d="M98.5002 78.1849C97.4334 78.413 96.4168 78.8332 95.5002 79.4249C95.5002 79.4249 97.8602 83.9849 101.91 84.6449C105.96 85.3049 106.25 82.5799 106.25 82.5799C103.715 82.6849 101.155 81.5849 98.5002 78.1849Z" fill="#455A64"/>
    <path d="M104.93 76.355V77.045C106.65 79.285 107.175 81.22 106.225 82.58C106.225 82.58 109.06 83.545 109.56 81.465C110.06 79.385 106.46 76.015 106.46 76.015C105.936 76.0531 105.421 76.1676 104.93 76.355Z" fill="#455A64"/>
    </g>
    <path d="M152.345 118.5C151.64 117.92 150.555 117.8 149.255 118.285C146.65 119.25 144.16 122.255 143.69 124.99C143.455 126.36 143.775 127.405 144.475 127.99L192.25 170.8C193.22 171.715 194.79 171.94 196.7 171.235C200.34 169.885 203.825 165.69 204.475 161.86C204.82 159.86 204.31 158.36 203.225 157.565L152.345 118.5Z" fill="#38A1FF"/>
    <path opacity="0.15" d="M151.148 125.504C153.32 122.886 153.854 119.745 152.341 118.49C150.828 117.235 147.84 118.34 145.668 120.958C143.496 123.576 142.962 126.716 144.475 127.972C145.988 129.227 148.976 128.122 151.148 125.504Z" fill="black"/>
    <path d="M134.355 108.155C133.515 108.518 132.772 109.074 132.188 109.779C131.604 110.484 131.195 111.317 130.995 112.21C130.905 112.526 130.902 112.861 130.984 113.179C131.067 113.497 131.233 113.787 131.465 114.02L146.03 126.105C146.301 126.292 146.616 126.403 146.944 126.426C147.272 126.45 147.6 126.386 147.895 126.24C148.736 125.877 149.478 125.32 150.063 124.616C150.648 123.911 151.058 123.078 151.26 122.185C151.35 121.868 151.353 121.532 151.27 121.213C151.186 120.894 151.019 120.603 150.785 120.37L136.225 108.29C135.954 108.103 135.637 107.992 135.308 107.968C134.98 107.944 134.65 108.009 134.355 108.155Z" fill="#263238"/>
    <path opacity="0.1" d="M149.875 126.785L199.195 169.835C198.427 170.405 197.586 170.869 196.695 171.215C194.785 171.92 193.195 171.715 192.24 170.775L144.5 128C145.21 128.585 146.285 128.695 147.59 128.215C148.427 127.871 149.2 127.387 149.875 126.785Z" fill="black"/>
    <path d="M159.895 61.5C159.895 61 159.855 60.5 159.815 60C159.775 59.5 159.755 59.025 159.705 58.545C159.705 58.22 159.645 57.905 159.605 57.58C159.52 56.745 159.4 55.915 159.26 55.13C159.2 54.77 159.135 54.405 159.065 54.045C158.995 53.685 158.925 53.365 158.855 53.045C158.645 52.135 158.42 51.245 158.165 50.39C158.03 49.985 157.905 49.58 157.77 49.185C157.743 49.1257 157.723 49.0636 157.71 49C157.565 48.605 157.425 48.225 157.275 47.85C157.125 47.475 156.935 46.99 156.735 46.58C156.595 46.275 156.465 45.98 156.305 45.685C156.214 45.4639 156.107 45.25 155.985 45.045C155.861 44.7816 155.724 44.5246 155.575 44.275C155.546 44.216 155.512 44.1592 155.475 44.105C155.355 43.885 155.215 43.66 155.085 43.44C154.955 43.22 154.9 43.16 154.815 43.02C154.185 42.0231 153.474 41.0799 152.69 40.2C152.555 40.05 152.42 39.9 152.3 39.755L151.965 39.405C151.83 39.26 151.68 39.125 151.53 38.975C151.126 38.5664 150.699 38.1824 150.25 37.825C150.04 37.645 149.82 37.475 149.595 37.325C149.37 37.175 149.155 36.995 148.92 36.825C148.567 36.5658 148.2 36.3271 147.82 36.11L147.525 35.925L147.465 35.875L140.57 31.825L140.47 31.765C137.108 29.8925 133.312 28.9388 129.465 29C123.74 29 117.285 30.875 110.44 34.815C86.9398 48.39 67.8848 81.395 67.8848 108.54C67.8848 122.08 72.6198 131.6 80.2748 136.04L80.3448 136.075L87.2498 140.115L87.3298 140.16L87.4298 140.215L87.5398 140.275C87.8698 140.465 88.1998 140.64 88.5398 140.805C88.8798 140.97 89.3898 141.2 89.8198 141.365C90.2026 141.533 90.5949 141.678 90.9948 141.8C91.1978 141.873 91.4048 141.935 91.6148 141.985C91.836 142.069 92.0633 142.136 92.2948 142.185C92.5217 142.253 92.752 142.31 92.9848 142.355C93.1487 142.403 93.3158 142.44 93.4848 142.465C93.7798 142.525 94.0998 142.59 94.4098 142.63C94.4778 142.651 94.5485 142.663 94.6198 142.665C94.9848 142.725 95.3598 142.78 95.7248 142.815C102.065 143.48 109.435 141.69 117.325 137.14C140.825 123.57 159.9 90.55 159.9 63.415C159.93 62.785 159.915 62.145 159.895 61.5ZM82.3348 125.55C81.3506 121.919 80.8661 118.171 80.8948 114.41C80.8948 88.69 99.7148 56.085 121.99 43.225C125.242 41.2989 128.753 39.846 132.415 38.91C134.171 38.4758 135.971 38.2492 137.78 38.235C138.691 38.2308 139.6 38.301 140.5 38.445H140.575C145.135 43.84 145.805 52.48 145.805 57.1C145.805 82.82 127.005 115.425 104.72 128.28C99.0498 131.55 93.5998 133.28 88.9248 133.28C87.9545 133.287 86.9876 133.164 86.0498 132.915C84.3206 130.74 83.0561 128.233 82.3348 125.55Z" fill="#38A1FF"/>
    <path opacity="0.15" d="M153.81 61.615C153.81 75.28 148.5 90.88 140.18 104.44C139.79 105.085 139.39 105.715 138.98 106.35C138.635 106.895 138.28 107.44 137.91 107.98C137.13 109.14 136.34 110.285 135.51 111.405C135.12 111.94 134.725 112.47 134.32 112.99C133.915 113.51 133.44 114.135 132.99 114.7C132.135 115.78 131.25 116.83 130.35 117.855C129.76 118.54 129.155 119.21 128.545 119.855C123.645 125.125 118.29 129.575 112.72 132.785C111.655 133.4 110.605 133.96 109.56 134.465C106.172 136.186 102.502 137.282 98.7249 137.7C98.1149 137.76 97.5149 137.785 96.9349 137.785C96.6249 137.785 96.3299 137.785 96.0349 137.76H95.9999C95.4336 137.736 94.8692 137.677 94.3099 137.585C94.0349 137.545 93.7649 137.5 93.5049 137.44C93.2436 137.39 92.9849 137.326 92.7299 137.25C90.0918 136.58 87.7467 135.062 86.0549 132.93C86.9911 133.179 87.9563 133.302 88.9249 133.295C93.5999 133.295 99.0499 131.57 104.72 128.295C127.005 115.44 145.805 82.835 145.805 57.115C145.805 52.495 145.135 43.855 140.575 38.46H140.5C146.31 39.39 149.615 43.34 151.475 47.905C152.002 49.2029 152.427 50.5404 152.745 51.905C152.745 51.98 152.78 52.055 152.795 52.13C152.855 52.375 152.915 52.63 152.96 52.87C153.005 53.11 153.055 53.37 153.1 53.59C153.115 53.651 153.127 53.7127 153.135 53.775C153.185 54.035 153.23 54.29 153.27 54.54C153.415 55.495 153.535 56.425 153.615 57.315C153.615 57.575 153.66 57.815 153.675 58.065C153.69 58.315 153.705 58.44 153.715 58.62C153.715 58.695 153.715 58.775 153.715 58.85C153.715 59.05 153.74 59.245 153.75 59.44C153.75 59.495 153.75 59.545 153.75 59.605C153.75 59.85 153.75 60.105 153.775 60.33C153.805 60.76 153.81 61.2 153.81 61.615Z" fill="black"/>
    <path opacity="0.1" d="M86.6599 139.8L80.2699 136.045C72.6149 131.57 67.8799 122.045 67.8799 108.545C67.8799 96.435 71.6749 83.17 77.9549 70.99L85.2299 75.175C78.9449 87.355 74.7799 100.485 74.7799 112.59C74.7799 125.825 79.2849 135.215 86.6599 139.8Z" fill="black"/>
    <path opacity="0.4" d="M147.53 35.9251L147.47 35.8751L140.58 31.8251H140.555L140.46 31.7651C137.101 29.895 133.309 28.9414 129.465 29.0001C123.745 29.0001 117.285 30.8701 110.44 34.8151C97.4399 42.3151 85.7549 55.8151 77.9399 70.9951L85.1799 75.2551L85.0249 75.5551C92.8499 60.5551 104.455 46.9901 117.34 38.8701C129.005 31.5201 140.075 31.4201 147.805 36.1201L147.53 35.9251Z" fill="white"/>
    <path opacity="0.3" d="M150.105 59.435C150.105 85.155 131.285 117.76 109.01 130.62C105.758 132.546 102.247 133.999 98.585 134.935C96.8293 135.369 95.0286 135.596 93.22 135.61C91.3619 135.634 89.5151 135.318 87.77 134.68C85.005 132.36 83.335 129 82.335 125.55C81.3508 121.919 80.8664 118.171 80.895 114.41C80.895 88.69 99.715 56.085 121.99 43.225C125.242 41.2989 128.753 39.846 132.415 38.91C134.171 38.4757 135.971 38.2492 137.78 38.235C139.638 38.2118 141.484 38.5252 143.23 39.16C146 41.48 147.67 44.845 148.67 48.295C149.65 51.9262 150.133 55.6738 150.105 59.435Z" fill="white"/>
    <mask id="mask3_101_228" style="mask-type:luminance" maskUnits="userSpaceOnUse" x="80" y="38" width="66" height="96">
    <path d="M104.72 128.305C127.005 115.45 145.805 82.8449 145.805 57.1249C145.805 52.5049 145.135 43.8649 140.575 38.4699H140.5C139.601 38.326 138.691 38.2558 137.78 38.2599C135.971 38.2742 134.171 38.5007 132.415 38.9349C128.758 39.864 125.251 41.3085 122 43.2249C99.725 56.0849 80.905 88.6899 80.905 114.41C80.8764 118.171 81.3608 121.919 82.345 125.55C83.0785 128.293 84.3856 130.849 86.18 133.05C87.0897 133.208 88.0117 133.285 88.935 133.28C93.6 133.3 99.05 131.575 104.72 128.305Z" fill="white"/>
    </mask>
    <g mask="url(#mask3_101_228)">
    <path d="M139.555 22.18C139.203 22.1522 138.852 22.24 138.555 22.43L79.205 56.69C78.6868 57.015 78.2519 57.4568 77.935 57.98L74 55.705C74.3038 55.2104 74.7179 54.7928 75.21 54.485L134.54 20.235C134.798 20.071 135.095 19.9795 135.4 19.97C135.575 19.9686 135.747 20.0116 135.9 20.095L139.555 22.18Z" fill="#37474F"/>
    <path d="M79.2099 56.685L138.54 22.435C139.6 21.82 140.465 22.315 140.465 23.545V99.045C140.428 99.7123 140.235 100.361 139.9 100.94C139.566 101.519 139.1 102.01 138.54 102.375L79.2099 136.59C78.1449 137.2 77.2849 136.705 77.2849 135.475V60C77.3237 59.3353 77.5181 58.689 77.8524 58.1132C78.1868 57.5374 78.6518 57.0482 79.2099 56.685Z" fill="#455A64"/>
    <path d="M82.255 59.0249L135.5 28.2799C136.45 27.7299 137.225 28.1749 137.225 29.2799V97.0599C137.194 97.6606 137.022 98.2454 136.722 98.7668C136.422 99.2882 136.004 99.7313 135.5 100.06L82.25 130.75C81.295 131.3 80.52 130.855 80.52 129.75V61.9999C80.5565 61.4029 80.7324 60.8228 81.0338 60.3061C81.3351 59.7895 81.7534 59.3506 82.255 59.0249Z" fill="#F0F0F0"/>
    <mask id="mask4_101_228" style="mask-type:luminance" maskUnits="userSpaceOnUse" x="80" y="28" width="58" height="103">
    <path d="M82.255 59.0249L135.5 28.2799C136.45 27.7299 137.225 28.1749 137.225 29.2799V97.0599C137.194 97.6606 137.022 98.2454 136.722 98.7668C136.422 99.2882 136.004 99.7313 135.5 100.06L82.25 130.75C81.295 131.3 80.52 130.855 80.52 129.75V61.9999C80.5565 61.4029 80.7324 60.8228 81.0338 60.3061C81.3351 59.7895 81.7534 59.3506 82.255 59.0249Z" fill="white"/>
    </mask>
    <g mask="url(#mask4_101_228)">
    <path d="M126.865 119.5C118.985 91.715 118.9 87.165 119.365 83.91C126.52 82.185 129.635 87.085 131.555 95.36C132.48 99.36 135.12 114.47 136.76 120.78C138.2 126.325 140.005 132.28 142.16 136.24C142.336 136.571 142.589 136.856 142.896 137.071C143.204 137.285 143.558 137.424 143.93 137.475C145.93 137.76 146.53 138.89 148.165 139.72C149.445 140.375 150.39 140.22 150.33 140.66C150.236 141.16 149.992 141.619 149.63 141.976C149.268 142.334 148.806 142.572 148.305 142.66C147.62 142.78 147.09 142.66 145.91 142.5C146.876 143.77 148.061 144.857 149.41 145.71C152.55 147.745 153.53 150.875 148.085 152.385C145.95 152.975 141.965 152.3 137.235 145.91C135.658 143.621 134.349 141.158 133.335 138.57C130.635 131.695 128.445 125.05 126.865 119.5Z" fill="#FFA8A7"/>
    <path d="M107.74 87.095C107.74 87.095 99.9402 89.865 97.9202 90.815C103.03 96.98 96.9202 113.815 96.9202 113.815L100.205 125.16C96.6702 131.33 124.38 119.875 124.885 116.51C128.965 106.195 129.76 101.565 129.385 98.745C128.575 92.355 124.755 88.16 119.385 83.9L107.74 87.095Z" fill="#38A1FF"/>
    <path d="M100.195 125.16C106.855 124.985 121.87 119.235 124.875 116.51C128.955 106.195 129.75 101.565 129.375 98.745" fill="#38A1FF"/>
    <path d="M126.265 80.245L113.4 84.285C111.437 84.9018 109.357 85.0479 107.327 84.7115C105.297 84.3751 103.375 83.5657 101.716 82.3487C100.057 81.1317 98.7074 79.5413 97.777 77.7061C96.8466 75.8709 96.3612 73.8425 96.3601 71.785V69.1C96.3601 59.875 102.835 50.66 110.825 48.52L111.905 48.23C119.905 46.085 126.375 51.83 126.375 61.06V63.635C126.375 71.875 126.265 80.245 126.265 80.245Z" fill="#37474F"/>
    <path d="M101.335 52.3299C100.55 51.5549 99.2151 51.8299 98.3601 52.9849L99.9501 54.5549C99.5734 54.5148 99.1934 54.5898 98.8601 54.7699C98.2849 55.0924 97.8215 55.5822 97.5312 56.1743C97.241 56.7664 97.1377 57.4328 97.2351 58.0849L101.355 55.9799C101.333 55.8831 101.305 55.7878 101.27 55.6949C102.055 54.5649 102.1 53.0849 101.335 52.3299Z" fill="#37474F"/>
    <path d="M120.74 55.415C122.24 56.37 124.27 58.095 124.075 67.8C123.915 76.02 121.615 78.66 120.465 79.55C119.315 80.44 117.085 80.68 114.925 80.845V86.03C114.925 86.03 118.66 89.575 118.475 91.875C118.29 94.175 114.925 96.125 109.86 93.02C108.082 91.8282 106.583 90.2658 105.465 88.44L105.51 77.345C105.51 77.345 104.24 79.115 102.085 77.515C101.176 76.794 100.57 75.7592 100.385 74.6139C100.2 73.4687 100.449 72.2956 101.085 71.325C101.362 70.8937 101.729 70.5271 102.16 70.2501C102.592 69.9732 103.077 69.7924 103.585 69.72C103.885 69.702 104.185 69.7463 104.466 69.8501C104.748 69.9538 105.005 70.1149 105.221 70.3231C105.437 70.5312 105.608 70.782 105.722 71.0594C105.836 71.3369 105.892 71.635 105.885 71.935V72.545C105.885 72.545 107.46 72.79 107.565 69.72C107.625 68.015 109.66 65.32 111.65 63.61C115.04 60.705 119.34 60.67 120.74 55.415Z" fill="#FFA8A7"/>
    <path d="M115.27 67.29C115.284 67.5738 115.211 67.8551 115.06 68.0957C114.908 68.3363 114.687 68.5246 114.425 68.635C113.925 68.795 113.515 68.45 113.49 67.865C113.478 67.5822 113.552 67.3023 113.703 67.0628C113.854 66.8234 114.075 66.6357 114.335 66.525C114.825 66.365 115.245 66.71 115.27 67.29Z" fill="#263238"/>
    <path d="M115.865 74.34L118.485 74.605C118.265 75.53 117.485 76.22 116.78 76.145C116.075 76.07 115.645 75.265 115.865 74.34Z" fill="#F28F8F"/>
    <path d="M123 62.83L121.2 61.87C121.53 61.185 122.2 60.87 122.7 61.115C123.2 61.36 123.31 62.145 123 62.83Z" fill="#263238"/>
    <path d="M112.72 65.5L114.52 63.575C114.19 63.075 113.52 63.075 113.02 63.62C112.779 63.8624 112.621 64.1743 112.567 64.5117C112.513 64.849 112.567 65.1947 112.72 65.5Z" fill="#263238"/>
    <path d="M122.77 65.76C122.784 66.0438 122.711 66.325 122.56 66.5656C122.408 66.8063 122.187 66.9945 121.925 67.105C121.425 67.26 121.015 66.92 120.99 66.335C120.978 66.0521 121.052 65.7723 121.203 65.5328C121.354 65.2933 121.575 65.1057 121.835 64.995C122.325 64.835 122.745 65.18 122.77 65.76Z" fill="#263238"/>
    <path d="M118.485 66.0549L118.63 72.2099L121.45 70.4449L118.485 66.0549Z" fill="#F28F8F"/>
    <path d="M114.925 80.845C112.645 81.11 107.96 80.81 107.23 78.87C107.488 79.8049 108.071 80.617 108.875 81.16C110.275 82.16 114.925 82.485 114.925 82.485V80.845Z" fill="#F28F8F"/>
    <path d="M84.5001 135.22C86.9351 108.665 88.3201 93.7199 97.9401 90.8149C99.3751 91.3149 100.705 94.5049 100.94 96.7699C101.37 100.63 100.85 107.305 98.4401 110.74C98.4401 110.74 95.4401 126.65 94.2551 135.805C93.4451 142.145 91.7051 151.28 92.1101 156.42C92.1901 157.39 92.8101 158.145 93.3001 158.96L94.9301 161.665C95.2519 162.235 95.6216 162.777 96.0351 163.285C96.4051 163.72 96.8401 164.095 97.2451 164.495C97.5451 164.79 97.8401 165.25 97.5901 165.585C97.4941 165.699 97.3673 165.782 97.2251 165.825C96.7436 166.009 96.2263 166.08 95.713 166.033C95.1997 165.985 94.7043 165.82 94.2651 165.55C93.7201 165.21 93.2651 164.715 92.7101 164.425C92.7573 165.371 93.028 166.293 93.5001 167.115C93.8201 167.79 94.1401 168.465 94.5001 169.115C94.897 169.771 95.2494 170.452 95.5551 171.155C95.8591 171.866 95.9342 172.654 95.7701 173.41C95.579 173.982 95.2329 174.489 94.7703 174.876C94.3077 175.263 93.7468 175.513 93.1501 175.6C91.9476 175.75 90.7288 175.508 89.6751 174.91C86.0601 173.04 84.8501 169.28 84.3901 165.505C83.9565 162.365 83.721 159.2 83.6851 156.03C83.8051 147.675 84.0001 140.385 84.5001 135.22Z" fill="#FFA8A7"/>
    <path d="M105.465 87.705C103.89 88.0385 102.389 88.6551 101.035 89.525C101.035 89.525 104.505 96.225 110.455 97.195C116.405 98.165 116.825 94.16 116.825 94.16C113.14 94.315 109.375 92.705 105.465 87.705Z" fill="#455A64"/>
    <path d="M114.925 85V86C117.45 89.29 118.225 92.13 116.825 94.13C116.825 94.13 120.995 95.545 121.725 92.495C122.455 89.445 117.175 84.495 117.175 84.495C116.404 84.5524 115.646 84.7226 114.925 85Z" fill="#455A64"/>
    </g>
    </g>
    <path d="M183.795 109C187.26 108.615 188.59 109.63 189.88 112.5C191.11 115.24 194.88 123.5 194.69 125.425C194.5 127.35 186.62 135.545 186.62 135.545L184.375 132.815L189.245 124.625L185.37 116.36L183.795 109Z" fill="#FFA8A7"/>
    <path d="M176.835 106.31L177.485 113.11L183.56 112.73L183.075 105.19L176.835 106.31Z" fill="#FFA8A7"/>
    <path d="M169.05 93.24C168.998 92.9204 168.998 92.5946 169.05 92.275C169.126 91.8615 169.291 91.4696 169.534 91.1262C169.776 90.7828 170.091 90.4961 170.455 90.286C170.819 90.0758 171.224 89.9473 171.643 89.9091C172.062 89.871 172.484 89.9242 172.88 90.065C172.762 89.4407 172.858 88.795 173.15 88.2312C173.443 87.6674 173.917 87.2181 174.495 86.955C174.944 86.7845 175.423 86.7064 175.903 86.7253C176.384 86.7442 176.855 86.8597 177.29 87.065C177.812 87.2482 178.246 87.6213 178.505 88.11C178.812 87.5948 179.264 87.1811 179.805 86.9204C180.345 86.6596 180.95 86.5631 181.545 86.643C182.139 86.7228 182.697 86.9755 183.15 87.3696C183.602 87.7637 183.929 88.2819 184.09 88.86C185.015 88.655 186.32 89.065 186.735 89.985C187.205 91.03 186.63 92.325 186.845 93.42C186.985 94.13 187.29 94.795 187.42 95.515C187.552 96.317 187.628 97.1273 187.645 97.94C187.78 101.295 179.985 103.475 180.145 105.78L176 100.725C176 100.515 175.41 99.99 175.28 99.815C175.03 99.48 174.81 99.125 174.58 98.775C173.866 97.7532 172.873 96.9583 171.72 96.485C170.905 96.11 170.2 95.5335 169.67 94.81C169.347 94.3404 169.135 93.8036 169.05 93.24Z" fill="#263238"/>
    <path d="M172.325 98.85C172.325 98.85 170.98 100.85 171.155 101.06C171.469 101.266 171.818 101.415 172.185 101.5L172.325 98.85Z" fill="#F28F8F"/>
    <path d="M176.435 92.4999C175.13 93.1649 172.87 94.3899 172.285 99.1299C171.69 103.99 172.785 105.68 173.465 106.315C173.92 106.745 176.27 106.9 177.495 106.53C179.025 106.06 182.35 104.45 183.905 101.94C185.735 98.985 186.115 95.05 184 93.51C181.025 91.355 177.545 91.9549 176.435 92.4999Z" fill="#FFA8A7"/>
    <path d="M173.59 106.42C174.14 106.72 175.705 106.845 176.87 106.675L176.83 105.805C176.33 106.02 175.811 106.187 175.28 106.305C174.725 106.427 174.156 106.466 173.59 106.42Z" fill="#F28F8F"/>
    <path d="M175.865 92.37C175.309 92.5728 174.793 92.8705 174.34 93.25C174.113 93.4388 173.929 93.6741 173.8 93.94C173.701 94.1874 173.663 94.4549 173.69 94.72C173.729 95.0848 173.862 95.4331 174.077 95.7304C174.292 96.0277 174.581 96.2637 174.915 96.415C174.737 96.6543 174.616 96.9303 174.559 97.2226C174.502 97.515 174.511 97.8165 174.585 98.105C174.824 98.7767 175.238 99.3722 175.785 99.83C175.812 99.8618 175.847 99.8874 175.885 99.905C175.923 99.9113 175.963 99.9087 176 99.8974C176.037 99.8862 176.071 99.8665 176.1 99.84C176.92 99.29 177.43 98.34 178.6 98.725C180.125 99.225 180.05 101.105 178.855 102.275C178.428 102.706 177.864 102.974 177.26 103.03C176.953 103.037 176.655 102.932 176.42 102.735C176.42 102.735 176.465 105.185 178.595 106.16C180.08 106.592 181.655 106.611 183.15 106.215C183.955 105.19 185.305 103.885 186.415 102.715C190.07 98.87 190.28 93.285 184.885 91.52C184.7 91.46 184.515 91.405 184.325 91.355C182.59 90.9022 180.773 90.8628 179.02 91.24C178.156 91.4263 177.317 91.7132 176.52 92.095L175.865 92.37Z" fill="#263238"/>
    <path d="M175.69 101.545C175.548 101.497 175.418 101.422 175.306 101.323C175.194 101.224 175.103 101.103 175.039 100.969C174.975 100.834 174.938 100.687 174.931 100.538C174.925 100.389 174.948 100.24 175 100.1C175.106 99.8157 175.32 99.5847 175.595 99.4573C175.87 99.33 176.185 99.3166 176.47 99.42L175.69 101.545Z" fill="#263238"/>
    <path d="M176.29 194.795C176.508 195.462 176.692 196.139 176.84 196.825C176.995 197.58 177.215 198.825 176.95 199.405C176.685 199.985 175.655 200.34 174.06 200.325C173.03 200.325 171.42 201.02 170.315 201.635C169.21 202.25 166.815 202.525 165.605 202.38C164.185 202.215 162.715 201.38 162.485 200.805C162.255 200.23 162.065 199.41 165.905 198.18C165.94 198.18 170.555 196.68 172.175 194.88L176.29 194.795Z" fill="#263238"/>
    <path d="M176.29 194.9L175.555 194.81L172.175 194.88C170.555 196.665 165.94 198.17 165.905 198.18L165.29 198.385C164.625 198.925 165.19 199.84 166.79 199.98C168.39 200.12 173.315 198.48 174.41 197.935C174.983 197.665 175.466 197.235 175.8 196.696C176.134 196.158 176.304 195.534 176.29 194.9Z" fill="#FFA8A7"/>
    <path d="M176.29 193.45C176.29 193.45 176.29 194.375 176.29 194.9C176.29 195.425 175.67 196.215 174.055 196.16C172.92 196.12 172.13 195.815 172.175 194.88V193.535L176.29 193.45Z" fill="#FFA8A7"/>
    <path d="M187.14 188.72C187.43 188.84 187.49 189.4 187.505 190.515C187.505 191.355 187.655 192.83 186.66 193.095C185.665 193.36 184.23 193.175 183.615 192.365C182.855 191.365 182.345 190.465 181.255 189.23C180.305 188.155 179.255 187.15 178.92 185.665C178.6 184.33 178.92 183.76 179.83 183.4C180.74 183.04 181.575 183.335 182.83 184.4C183.185 184.637 183.564 184.836 183.96 184.995C184.805 185.245 186.85 188.6 187.14 188.72Z" fill="#263238"/>
    <path d="M187.165 187.69L187.13 189.055C187.13 189.055 186.215 190.845 183.675 189.055C183.62 188.925 183.395 186.28 183.395 186.28L187.165 187.69Z" fill="#FFA8A7"/>
    <path d="M183.97 185C183.574 184.841 183.195 184.642 182.84 184.405C181.84 184.075 179.66 184.455 180.635 185.94C181.441 187.165 182.472 188.226 183.675 189.065C184.825 189.63 185.23 188.93 185.23 188.93L184.82 185.725C184.596 185.422 184.305 185.174 183.97 185Z" fill="#FFA8A7"/>
    <path d="M189 168.79C188.764 166.386 188.261 164.017 187.5 161.725C187.5 161.725 188.36 155.695 189.035 149.905C190.625 136.325 189.565 136.11 187.645 131.405C187.645 131.405 170.235 129.165 169.51 136.405C168.6 145.405 169.01 162.905 169.165 166.105C169.32 169.305 169.575 170.75 170.525 177.45C171.25 182.55 171.935 193.695 171.935 193.695C174.215 195.01 176.435 193.47 176.435 193.47C176.435 193.47 178.615 179.76 178.565 176.07C178.53 173.341 178.141 170.629 177.41 168C177.41 168 178.91 153.305 179.265 150.97C179.265 150.97 179.685 155.655 179.84 158.855C179.995 162.055 180.84 165.125 181.625 171.08C182.285 176.245 183.385 187.025 183.385 187.025C185.67 188.34 187.265 187.745 187.265 187.745C187.265 187.745 189.525 173.27 189 168.79Z" fill="#38A1FF"/>
    <g opacity="0.4">
    <path d="M189 168.79C188.764 166.386 188.261 164.017 187.5 161.725C187.5 161.725 188.36 155.695 189.035 149.905C190.625 136.325 189.565 136.11 187.645 131.405C187.645 131.405 170.235 129.165 169.51 136.405C168.6 145.405 169.01 162.905 169.165 166.105C169.32 169.305 169.575 170.75 170.525 177.45C171.25 182.55 171.935 193.695 171.935 193.695C174.215 195.01 176.435 193.47 176.435 193.47C176.435 193.47 178.615 179.76 178.565 176.07C178.53 173.341 178.141 170.629 177.41 168C177.41 168 178.91 153.305 179.265 150.97C179.265 150.97 179.685 155.655 179.84 158.855C179.995 162.055 180.84 165.125 181.625 171.08C182.285 176.245 183.385 187.025 183.385 187.025C185.67 188.34 187.265 187.745 187.265 187.745C187.265 187.745 189.525 173.27 189 168.79Z" fill="black"/>
    </g>
    <path opacity="0.15" d="M179.265 150.945L180.105 144.595C182.559 144.59 184.939 143.761 186.865 142.24C186.865 142.24 185.725 144.56 181.1 145.575L180.195 152.11L179.87 159.31C179.717 156.497 179.515 153.708 179.265 150.945Z" fill="black"/>
    <path d="M188.255 111.83C187.665 110.08 186.46 109.05 183.795 109.02H183.325C183.135 110.02 180.01 110.89 177.175 109.89C176.785 109.96 175.435 110.11 174.815 110.195L173.46 110.39C171.4 111.065 170.49 114.65 170.29 120.325C170.09 126 169.245 138.145 169.245 138.145C169.245 138.145 173.68 140.525 180.675 139.605C186.94 138.78 189.72 135.105 189.505 135.565C188.557 132.436 187.359 129.388 185.925 126.45C189.225 118.365 189.135 114.435 188.255 111.83Z" fill="#455A64"/>
    <path d="M177.21 139.825C178.368 139.839 179.526 139.771 180.675 139.62C186.39 138.87 189.26 135.74 189.5 135.55C188.564 132.427 187.368 129.388 185.925 126.465C187.595 122.37 188.395 119.345 188.665 117.015C188.395 118.715 185.885 125.295 182.6 127.265C182.6 127.265 184.45 127.555 186.035 129.73C187.62 131.905 186.32 139.36 177.21 139.825Z" fill="#37474F"/>
    <path d="M174.815 110.21C172.085 110.555 169.925 111.125 168.73 113.71C166.73 118.125 164.525 121.75 162.935 123.455C161.235 125.275 154.265 128.455 152.695 128.22C151.125 127.985 149.56 126.16 148.75 126.625C147.94 127.09 149.44 128.845 149.34 129.24C149.24 129.635 146.395 129.425 145.05 128.475C143.705 127.525 143.205 129.475 144.945 131.525C146.685 133.575 149.945 133.725 153.51 133.025C157.075 132.325 163.77 130.44 166.51 128.195C169.815 125.475 170.94 123.415 172.345 120.975C177.42 115.735 174.815 110.21 174.815 110.21Z" fill="#FFA8A7"/>
    </svg>
    