<svg width="250" height="250" viewBox="0 0 250 250" fill="none" xmlns="http://www.w3.org/2000/svg">
    <path d="M250 191.2H0V191.325H250V191.2Z" fill="#FAFAFA"/>
    <path d="M211.61 196.64H199.195V196.765H211.61V196.64Z" fill="#E0E0E0"/>
    <path d="M219.475 196.575H215.28V196.7H219.475V196.575Z" fill="#E0E0E0"/>
    <path d="M166.015 197.415H140.02V197.54H166.015V197.415Z" fill="#E0E0E0"/>
    <path d="M133.885 198.77H130.01V198.895H133.885V198.77Z" fill="#E0E0E0"/>
    <path d="M55.9749 194.815H49.2949V194.94H55.9749V194.815Z" fill="#E0E0E0"/>
    <path d="M92.63 194.815H58.75V194.94H92.63V194.815Z" fill="#E0E0E0"/>
    <path d="M63.7499 197.835H40.1799V197.96H63.7499V197.835Z" fill="#E0E0E0"/>
    <path d="M118.5 168.9H21.955C21.1987 168.899 20.4738 168.597 19.9394 168.062C19.4051 167.527 19.105 166.801 19.105 166.045V30.33C19.1116 29.578 19.4146 28.859 19.9482 28.3291C20.4818 27.7992 21.203 27.5013 21.955 27.5H118.5C119.257 27.5 119.983 27.8008 120.519 28.3362C121.054 28.8716 121.355 29.5978 121.355 30.355V166.045C121.355 166.802 121.054 167.528 120.519 168.064C119.983 168.599 119.257 168.9 118.5 168.9ZM21.955 27.6C21.2318 27.6013 20.5387 27.8895 20.0278 28.4014C19.5169 28.9132 19.23 29.6068 19.23 30.33V166.045C19.23 166.768 19.5169 167.462 20.0278 167.974C20.5387 168.485 21.2318 168.774 21.955 168.775H118.5C119.224 168.774 119.917 168.486 120.429 167.974C120.941 167.462 121.229 166.769 121.23 166.045V30.33C121.229 29.6064 120.941 28.9127 120.429 28.4011C119.917 27.8894 119.224 27.6013 118.5 27.6H21.955Z" fill="#E0E0E0"/>
    <path d="M226.655 168.9H130.105C129.348 168.899 128.623 168.597 128.088 168.062C127.553 167.527 127.251 166.802 127.25 166.045V30.33C127.258 29.5776 127.562 28.8585 128.096 28.3288C128.631 27.7991 129.353 27.5013 130.105 27.5H226.655C227.406 27.5026 228.126 27.8011 228.659 28.3309C229.191 28.8606 229.493 29.5789 229.5 30.33V166.045C229.5 166.8 229.201 167.525 228.667 168.06C228.134 168.595 227.41 168.897 226.655 168.9ZM130.105 27.6C129.381 27.6013 128.688 27.8894 128.176 28.4011C127.664 28.9127 127.376 29.6064 127.375 30.33V166.045C127.376 166.769 127.664 167.462 128.176 167.974C128.688 168.486 129.381 168.774 130.105 168.775H226.655C227.379 168.774 228.072 168.486 228.584 167.974C229.096 167.462 229.384 166.769 229.385 166.045V30.33C229.384 29.6064 229.096 28.9127 228.584 28.4011C228.072 27.8894 227.379 27.6013 226.655 27.6H130.105Z" fill="#E0E0E0"/>
    <path d="M170.875 191.2H188.54V159.14H170.875V191.2Z" fill="#E0E0E0"/>
    <path d="M209.615 159.14H188.54V191.2H209.615V159.14Z" fill="#EBEBEB"/>
    <g style="mix-blend-mode:multiply" opacity="0.7">
    <path d="M170.875 163.305H209.8V161.855H170.875V163.305Z" fill="#E0E0E0"/>
    </g>
    <path d="M169.9 162.46H188.54V155.78H169.9V162.46Z" fill="#E0E0E0"/>
    <path d="M210.59 155.785H188.54V162.465H210.59V155.785Z" fill="#EBEBEB"/>
    <path d="M97.0299 36.995H37.5649V107.945H97.0299V36.995Z" fill="#E0E0E0"/>
    <path d="M99.7551 36.995H38.8401V107.945H99.7551V36.995Z" fill="#EBEBEB"/>
    <path d="M97.0299 107.945H37.5649V113H97.0299V107.945Z" fill="#E0E0E0"/>
    <path d="M104.285 107.945H43.3701V113H104.285V107.945Z" fill="#EBEBEB"/>
    <path d="M95.9451 104.135V40.8051H42.6501L42.6501 104.135H95.9451Z" fill="#F5F5F5"/>
    <path d="M49.1899 104.135L71.5449 40.8051H82.0949L59.7449 104.135H49.1899Z" fill="#FAFAFA"/>
    <path d="M44.4099 82.65C44.3378 82.6487 44.2692 82.6192 44.2187 82.5677C44.1682 82.5163 44.1399 82.4471 44.1399 82.375V43.28C44.1399 43.2084 44.1683 43.1397 44.219 43.0891C44.2696 43.0385 44.3383 43.01 44.4099 43.01C44.482 43.01 44.5512 43.0383 44.6026 43.0888C44.654 43.1393 44.6836 43.2079 44.6849 43.28V82.375C44.6849 82.4479 44.6559 82.5179 44.6043 82.5695C44.5528 82.621 44.4828 82.65 44.4099 82.65Z" fill="#EBEBEB"/>
    <path d="M62.01 104.135L84.365 40.8051H88.48L66.125 104.135H62.01Z" fill="#FAFAFA"/>
    <path d="M95.9399 104.135V40.8051H95.4549V104.135H95.9399Z" fill="#E0E0E0"/>
    <path d="M100.65 45.675H41.1901L40.8401 42.285H100.3L100.65 45.675Z" fill="#E0E0E0"/>
    <path d="M100.65 48.16H41.1901L40.8401 44.765H100.3L100.65 48.16Z" fill="#E0E0E0"/>
    <path d="M100.65 51.14H41.1901L40.8401 47.745H100.3L100.65 51.14Z" fill="#E0E0E0"/>
    <path d="M100.65 54.4549H41.1901L40.8401 51.0649H100.3L100.65 54.4549Z" fill="#E0E0E0"/>
    <path d="M100.65 58.43H41.1901L40.8401 55.035H100.3L100.65 58.43Z" fill="#E0E0E0"/>
    <path d="M100.65 62.895H41.1901L40.8401 59.505H100.3L100.65 62.895Z" fill="#E0E0E0"/>
    <path d="M205.18 36.995H145.715V107.945H205.18V36.995Z" fill="#E0E0E0"/>
    <path d="M207.9 36.995H146.985V107.945H207.9V36.995Z" fill="#EBEBEB"/>
    <path d="M205.18 107.945H145.715V113H205.18V107.945Z" fill="#E0E0E0"/>
    <path d="M212.435 107.945H151.52V113H212.435V107.945Z" fill="#EBEBEB"/>
    <path d="M204.095 104.135V40.8051H150.8V104.135H204.095Z" fill="#F5F5F5"/>
    <path d="M157.34 104.135L179.695 40.8051H190.245L167.89 104.135H157.34Z" fill="#FAFAFA"/>
    <path d="M152.56 82.65C152.488 82.6487 152.419 82.6192 152.369 82.5677C152.318 82.5163 152.29 82.4471 152.29 82.375V43.28C152.29 43.2084 152.318 43.1397 152.369 43.0891C152.42 43.0385 152.488 43.01 152.56 43.01C152.632 43.01 152.7 43.0385 152.751 43.0891C152.802 43.1397 152.83 43.2084 152.83 43.28V82.375C152.83 82.4471 152.802 82.5163 152.751 82.5677C152.701 82.6192 152.632 82.6487 152.56 82.65Z" fill="#EBEBEB"/>
    <path d="M170.16 104.135L192.515 40.8051H196.625L174.275 104.135H170.16Z" fill="#FAFAFA"/>
    <path d="M204.09 104.135V40.8051H203.605V104.135H204.09Z" fill="#E0E0E0"/>
    <path d="M208.8 45.675H149.34L148.985 42.285H208.45L208.8 45.675Z" fill="#E0E0E0"/>
    <path d="M208.8 48.16H149.34L148.985 44.765H208.45L208.8 48.16Z" fill="#E0E0E0"/>
    <path d="M208.8 51.14H149.34L148.985 47.745H208.45L208.8 51.14Z" fill="#E0E0E0"/>
    <path d="M208.8 54.4549H149.34L148.985 51.0649H208.45L208.8 54.4549Z" fill="#E0E0E0"/>
    <path d="M208.8 58.43H149.34L148.985 55.035H208.45L208.8 58.43Z" fill="#E0E0E0"/>
    <path d="M208.8 62.895H149.34L148.985 59.505H208.45L208.8 62.895Z" fill="#E0E0E0"/>
    <path d="M159.02 146.23H147.145V191.2H159.02V146.23Z" fill="#E0E0E0"/>
    <path d="M156.76 191.2H159.015V185.69H154.395L156.76 191.2Z" fill="#F5F5F5"/>
    <path d="M43.78 146.23H31.905V191.2H43.78V146.23Z" fill="#E0E0E0"/>
    <path d="M159.02 146.23H41.8101V188.17H159.02V146.23Z" fill="#F5F5F5"/>
    <path d="M101.17 148.33V178.28H157.27V148.33H101.17Z" fill="#E0E0E0"/>
    <path d="M43.5601 148.33V178.28H99.66V148.33H43.5601Z" fill="#E0E0E0"/>
    <path d="M157.265 184.61V181.275H101.165V184.61H157.265Z" fill="#E0E0E0"/>
    <path d="M99.655 184.615V181.28H43.555V184.615H99.655Z" fill="#E0E0E0"/>
    <path d="M91.3649 150.12H51.8649C50.9879 150.121 50.1198 149.944 49.3129 149.6C48.5061 149.256 47.7771 148.753 47.1699 148.12H96.0799C95.4704 148.755 94.7382 149.26 93.9277 149.604C93.1172 149.948 92.2453 150.123 91.3649 150.12Z" fill="#F5F5F5"/>
    <path d="M149.185 150.12H109.685C108.808 150.121 107.94 149.944 107.133 149.6C106.326 149.256 105.597 148.753 104.99 148.12H153.9C153.292 148.757 152.56 149.263 151.749 149.606C150.938 149.95 150.066 150.125 149.185 150.12Z" fill="#F5F5F5"/>
    <path d="M44.0649 191.2H41.8049V185.69H46.4249L44.0649 191.2Z" fill="#F5F5F5"/>
    <g style="mix-blend-mode:multiply" opacity="0.4">
    <path d="M127.78 118.62H114.56V146.23H127.78V118.62Z" fill="#E0E0E0"/>
    </g>
    <path d="M138.885 146.23H116.51L114.405 116.415H136.775L138.885 146.23Z" fill="#E0E0E0"/>
    <path d="M141.43 146.23H117.145L115.04 116.415H139.32L141.43 146.23Z" fill="#F5F5F5"/>
    <path d="M118.27 145.09L116.325 117.555H138.2L140.15 145.09H118.27Z" fill="#FAFAFA"/>
    <path d="M123.565 138.925L122.49 123.72H132.905L133.98 138.925H123.565Z" fill="#F5F5F5"/>
    <path d="M79.675 141.335C82.8838 141.335 85.485 138.734 85.485 135.525C85.485 132.316 82.8838 129.715 79.675 129.715C76.4662 129.715 73.865 132.316 73.865 135.525C73.865 138.734 76.4662 141.335 79.675 141.335Z" fill="#EBEBEB"/>
    <path d="M89.6249 144.105C92.8337 144.105 95.4349 141.504 95.4349 138.295C95.4349 135.086 92.8337 132.485 89.6249 132.485C86.4162 132.485 83.8149 135.086 83.8149 138.295C83.8149 141.504 86.4162 144.105 89.6249 144.105Z" fill="#EBEBEB"/>
    <path d="M99.5115 139.452C101.49 138.637 102.434 136.372 101.618 134.393C100.803 132.415 98.5382 131.471 96.5594 132.286C94.5807 133.102 93.6374 135.367 94.4526 137.345C95.2678 139.324 97.5327 140.267 99.5115 139.452Z" fill="#EBEBEB"/>
    <path d="M89.3204 132.634C89.6625 130.521 88.2273 128.531 86.1148 128.189C84.0022 127.847 82.0122 129.282 81.6701 131.394C81.3279 133.507 82.7631 135.497 84.8757 135.839C86.9883 136.181 88.9782 134.746 89.3204 132.634Z" fill="#EBEBEB"/>
    <path d="M70.385 137.255C70.385 137.255 70.84 146.23 88.275 146.23C105.71 146.23 106.165 137.255 106.165 137.255H70.385Z" fill="#E0E0E0"/>
    <path d="M54.2851 143.155C54.2851 143.155 48.6051 133.365 56.4851 125.57C56.4851 125.57 58.5401 126.91 58.4851 128.715C58.4301 130.52 56.2801 130.97 56.7451 132.475C57.2101 133.98 59.2451 135.475 57.9201 136.7C56.5951 137.925 58.1351 139.045 58.0451 140.57C57.9551 142.095 54.2851 143.155 54.2851 143.155Z" fill="#E0E0E0"/>
    <path d="M54.715 144.05C54.715 144.05 57.015 132.97 47.08 128.05C47.08 128.05 45.55 129.975 46.15 131.675C46.75 133.375 48.95 133.12 48.985 134.675C49.02 136.23 47.535 138.295 49.205 139.05C50.875 139.805 49.74 141.35 50.305 142.765C50.87 144.18 54.715 144.05 54.715 144.05Z" fill="#E0E0E0"/>
    <path d="M46 138.925C46 138.925 46.19 146.23 53.43 146.23C60.67 146.23 60.86 138.925 60.86 138.925H46Z" fill="#EBEBEB"/>
    <path d="M125 213.78C178.541 213.78 221.945 211.246 221.945 208.12C221.945 204.994 178.541 202.46 125 202.46C71.4587 202.46 28.0549 204.994 28.0549 208.12C28.0549 211.246 71.4587 213.78 125 213.78Z" fill="#F5F5F5"/>
    <path d="M90.2249 136.22C89.9285 136.201 89.6505 136.069 89.4474 135.852C89.2444 135.636 89.1313 135.35 89.1313 135.052C89.1313 134.755 89.2444 134.469 89.4474 134.253C89.6505 134.036 89.9285 133.904 90.2249 133.885C93.0849 133.885 95.4949 129.79 95.4949 124.94C95.5143 124.644 95.6458 124.366 95.8626 124.163C96.0794 123.959 96.3653 123.846 96.6624 123.846C96.9595 123.846 97.2454 123.959 97.4622 124.163C97.679 124.366 97.8105 124.644 97.8299 124.94C97.8299 131.265 94.4999 136.22 90.2249 136.22Z" fill="#38A1FF"/>
    <path d="M107.87 136.22C107.573 136.201 107.296 136.069 107.092 135.852C106.889 135.636 106.776 135.35 106.776 135.052C106.776 134.755 106.889 134.469 107.092 134.253C107.296 134.036 107.573 133.904 107.87 133.885C110.73 133.885 113.14 129.79 113.14 124.94C113.159 124.644 113.291 124.366 113.508 124.163C113.724 123.959 114.01 123.846 114.307 123.846C114.604 123.846 114.89 123.959 115.107 124.163C115.324 124.366 115.456 124.644 115.475 124.94C115.5 131.265 112.135 136.22 107.87 136.22Z" fill="#38A1FF"/>
    <path d="M125.5 136.22C125.204 136.201 124.926 136.069 124.723 135.852C124.519 135.636 124.406 135.35 124.406 135.053C124.406 134.755 124.519 134.47 124.723 134.253C124.926 134.036 125.204 133.904 125.5 133.885C128.355 133.885 130.77 129.79 130.77 124.94C130.77 124.631 130.893 124.335 131.111 124.116C131.33 123.898 131.626 123.775 131.935 123.775C132.244 123.775 132.54 123.898 132.759 124.116C132.977 124.335 133.1 124.631 133.1 124.94C133.115 131.265 129.78 136.22 125.5 136.22Z" fill="#38A1FF"/>
    <path d="M143.16 136.22C143 136.23 142.84 136.208 142.689 136.154C142.539 136.1 142.401 136.016 142.284 135.906C142.167 135.797 142.074 135.665 142.01 135.518C141.946 135.371 141.914 135.213 141.914 135.053C141.914 134.892 141.946 134.734 142.01 134.587C142.074 134.44 142.167 134.308 142.284 134.199C142.401 134.089 142.539 134.005 142.689 133.951C142.84 133.897 143 133.875 143.16 133.885C146.015 133.885 148.43 129.79 148.43 124.94C148.43 124.631 148.553 124.335 148.771 124.116C148.99 123.898 149.286 123.775 149.595 123.775C149.904 123.775 150.2 123.898 150.419 124.116C150.637 124.335 150.76 124.631 150.76 124.94C150.76 131.265 147.42 136.22 143.16 136.22Z" fill="#38A1FF"/>
    <path d="M160.8 136.22C160.504 136.201 160.226 136.069 160.023 135.852C159.82 135.636 159.707 135.35 159.707 135.052C159.707 134.755 159.82 134.469 160.023 134.253C160.226 134.036 160.504 133.904 160.8 133.885C163.66 133.885 166.07 129.79 166.07 124.94C166.09 124.644 166.221 124.366 166.438 124.163C166.655 123.959 166.941 123.846 167.238 123.846C167.535 123.846 167.821 123.959 168.037 124.163C168.254 124.366 168.386 124.644 168.405 124.94C168.405 131.265 165.065 136.22 160.8 136.22Z" fill="#38A1FF"/>
    <path d="M178.445 136.22C178.148 136.201 177.87 136.069 177.667 135.852C177.464 135.636 177.351 135.35 177.351 135.052C177.351 134.755 177.464 134.469 177.667 134.253C177.87 134.036 178.148 133.904 178.445 133.885C181.3 133.885 183.715 129.79 183.715 124.94C183.734 124.644 183.866 124.366 184.083 124.163C184.299 123.959 184.585 123.846 184.882 123.846C185.179 123.846 185.465 123.959 185.682 124.163C185.899 124.366 186.03 124.644 186.05 124.94C186.05 131.265 182.71 136.22 178.445 136.22Z" fill="#38A1FF"/>
    <g opacity="0.3">
    <path d="M90.2249 136.22C89.9285 136.201 89.6505 136.069 89.4474 135.852C89.2444 135.636 89.1313 135.35 89.1313 135.052C89.1313 134.755 89.2444 134.469 89.4474 134.253C89.6505 134.036 89.9285 133.904 90.2249 133.885C93.0849 133.885 95.4949 129.79 95.4949 124.94C95.5143 124.644 95.6458 124.366 95.8626 124.163C96.0794 123.959 96.3653 123.846 96.6624 123.846C96.9595 123.846 97.2454 123.959 97.4622 124.163C97.679 124.366 97.8105 124.644 97.8299 124.94C97.8299 131.265 94.4999 136.22 90.2249 136.22Z" fill="black"/>
    <path d="M107.87 136.22C107.573 136.201 107.296 136.069 107.092 135.852C106.889 135.636 106.776 135.35 106.776 135.052C106.776 134.755 106.889 134.469 107.092 134.253C107.296 134.036 107.573 133.904 107.87 133.885C110.73 133.885 113.14 129.79 113.14 124.94C113.159 124.644 113.291 124.366 113.508 124.163C113.724 123.959 114.01 123.846 114.307 123.846C114.604 123.846 114.89 123.959 115.107 124.163C115.324 124.366 115.456 124.644 115.475 124.94C115.5 131.265 112.135 136.22 107.87 136.22Z" fill="black"/>
    <path d="M125.5 136.22C125.203 136.201 124.925 136.069 124.722 135.852C124.519 135.636 124.406 135.35 124.406 135.053C124.406 134.755 124.519 134.47 124.722 134.253C124.925 134.036 125.203 133.904 125.5 133.885C128.355 133.885 130.77 129.79 130.77 124.94C130.77 124.631 130.893 124.335 131.111 124.116C131.33 123.898 131.626 123.775 131.935 123.775C132.244 123.775 132.54 123.898 132.759 124.116C132.977 124.335 133.1 124.631 133.1 124.94C133.115 131.265 129.78 136.22 125.5 136.22Z" fill="black"/>
    <path d="M143.16 136.22C143 136.23 142.84 136.208 142.689 136.154C142.539 136.1 142.401 136.016 142.284 135.906C142.167 135.797 142.074 135.665 142.01 135.518C141.946 135.371 141.914 135.213 141.914 135.053C141.914 134.892 141.946 134.734 142.01 134.587C142.074 134.44 142.167 134.308 142.284 134.199C142.401 134.089 142.539 134.005 142.689 133.951C142.84 133.897 143 133.875 143.16 133.885C146.015 133.885 148.43 129.79 148.43 124.94C148.43 124.631 148.553 124.335 148.771 124.116C148.99 123.898 149.286 123.775 149.595 123.775C149.904 123.775 150.2 123.898 150.419 124.116C150.637 124.335 150.76 124.631 150.76 124.94C150.76 131.265 147.42 136.22 143.16 136.22Z" fill="black"/>
    <path d="M160.8 136.22C160.503 136.201 160.225 136.069 160.022 135.852C159.819 135.636 159.706 135.35 159.706 135.052C159.706 134.755 159.819 134.469 160.022 134.253C160.225 134.036 160.503 133.904 160.8 133.885C163.66 133.885 166.07 129.79 166.07 124.94C166.089 124.644 166.221 124.366 166.438 124.163C166.654 123.959 166.94 123.846 167.237 123.846C167.534 123.846 167.82 123.959 168.037 124.163C168.254 124.366 168.385 124.644 168.405 124.94C168.405 131.265 165.065 136.22 160.8 136.22Z" fill="black"/>
    <path d="M178.445 136.22C178.148 136.201 177.87 136.069 177.667 135.852C177.464 135.636 177.351 135.35 177.351 135.052C177.351 134.755 177.464 134.469 177.667 134.253C177.87 134.036 178.148 133.904 178.445 133.885C181.3 133.885 183.715 129.79 183.715 124.94C183.734 124.644 183.866 124.366 184.083 124.163C184.299 123.959 184.585 123.846 184.882 123.846C185.179 123.846 185.465 123.959 185.682 124.163C185.899 124.366 186.03 124.644 186.05 124.94C186.05 131.265 182.71 136.22 178.445 136.22Z" fill="black"/>
    </g>
    <path d="M79.1701 126.135H192.76C194.283 126.166 195.743 126.751 196.865 127.781C197.987 128.811 198.695 130.215 198.855 131.73L205.145 202.645C205.222 203.357 205.146 204.076 204.924 204.757C204.701 205.437 204.337 206.062 203.855 206.591C203.373 207.12 202.784 207.54 202.127 207.825C201.47 208.109 200.761 208.251 200.045 208.24H86.4501C84.9277 208.207 83.4694 207.621 82.3476 206.592C81.2259 205.562 80.5176 204.159 80.3551 202.645L74.0701 131.73C73.9927 131.018 74.0676 130.298 74.2897 129.618C74.5118 128.937 74.8761 128.312 75.3584 127.782C75.8406 127.253 76.4299 126.833 77.0871 126.549C77.7442 126.265 78.4543 126.124 79.1701 126.135Z" fill="#38A1FF"/>
    <path opacity="0.4" d="M79.1701 126.135H192.76C194.283 126.166 195.743 126.751 196.865 127.781C197.987 128.811 198.695 130.215 198.855 131.73L205.145 202.645C205.222 203.357 205.146 204.076 204.924 204.757C204.701 205.437 204.337 206.062 203.855 206.591C203.373 207.12 202.784 207.54 202.127 207.825C201.47 208.109 200.761 208.251 200.045 208.24H86.4501C84.9277 208.207 83.4694 207.621 82.3476 206.592C81.2259 205.562 80.5176 204.159 80.3551 202.645L74.0701 131.73C73.9927 131.018 74.0676 130.298 74.2897 129.618C74.5118 128.937 74.8761 128.312 75.3584 127.782C75.8406 127.253 76.4299 126.833 77.0871 126.549C77.7442 126.265 78.4543 126.124 79.1701 126.135Z" fill="#FAFAFA"/>
    <path d="M191.815 126.135H78.22C76.7175 126.153 75.2778 126.74 74.1918 127.779C73.1059 128.818 72.4548 130.23 72.37 131.73L69.17 202.645C69.1319 203.367 69.2416 204.09 69.4926 204.769C69.7435 205.447 70.1303 206.067 70.6293 206.591C71.1283 207.115 71.729 207.531 72.3945 207.815C73.0601 208.098 73.7765 208.243 74.5 208.24H188.105C189.607 208.222 191.047 207.635 192.133 206.596C193.219 205.557 193.87 204.145 193.955 202.645L197.16 131.73C197.197 131.006 197.087 130.283 196.835 129.604C196.583 128.924 196.194 128.304 195.694 127.78C195.193 127.256 194.591 126.84 193.924 126.557C193.257 126.274 192.539 126.131 191.815 126.135Z" fill="#38A1FF"/>
    <path opacity="0.2" d="M191.815 126.135H78.22C76.7175 126.153 75.2778 126.74 74.1918 127.779C73.1059 128.818 72.4548 130.23 72.37 131.73L69.17 202.645C69.1319 203.367 69.2416 204.09 69.4926 204.769C69.7435 205.447 70.1303 206.067 70.6293 206.591C71.1283 207.115 71.729 207.531 72.3945 207.815C73.0601 208.098 73.7765 208.243 74.5 208.24H188.105C189.607 208.222 191.047 207.635 192.133 206.596C193.219 205.557 193.87 204.145 193.955 202.645L197.16 131.73C197.197 131.006 197.087 130.283 196.835 129.604C196.583 128.924 196.194 128.304 195.694 127.78C195.193 127.256 194.591 126.84 193.924 126.557C193.257 126.274 192.539 126.131 191.815 126.135Z" fill="#FAFAFA"/>
    <path d="M80.305 189.5L82.95 130.935C82.9817 130.361 83.2309 129.82 83.6469 129.422C84.0629 129.025 84.6146 128.801 85.19 128.795H184.605C184.882 128.793 185.157 128.848 185.412 128.956C185.667 129.065 185.897 129.224 186.089 129.424C186.28 129.624 186.429 129.862 186.525 130.122C186.622 130.382 186.664 130.658 186.65 130.935L184 189.5C183.968 190.075 183.719 190.615 183.303 191.013C182.887 191.41 182.335 191.635 181.76 191.64H82.35C82.0728 191.642 81.7982 191.587 81.543 191.479C81.2879 191.371 81.0575 191.211 80.866 191.011C80.6745 190.811 80.526 190.573 80.4295 190.313C80.333 190.054 80.2907 189.777 80.305 189.5Z" fill="#38A1FF"/>
    <path opacity="0.1" d="M80.305 189.5L82.95 130.935C82.9817 130.361 83.2309 129.82 83.6469 129.422C84.0629 129.025 84.6146 128.801 85.19 128.795H184.605C184.882 128.793 185.157 128.848 185.412 128.956C185.667 129.065 185.897 129.224 186.089 129.424C186.28 129.624 186.429 129.862 186.525 130.122C186.622 130.382 186.664 130.658 186.65 130.935L184 189.5C183.968 190.075 183.719 190.615 183.303 191.013C182.887 191.41 182.335 191.635 181.76 191.64H82.35C82.0728 191.642 81.7982 191.587 81.543 191.479C81.2879 191.371 81.0575 191.211 80.866 191.011C80.6745 190.811 80.526 190.573 80.4295 190.313C80.333 190.054 80.2907 189.777 80.305 189.5Z" fill="#FAFAFA"/>
    <path opacity="0.1" d="M77.5 194.28L80.275 132.78C80.3069 132.177 80.5678 131.608 81.0046 131.191C81.4414 130.774 82.021 130.539 82.625 130.535H187.025C187.316 130.533 187.604 130.59 187.872 130.703C188.14 130.816 188.382 130.983 188.583 131.193C188.784 131.404 188.94 131.653 189.041 131.926C189.142 132.199 189.186 132.489 189.17 132.78L186.39 194.28C186.358 194.883 186.098 195.451 185.663 195.869C185.227 196.287 184.649 196.523 184.045 196.53H79.635C79.3443 196.532 79.0563 196.474 78.7888 196.36C78.5213 196.246 78.28 196.079 78.0799 195.868C77.8797 195.657 77.725 195.407 77.6253 195.134C77.5255 194.861 77.4829 194.57 77.5 194.28Z" fill="black"/>
    <path d="M74.92 199.24L77.815 135.09C77.8539 134.463 78.1276 133.873 78.5816 133.439C79.0356 133.004 79.6367 132.756 80.265 132.745H189.17C189.474 132.743 189.775 132.802 190.055 132.921C190.335 133.039 190.587 133.213 190.797 133.433C191.007 133.653 191.17 133.913 191.275 134.198C191.381 134.483 191.426 134.787 191.41 135.09L188.5 199.24C188.461 199.867 188.187 200.457 187.733 200.892C187.279 201.326 186.678 201.574 186.05 201.585H77.16C76.856 201.588 76.5545 201.529 76.2743 201.411C75.9942 201.293 75.7412 201.118 75.5312 200.899C75.3212 200.679 75.1586 200.418 75.0534 200.133C74.9483 199.847 74.9029 199.544 74.92 199.24Z" fill="#FAFAFA"/>
    <path d="M178.43 136.59C178.225 136.59 178.022 136.549 177.834 136.468C177.646 136.387 177.477 136.268 177.336 136.119C177.196 135.97 177.087 135.794 177.017 135.602C176.947 135.409 176.918 135.204 176.93 135C176.949 134.599 177.121 134.22 177.41 133.941C177.699 133.663 178.083 133.505 178.485 133.5C178.69 133.5 178.892 133.541 179.081 133.622C179.269 133.703 179.438 133.822 179.579 133.971C179.719 134.12 179.828 134.296 179.898 134.488C179.968 134.681 179.997 134.886 179.985 135.09C179.966 135.491 179.794 135.87 179.505 136.149C179.216 136.427 178.832 136.585 178.43 136.59Z" fill="#38A1FF"/>
    <path d="M160.785 136.59C160.58 136.59 160.377 136.549 160.189 136.468C160.001 136.387 159.832 136.268 159.691 136.119C159.551 135.97 159.442 135.794 159.372 135.602C159.302 135.409 159.273 135.204 159.285 135C159.304 134.599 159.476 134.22 159.765 133.941C160.054 133.663 160.438 133.505 160.84 133.5C161.045 133.5 161.247 133.541 161.436 133.622C161.624 133.703 161.793 133.822 161.934 133.971C162.074 134.12 162.183 134.296 162.253 134.488C162.323 134.681 162.352 134.886 162.34 135.09C162.322 135.492 162.151 135.871 161.861 136.15C161.572 136.429 161.187 136.587 160.785 136.59Z" fill="#38A1FF"/>
    <path d="M143.14 136.59C142.935 136.59 142.732 136.549 142.544 136.468C142.356 136.387 142.187 136.268 142.046 136.119C141.906 135.97 141.797 135.794 141.727 135.602C141.657 135.409 141.628 135.204 141.64 135C141.66 134.599 141.832 134.221 142.121 133.943C142.41 133.664 142.794 133.506 143.195 133.5C143.4 133.5 143.602 133.541 143.791 133.622C143.979 133.703 144.148 133.822 144.289 133.971C144.429 134.12 144.538 134.296 144.608 134.488C144.677 134.681 144.707 134.886 144.695 135.09C144.677 135.492 144.506 135.871 144.216 136.15C143.927 136.429 143.542 136.587 143.14 136.59Z" fill="#38A1FF"/>
    <path d="M125.5 136.59C125.295 136.59 125.093 136.549 124.904 136.468C124.716 136.387 124.547 136.268 124.406 136.119C124.266 135.97 124.157 135.794 124.087 135.602C124.017 135.409 123.988 135.204 124 135C124.022 134.599 124.195 134.221 124.484 133.942C124.774 133.664 125.158 133.506 125.56 133.5C125.765 133.5 125.968 133.541 126.156 133.622C126.344 133.703 126.513 133.822 126.654 133.971C126.794 134.12 126.903 134.296 126.973 134.488C127.043 134.681 127.072 134.886 127.06 135.09C127.042 135.492 126.87 135.873 126.58 136.152C126.289 136.431 125.903 136.588 125.5 136.59Z" fill="#38A1FF"/>
    <path d="M107.855 136.59C107.65 136.59 107.448 136.549 107.259 136.468C107.071 136.387 106.902 136.268 106.761 136.119C106.621 135.97 106.512 135.794 106.442 135.602C106.372 135.409 106.343 135.204 106.355 135C106.374 134.599 106.546 134.22 106.835 133.941C107.124 133.663 107.508 133.505 107.91 133.5C108.115 133.5 108.317 133.541 108.506 133.622C108.694 133.703 108.863 133.822 109.004 133.971C109.144 134.12 109.253 134.296 109.323 134.488C109.393 134.681 109.422 134.886 109.41 135.09C109.391 135.491 109.219 135.87 108.93 136.149C108.641 136.427 108.257 136.585 107.855 136.59Z" fill="#38A1FF"/>
    <path d="M90.21 136.59C90.0052 136.59 89.8025 136.549 89.6144 136.468C89.4263 136.387 89.2567 136.268 89.1162 136.119C88.9757 135.97 88.8671 135.794 88.7973 135.602C88.7274 135.409 88.6977 135.204 88.71 135C88.7291 134.599 88.9007 134.22 89.1897 133.941C89.4788 133.663 89.8634 133.505 90.265 133.5C90.4698 133.5 90.6725 133.541 90.8606 133.622C91.0487 133.703 91.2182 133.822 91.3588 133.971C91.4993 134.12 91.6078 134.296 91.6777 134.488C91.7476 134.681 91.7773 134.886 91.765 135.09C91.7471 135.492 91.5758 135.871 91.2865 136.15C90.9972 136.429 90.6119 136.587 90.21 136.59Z" fill="#38A1FF"/>
    <g opacity="0.1">
    <path d="M178.43 136.59C178.225 136.59 178.022 136.549 177.834 136.468C177.646 136.387 177.477 136.268 177.336 136.119C177.196 135.97 177.087 135.794 177.017 135.602C176.947 135.409 176.918 135.204 176.93 135C176.949 134.599 177.121 134.22 177.41 133.941C177.699 133.663 178.083 133.505 178.485 133.5C178.69 133.5 178.892 133.541 179.081 133.622C179.269 133.703 179.438 133.822 179.579 133.971C179.719 134.12 179.828 134.296 179.898 134.488C179.968 134.681 179.997 134.886 179.985 135.09C179.966 135.491 179.794 135.87 179.505 136.149C179.216 136.427 178.832 136.585 178.43 136.59Z" fill="#FAFAFA"/>
    <path d="M160.785 136.59C160.58 136.59 160.377 136.549 160.189 136.468C160.001 136.387 159.832 136.268 159.691 136.119C159.551 135.97 159.442 135.794 159.372 135.602C159.302 135.409 159.273 135.204 159.285 135C159.304 134.599 159.476 134.22 159.765 133.941C160.054 133.663 160.438 133.505 160.84 133.5C161.045 133.5 161.247 133.541 161.436 133.622C161.624 133.703 161.793 133.822 161.934 133.971C162.074 134.12 162.183 134.296 162.253 134.488C162.323 134.681 162.352 134.886 162.34 135.09C162.322 135.492 162.151 135.871 161.861 136.15C161.572 136.429 161.187 136.587 160.785 136.59Z" fill="#FAFAFA"/>
    <path d="M143.14 136.59C142.935 136.59 142.732 136.549 142.544 136.468C142.356 136.387 142.187 136.268 142.046 136.119C141.906 135.97 141.797 135.794 141.727 135.602C141.657 135.409 141.628 135.204 141.64 135C141.66 134.599 141.832 134.221 142.121 133.943C142.41 133.664 142.794 133.506 143.195 133.5C143.4 133.5 143.602 133.541 143.791 133.622C143.979 133.703 144.148 133.822 144.289 133.971C144.429 134.12 144.538 134.296 144.608 134.488C144.677 134.681 144.707 134.886 144.695 135.09C144.677 135.492 144.506 135.871 144.216 136.15C143.927 136.429 143.542 136.587 143.14 136.59Z" fill="#FAFAFA"/>
    <path d="M125.5 136.59C125.295 136.59 125.093 136.549 124.904 136.468C124.716 136.387 124.547 136.268 124.406 136.119C124.266 135.97 124.157 135.794 124.087 135.602C124.017 135.409 123.988 135.204 124 135C124.022 134.599 124.195 134.221 124.484 133.942C124.774 133.664 125.158 133.506 125.56 133.5C125.765 133.5 125.968 133.541 126.156 133.622C126.344 133.703 126.513 133.822 126.654 133.971C126.794 134.12 126.903 134.296 126.973 134.488C127.043 134.681 127.072 134.886 127.06 135.09C127.042 135.492 126.87 135.873 126.58 136.152C126.289 136.431 125.903 136.588 125.5 136.59Z" fill="#FAFAFA"/>
    <path d="M107.855 136.59C107.65 136.59 107.448 136.549 107.259 136.468C107.071 136.387 106.902 136.268 106.761 136.119C106.621 135.97 106.512 135.794 106.442 135.602C106.372 135.409 106.343 135.204 106.355 135C106.374 134.599 106.546 134.22 106.835 133.941C107.124 133.663 107.508 133.505 107.91 133.5C108.115 133.5 108.317 133.541 108.506 133.622C108.694 133.703 108.863 133.822 109.004 133.971C109.144 134.12 109.253 134.296 109.323 134.488C109.393 134.681 109.422 134.886 109.41 135.09C109.391 135.491 109.219 135.87 108.93 136.149C108.641 136.427 108.257 136.585 107.855 136.59Z" fill="#FAFAFA"/>
    <path d="M90.21 136.59C90.0052 136.59 89.8025 136.549 89.6144 136.468C89.4263 136.387 89.2567 136.268 89.1162 136.119C88.9757 135.97 88.8671 135.794 88.7973 135.602C88.7274 135.409 88.6977 135.204 88.71 135C88.7291 134.599 88.9007 134.22 89.1897 133.941C89.4788 133.663 89.8634 133.505 90.265 133.5C90.4698 133.5 90.6725 133.541 90.8606 133.622C91.0487 133.703 91.2182 133.822 91.3588 133.971C91.4993 134.12 91.6078 134.296 91.6777 134.488C91.7476 134.681 91.7773 134.886 91.765 135.09C91.7471 135.492 91.5758 135.871 91.2865 136.15C90.9972 136.429 90.6119 136.587 90.21 136.59Z" fill="#FAFAFA"/>
    </g>
    <path d="M94.62 142.18H85.745C85.6163 142.181 85.4889 142.155 85.3706 142.105C85.2524 142.054 85.1459 141.979 85.0581 141.885C84.9702 141.791 84.9028 141.68 84.8601 141.559C84.8174 141.437 84.8003 141.308 84.81 141.18C84.8199 140.918 84.9285 140.669 85.1139 140.484C85.2993 140.299 85.548 140.19 85.81 140.18H94.685C94.8137 140.179 94.9412 140.205 95.0594 140.255C95.1777 140.306 95.2841 140.381 95.372 140.475C95.4599 140.569 95.5273 140.68 95.57 140.801C95.6127 140.923 95.6297 141.052 95.62 141.18C95.6101 141.442 95.5016 141.691 95.3161 141.876C95.1307 142.062 94.8821 142.17 94.62 142.18Z" fill="#38A1FF"/>
    <path d="M112.265 142.18H103.39C103.261 142.181 103.134 142.155 103.016 142.105C102.897 142.054 102.791 141.979 102.703 141.885C102.615 141.791 102.548 141.68 102.505 141.559C102.462 141.437 102.445 141.308 102.455 141.18C102.465 140.914 102.577 140.662 102.768 140.476C102.959 140.29 103.214 140.184 103.48 140.18H112.35C112.479 140.179 112.607 140.205 112.725 140.255C112.844 140.306 112.95 140.381 113.039 140.475C113.127 140.569 113.195 140.68 113.238 140.801C113.281 140.922 113.299 141.052 113.29 141.18C113.28 141.446 113.168 141.699 112.977 141.885C112.786 142.071 112.531 142.176 112.265 142.18Z" fill="#38A1FF"/>
    <path d="M129.91 142.18H121.035C120.906 142.181 120.778 142.155 120.66 142.105C120.541 142.054 120.435 141.979 120.347 141.886C120.258 141.792 120.19 141.68 120.147 141.559C120.104 141.438 120.086 141.309 120.095 141.18C120.105 140.914 120.217 140.662 120.408 140.476C120.599 140.29 120.854 140.184 121.12 140.18H130C130.129 140.179 130.256 140.205 130.374 140.255C130.493 140.306 130.599 140.381 130.687 140.475C130.775 140.569 130.842 140.68 130.885 140.801C130.928 140.923 130.945 141.052 130.935 141.18C130.926 141.447 130.814 141.7 130.623 141.886C130.432 142.072 130.177 142.178 129.91 142.18Z" fill="#38A1FF"/>
    <path d="M147.55 142.18H138.675C138.546 142.181 138.419 142.155 138.301 142.105C138.182 142.054 138.076 141.979 137.988 141.885C137.9 141.791 137.833 141.68 137.79 141.559C137.747 141.437 137.73 141.308 137.74 141.18C137.75 140.918 137.858 140.669 138.044 140.484C138.229 140.299 138.478 140.19 138.74 140.18H147.615C147.744 140.179 147.871 140.205 147.989 140.255C148.108 140.306 148.214 140.381 148.302 140.475C148.39 140.569 148.457 140.68 148.5 140.801C148.543 140.923 148.56 141.052 148.55 141.18C148.54 141.442 148.432 141.691 148.246 141.876C148.061 142.062 147.812 142.17 147.55 142.18Z" fill="#38A1FF"/>
    <path d="M165.195 142.18H156.32C156.191 142.181 156.064 142.155 155.946 142.105C155.827 142.054 155.721 141.979 155.633 141.885C155.545 141.791 155.478 141.68 155.435 141.559C155.392 141.437 155.375 141.308 155.385 141.18C155.395 140.914 155.507 140.662 155.698 140.476C155.889 140.29 156.144 140.184 156.41 140.18H165.285C165.414 140.179 165.541 140.205 165.659 140.255C165.778 140.306 165.884 140.381 165.972 140.475C166.06 140.569 166.127 140.68 166.17 140.801C166.213 140.923 166.23 141.052 166.22 141.18C166.21 141.446 166.098 141.699 165.907 141.885C165.716 142.071 165.461 142.176 165.195 142.18Z" fill="#38A1FF"/>
    <path d="M182.84 142.18H173.965C173.836 142.181 173.709 142.155 173.591 142.105C173.472 142.054 173.366 141.979 173.278 141.885C173.19 141.791 173.123 141.68 173.08 141.559C173.037 141.437 173.02 141.308 173.03 141.18C173.04 140.914 173.152 140.662 173.343 140.476C173.534 140.29 173.789 140.184 174.055 140.18H182.925C183.054 140.179 183.182 140.205 183.3 140.255C183.419 140.306 183.525 140.381 183.614 140.475C183.702 140.569 183.77 140.68 183.813 140.801C183.856 140.922 183.874 141.052 183.865 141.18C183.855 141.446 183.743 141.699 183.552 141.885C183.361 142.071 183.106 142.176 182.84 142.18Z" fill="#38A1FF"/>
    <g opacity="0.3">
    <path d="M94.62 142.18H85.745C85.6163 142.181 85.4889 142.155 85.3706 142.105C85.2524 142.054 85.1459 141.979 85.0581 141.885C84.9702 141.791 84.9028 141.68 84.8601 141.559C84.8174 141.437 84.8003 141.308 84.81 141.18C84.8199 140.918 84.9285 140.669 85.1139 140.484C85.2993 140.299 85.548 140.19 85.81 140.18H94.685C94.8137 140.179 94.9412 140.205 95.0594 140.255C95.1777 140.306 95.2841 140.381 95.372 140.475C95.4599 140.569 95.5273 140.68 95.57 140.801C95.6127 140.923 95.6297 141.052 95.62 141.18C95.6101 141.442 95.5016 141.691 95.3161 141.876C95.1307 142.062 94.8821 142.17 94.62 142.18Z" fill="black"/>
    <path d="M112.265 142.18H103.39C103.261 142.181 103.134 142.155 103.016 142.105C102.897 142.054 102.791 141.979 102.703 141.885C102.615 141.791 102.548 141.68 102.505 141.559C102.462 141.437 102.445 141.308 102.455 141.18C102.465 140.914 102.577 140.662 102.768 140.476C102.959 140.29 103.214 140.184 103.48 140.18H112.35C112.479 140.179 112.607 140.205 112.725 140.255C112.844 140.306 112.95 140.381 113.039 140.475C113.127 140.569 113.195 140.68 113.238 140.801C113.281 140.922 113.299 141.052 113.29 141.18C113.28 141.446 113.168 141.699 112.977 141.885C112.786 142.071 112.531 142.176 112.265 142.18Z" fill="black"/>
    <path d="M129.91 142.18H121.035C120.906 142.181 120.778 142.155 120.66 142.105C120.541 142.054 120.435 141.979 120.347 141.886C120.258 141.792 120.19 141.68 120.147 141.559C120.104 141.438 120.086 141.309 120.095 141.18C120.105 140.914 120.217 140.662 120.408 140.476C120.599 140.29 120.854 140.184 121.12 140.18H130C130.129 140.179 130.256 140.205 130.374 140.255C130.493 140.306 130.599 140.381 130.687 140.475C130.775 140.569 130.842 140.68 130.885 140.801C130.928 140.923 130.945 141.052 130.935 141.18C130.926 141.447 130.814 141.7 130.623 141.886C130.432 142.072 130.177 142.178 129.91 142.18Z" fill="black"/>
    <path d="M147.55 142.18H138.675C138.546 142.181 138.419 142.155 138.301 142.105C138.182 142.054 138.076 141.979 137.988 141.885C137.9 141.791 137.833 141.68 137.79 141.559C137.747 141.437 137.73 141.308 137.74 141.18C137.75 140.918 137.858 140.669 138.044 140.484C138.229 140.299 138.478 140.19 138.74 140.18H147.615C147.744 140.179 147.871 140.205 147.989 140.255C148.108 140.306 148.214 140.381 148.302 140.475C148.39 140.569 148.457 140.68 148.5 140.801C148.543 140.923 148.56 141.052 148.55 141.18C148.54 141.442 148.432 141.691 148.246 141.876C148.061 142.062 147.812 142.17 147.55 142.18Z" fill="black"/>
    <path d="M165.195 142.18H156.32C156.191 142.181 156.064 142.155 155.946 142.105C155.827 142.054 155.721 141.979 155.633 141.885C155.545 141.791 155.478 141.68 155.435 141.559C155.392 141.437 155.375 141.308 155.385 141.18C155.395 140.914 155.507 140.662 155.698 140.476C155.889 140.29 156.144 140.184 156.41 140.18H165.285C165.414 140.179 165.541 140.205 165.659 140.255C165.778 140.306 165.884 140.381 165.972 140.475C166.06 140.569 166.127 140.68 166.17 140.801C166.213 140.923 166.23 141.052 166.22 141.18C166.21 141.446 166.098 141.699 165.907 141.885C165.716 142.071 165.461 142.176 165.195 142.18Z" fill="black"/>
    <path d="M182.84 142.18H173.965C173.836 142.181 173.709 142.155 173.591 142.105C173.472 142.054 173.366 141.979 173.278 141.885C173.19 141.791 173.123 141.68 173.08 141.559C173.037 141.437 173.02 141.308 173.03 141.18C173.04 140.914 173.152 140.662 173.343 140.476C173.534 140.29 173.789 140.184 174.055 140.18H182.925C183.054 140.179 183.182 140.205 183.3 140.255C183.419 140.306 183.525 140.381 183.614 140.475C183.702 140.569 183.77 140.68 183.813 140.801C183.856 140.922 183.874 141.052 183.865 141.18C183.855 141.446 183.743 141.699 183.552 141.885C183.361 142.071 183.106 142.176 182.84 142.18Z" fill="black"/>
    </g>
    <path d="M95.1099 161.065H83.5499C83.2964 161.066 83.0453 161.015 82.812 160.916C82.5787 160.817 82.3681 160.671 82.1931 160.488C82.0181 160.304 81.8823 160.087 81.7941 159.849C81.7058 159.611 81.667 159.358 81.6799 159.105L82.1799 147.545C82.2102 147.02 82.4386 146.525 82.819 146.162C83.1995 145.798 83.7036 145.592 84.2299 145.585H95.7899C96.0435 145.584 96.2945 145.635 96.5278 145.734C96.7611 145.833 96.9717 145.979 97.1467 146.163C97.3217 146.346 97.4575 146.563 97.5457 146.801C97.634 147.039 97.6728 147.292 97.6599 147.545L97.1599 159.105C97.1284 159.63 96.8997 160.124 96.5195 160.487C96.1393 160.851 95.6358 161.057 95.1099 161.065Z" fill="#38A1FF"/>
    <path d="M112.755 161.065H101.195C100.941 161.067 100.69 161.017 100.456 160.918C100.223 160.818 100.012 160.673 99.8365 160.489C99.6614 160.305 99.5256 160.088 99.4376 159.85C99.3497 159.612 99.3113 159.358 99.325 159.105L99.825 147.545C99.8553 147.02 100.084 146.525 100.464 146.162C100.845 145.798 101.349 145.592 101.875 145.585H113.45C113.704 145.584 113.955 145.635 114.189 145.734C114.422 145.833 114.633 145.979 114.808 146.162C114.984 146.346 115.12 146.563 115.209 146.801C115.298 147.038 115.337 147.292 115.325 147.545L114.8 159.105C114.771 159.63 114.544 160.124 114.164 160.488C113.784 160.852 113.281 161.058 112.755 161.065Z" fill="#38A1FF"/>
    <path d="M130.395 161.065H118.84C118.586 161.066 118.335 161.015 118.101 160.916C117.868 160.817 117.657 160.671 117.482 160.488C117.306 160.304 117.17 160.087 117.081 159.849C116.992 159.612 116.953 159.358 116.965 159.105L117.465 147.545C117.495 147.02 117.724 146.525 118.104 146.161C118.485 145.798 118.989 145.592 119.515 145.585H131.07C131.324 145.583 131.575 145.633 131.809 145.733C132.042 145.832 132.253 145.977 132.429 146.161C132.604 146.345 132.739 146.562 132.827 146.8C132.915 147.038 132.954 147.292 132.94 147.545L132.44 159.105C132.41 159.63 132.182 160.123 131.803 160.487C131.423 160.85 130.92 161.057 130.395 161.065Z" fill="#38A1FF"/>
    <path d="M148.04 161.065H136.5C136.246 161.067 135.994 161.017 135.761 160.918C135.527 160.819 135.315 160.673 135.14 160.489C134.964 160.306 134.828 160.088 134.74 159.85C134.651 159.612 134.612 159.359 134.625 159.105L135.125 147.545C135.154 147.02 135.381 146.526 135.761 146.162C136.141 145.798 136.644 145.592 137.17 145.585H148.73C148.984 145.584 149.235 145.635 149.468 145.734C149.701 145.833 149.912 145.979 150.087 146.163C150.262 146.346 150.398 146.563 150.486 146.801C150.574 147.039 150.613 147.292 150.6 147.545L150.1 159.105C150.07 159.632 149.84 160.128 149.457 160.492C149.075 160.856 148.568 161.061 148.04 161.065Z" fill="#38A1FF"/>
    <path d="M165.685 161.065H154.125C153.871 161.066 153.62 161.015 153.387 160.916C153.154 160.817 152.943 160.671 152.768 160.487C152.593 160.304 152.457 160.087 152.369 159.849C152.281 159.611 152.242 159.358 152.255 159.105L152.755 147.545C152.785 147.02 153.014 146.525 153.394 146.161C153.774 145.798 154.279 145.592 154.805 145.585H166.36C166.614 145.583 166.865 145.634 167.099 145.733C167.333 145.832 167.544 145.977 167.72 146.161C167.895 146.344 168.032 146.562 168.12 146.8C168.209 147.038 168.248 147.291 168.235 147.545L167.735 159.105C167.703 159.63 167.475 160.124 167.094 160.487C166.714 160.851 166.211 161.057 165.685 161.065Z" fill="#38A1FF"/>
    <path d="M183.325 161.065H171.77C171.516 161.067 171.265 161.017 171.031 160.918C170.798 160.818 170.587 160.673 170.411 160.489C170.236 160.305 170.101 160.088 170.013 159.85C169.925 159.612 169.886 159.358 169.9 159.105L170.4 147.545C170.43 147.02 170.659 146.525 171.039 146.162C171.419 145.798 171.924 145.592 172.45 145.585H184.005C184.259 145.584 184.51 145.635 184.744 145.734C184.977 145.833 185.188 145.979 185.363 146.162C185.539 146.346 185.675 146.563 185.764 146.801C185.853 147.038 185.892 147.292 185.88 147.545L185.355 159.105C185.326 159.628 185.101 160.12 184.724 160.483C184.348 160.847 183.848 161.055 183.325 161.065Z" fill="#38A1FF"/>
    <g opacity="0.8">
    <path d="M95.1099 161.065H83.5499C83.2964 161.066 83.0453 161.015 82.812 160.916C82.5787 160.817 82.3681 160.671 82.1931 160.487C82.0181 160.304 81.8823 160.087 81.7941 159.849C81.7058 159.611 81.667 159.358 81.6799 159.105L82.1799 147.545C82.2102 147.02 82.4386 146.525 82.819 146.161C83.1995 145.798 83.7036 145.592 84.2299 145.585H95.7899C96.0435 145.584 96.2945 145.635 96.5278 145.734C96.7611 145.833 96.9717 145.979 97.1467 146.163C97.3217 146.346 97.4575 146.563 97.5457 146.801C97.634 147.039 97.6728 147.292 97.6599 147.545L97.1599 159.105C97.1284 159.63 96.8997 160.124 96.5195 160.487C96.1393 160.851 95.6358 161.057 95.1099 161.065Z" fill="#FAFAFA"/>
    <path d="M112.755 161.065H101.195C100.941 161.067 100.69 161.016 100.456 160.917C100.223 160.818 100.012 160.673 99.8365 160.489C99.6614 160.305 99.5256 160.088 99.4376 159.85C99.3497 159.612 99.3113 159.358 99.325 159.105L99.825 147.545C99.8553 147.02 100.084 146.525 100.464 146.161C100.845 145.798 101.349 145.592 101.875 145.585H113.45C113.704 145.584 113.955 145.635 114.189 145.734C114.422 145.833 114.633 145.979 114.808 146.162C114.984 146.346 115.12 146.563 115.209 146.801C115.298 147.038 115.337 147.292 115.325 147.545L114.8 159.105C114.771 159.63 114.544 160.124 114.164 160.488C113.784 160.852 113.281 161.058 112.755 161.065Z" fill="#FAFAFA"/>
    <path d="M130.395 161.065H118.84C118.586 161.066 118.335 161.015 118.101 160.916C117.868 160.817 117.657 160.671 117.481 160.488C117.306 160.304 117.17 160.087 117.081 159.849C116.992 159.612 116.953 159.358 116.965 159.105L117.465 147.545C117.495 147.02 117.724 146.525 118.104 146.161C118.484 145.798 118.989 145.592 119.515 145.585H131.07C131.324 145.583 131.575 145.633 131.809 145.733C132.042 145.832 132.253 145.977 132.428 146.161C132.603 146.345 132.739 146.562 132.827 146.8C132.915 147.038 132.953 147.292 132.94 147.545L132.44 159.105C132.41 159.63 132.182 160.123 131.803 160.487C131.423 160.85 130.92 161.057 130.395 161.065Z" fill="#FAFAFA"/>
    <path d="M148.04 161.065H136.5C136.246 161.067 135.994 161.016 135.761 160.917C135.527 160.818 135.315 160.673 135.14 160.489C134.964 160.306 134.828 160.088 134.74 159.85C134.651 159.612 134.612 159.359 134.625 159.105L135.125 147.545C135.154 147.02 135.381 146.526 135.761 146.162C136.141 145.798 136.644 145.592 137.17 145.585H148.73C148.984 145.584 149.235 145.635 149.468 145.734C149.701 145.833 149.912 145.979 150.087 146.163C150.262 146.346 150.398 146.563 150.486 146.801C150.574 147.039 150.613 147.292 150.6 147.545L150.1 159.105C150.07 159.632 149.84 160.128 149.457 160.492C149.075 160.856 148.568 161.061 148.04 161.065Z" fill="#FAFAFA"/>
    <path d="M165.685 161.065H154.125C153.871 161.066 153.62 161.015 153.387 160.916C153.154 160.817 152.943 160.671 152.768 160.487C152.593 160.304 152.457 160.087 152.369 159.849C152.281 159.611 152.242 159.358 152.255 159.105L152.755 147.545C152.785 147.02 153.014 146.525 153.394 146.161C153.774 145.798 154.279 145.592 154.805 145.585H166.36C166.614 145.583 166.865 145.634 167.099 145.733C167.333 145.832 167.544 145.977 167.72 146.161C167.895 146.344 168.032 146.562 168.12 146.8C168.209 147.038 168.248 147.291 168.235 147.545L167.735 159.105C167.703 159.63 167.475 160.124 167.094 160.487C166.714 160.851 166.211 161.057 165.685 161.065Z" fill="#FAFAFA"/>
    <path d="M183.325 161.065H171.77C171.516 161.067 171.265 161.016 171.031 160.917C170.798 160.818 170.587 160.673 170.411 160.489C170.236 160.305 170.101 160.088 170.013 159.85C169.925 159.612 169.886 159.358 169.9 159.105L170.4 147.545C170.43 147.02 170.659 146.525 171.039 146.161C171.419 145.798 171.924 145.592 172.45 145.585H184.005C184.259 145.584 184.51 145.635 184.744 145.734C184.977 145.833 185.188 145.979 185.363 146.162C185.539 146.346 185.675 146.563 185.764 146.801C185.853 147.038 185.892 147.292 185.88 147.545L185.355 159.105C185.326 159.627 185.101 160.12 184.724 160.483C184.348 160.847 183.848 161.054 183.325 161.065Z" fill="#FAFAFA"/>
    </g>
    <path d="M94.3001 179H82.7401C82.4866 179.001 82.2355 178.95 82.0022 178.851C81.7689 178.752 81.5583 178.606 81.3833 178.422C81.2083 178.239 81.0725 178.022 80.9843 177.784C80.896 177.546 80.8572 177.293 80.8701 177.04L81.3701 165.48C81.4016 164.955 81.6303 164.461 82.0105 164.098C82.3907 163.734 82.8942 163.528 83.4201 163.52H95.0001C95.2536 163.519 95.5047 163.57 95.738 163.669C95.9713 163.768 96.1819 163.914 96.3569 164.098C96.5319 164.281 96.6677 164.498 96.7559 164.736C96.8442 164.974 96.883 165.227 96.8701 165.48L96.3701 177.04C96.3384 177.568 96.1068 178.065 95.7224 178.429C95.338 178.793 94.8295 178.997 94.3001 179Z" fill="#38A1FF"/>
    <path d="M111.945 179H100.385C100.131 179.001 99.8803 178.95 99.647 178.851C99.4137 178.752 99.2031 178.606 99.0281 178.422C98.8531 178.239 98.7173 178.022 98.629 177.784C98.5408 177.546 98.502 177.293 98.5149 177.04L99.0149 165.48C99.0452 164.955 99.2736 164.46 99.654 164.096C100.034 163.733 100.539 163.527 101.065 163.52H112.62C112.876 163.518 113.129 163.569 113.365 163.669C113.6 163.769 113.813 163.917 113.989 164.102C114.165 164.288 114.302 164.508 114.39 164.748C114.477 164.989 114.515 165.245 114.5 165.5L114 177.04C113.971 177.567 113.742 178.063 113.36 178.427C112.978 178.791 112.472 178.996 111.945 179Z" fill="#38A1FF"/>
    <path d="M129.585 179H118.03C117.776 179.002 117.525 178.952 117.291 178.853C117.058 178.753 116.847 178.608 116.671 178.424C116.496 178.24 116.361 178.023 116.273 177.785C116.185 177.547 116.146 177.293 116.16 177.04L116.66 165.48C116.69 164.955 116.919 164.46 117.299 164.096C117.679 163.733 118.184 163.527 118.71 163.52H130.265C130.519 163.518 130.77 163.569 131.004 163.668C131.237 163.767 131.448 163.912 131.623 164.096C131.799 164.28 131.934 164.497 132.022 164.735C132.11 164.973 132.149 165.227 132.135 165.48L131.635 177.04C131.605 177.565 131.376 178.06 130.996 178.424C130.615 178.787 130.111 178.993 129.585 179Z" fill="#38A1FF"/>
    <path d="M147.23 179H135.675C135.421 179.001 135.17 178.95 134.936 178.851C134.703 178.752 134.492 178.606 134.317 178.423C134.141 178.239 134.005 178.022 133.916 177.785C133.827 177.547 133.788 177.294 133.8 177.04L134.3 165.48C134.329 164.955 134.556 164.461 134.936 164.097C135.316 163.733 135.819 163.527 136.345 163.52H147.905C148.162 163.515 148.418 163.564 148.656 163.663C148.893 163.762 149.108 163.909 149.286 164.095C149.464 164.281 149.602 164.502 149.69 164.744C149.778 164.986 149.816 165.243 149.8 165.5L149.3 177.06C149.265 177.585 149.031 178.078 148.647 178.438C148.263 178.798 147.757 178.999 147.23 179Z" fill="#38A1FF"/>
    <path d="M164.875 179H153.315C153.062 179.001 152.81 178.95 152.577 178.851C152.344 178.752 152.133 178.606 151.958 178.422C151.783 178.239 151.647 178.022 151.559 177.784C151.471 177.546 151.432 177.293 151.445 177.04L151.945 165.48C151.972 164.951 152.199 164.451 152.581 164.083C152.962 163.716 153.47 163.507 154 163.5H165.56C165.814 163.499 166.065 163.55 166.298 163.649C166.531 163.748 166.742 163.894 166.917 164.078C167.092 164.261 167.228 164.478 167.316 164.716C167.404 164.954 167.443 165.207 167.43 165.46L166.93 177.02C166.903 177.549 166.676 178.049 166.294 178.417C165.913 178.784 165.405 178.993 164.875 179Z" fill="#38A1FF"/>
    <path d="M182.5 179H170.96C170.706 179.002 170.455 178.952 170.221 178.852C169.988 178.753 169.777 178.608 169.602 178.424C169.426 178.24 169.291 178.023 169.203 177.785C169.115 177.547 169.076 177.293 169.09 177.04L169.59 165.48C169.62 164.955 169.849 164.46 170.229 164.096C170.61 163.733 171.114 163.527 171.64 163.52H183.195C183.449 163.519 183.7 163.57 183.934 163.669C184.167 163.768 184.378 163.914 184.554 164.097C184.729 164.281 184.865 164.498 184.954 164.736C185.043 164.973 185.082 165.227 185.07 165.48L184.545 177.04C184.516 177.565 184.289 178.059 183.909 178.423C183.529 178.787 183.026 178.993 182.5 179Z" fill="#38A1FF"/>
    <g opacity="0.8">
    <path d="M94.3001 179H82.7401C82.4866 179.001 82.2355 178.95 82.0022 178.851C81.7689 178.752 81.5583 178.606 81.3833 178.422C81.2083 178.239 81.0725 178.022 80.9843 177.784C80.896 177.546 80.8572 177.293 80.8701 177.04L81.3701 165.48C81.4016 164.955 81.6303 164.461 82.0105 164.098C82.3907 163.734 82.8942 163.528 83.4201 163.52H95.0001C95.2536 163.519 95.5047 163.57 95.738 163.669C95.9713 163.768 96.1819 163.914 96.3569 164.098C96.5319 164.281 96.6677 164.498 96.7559 164.736C96.8442 164.974 96.883 165.227 96.8701 165.48L96.3701 177.04C96.3384 177.568 96.1068 178.065 95.7224 178.429C95.338 178.793 94.8295 178.997 94.3001 179Z" fill="#FAFAFA"/>
    <path d="M111.945 179H100.385C100.132 179.001 99.8805 178.95 99.6472 178.851C99.4139 178.752 99.2033 178.606 99.0283 178.422C98.8533 178.239 98.7175 178.022 98.6293 177.784C98.5411 177.546 98.5022 177.293 98.5151 177.04L99.0151 165.48C99.0454 164.955 99.2738 164.46 99.6543 164.096C100.035 163.733 100.539 163.527 101.065 163.52H112.62C112.876 163.518 113.13 163.569 113.365 163.669C113.601 163.769 113.813 163.917 113.989 164.102C114.166 164.288 114.302 164.508 114.39 164.748C114.478 164.989 114.515 165.245 114.5 165.5L114 177.04C113.971 177.567 113.742 178.063 113.36 178.427C112.979 178.791 112.473 178.996 111.945 179Z" fill="#FAFAFA"/>
    <path d="M129.585 179H118.03C117.776 179.002 117.525 178.952 117.291 178.853C117.058 178.753 116.847 178.608 116.672 178.424C116.497 178.24 116.361 178.023 116.273 177.785C116.185 177.547 116.147 177.293 116.16 177.04L116.66 165.48C116.69 164.955 116.919 164.46 117.299 164.096C117.68 163.733 118.184 163.527 118.71 163.52H130.265C130.519 163.518 130.77 163.569 131.004 163.668C131.238 163.767 131.448 163.912 131.624 164.096C131.799 164.28 131.935 164.497 132.022 164.735C132.11 164.973 132.149 165.227 132.135 165.48L131.635 177.04C131.605 177.565 131.376 178.06 130.996 178.424C130.616 178.787 130.111 178.993 129.585 179Z" fill="#FAFAFA"/>
    <path d="M147.23 179H135.675C135.421 179.001 135.17 178.95 134.936 178.851C134.703 178.752 134.492 178.606 134.317 178.423C134.141 178.239 134.005 178.022 133.916 177.785C133.827 177.547 133.788 177.294 133.8 177.04L134.3 165.48C134.329 164.955 134.556 164.461 134.936 164.097C135.316 163.733 135.819 163.527 136.345 163.52H147.905C148.162 163.515 148.418 163.564 148.656 163.663C148.893 163.762 149.108 163.909 149.286 164.095C149.464 164.281 149.602 164.502 149.69 164.744C149.778 164.986 149.816 165.243 149.8 165.5L149.3 177.06C149.265 177.585 149.031 178.078 148.647 178.438C148.263 178.798 147.757 178.999 147.23 179Z" fill="#FAFAFA"/>
    <path d="M164.875 179H153.315C153.062 179.001 152.81 178.95 152.577 178.851C152.344 178.752 152.133 178.606 151.958 178.422C151.783 178.239 151.647 178.022 151.559 177.784C151.471 177.546 151.432 177.293 151.445 177.04L151.945 165.48C151.972 164.951 152.199 164.451 152.581 164.083C152.962 163.716 153.47 163.507 154 163.5H165.56C165.814 163.499 166.065 163.55 166.298 163.649C166.531 163.748 166.742 163.894 166.917 164.078C167.092 164.261 167.228 164.478 167.316 164.716C167.404 164.954 167.443 165.207 167.43 165.46L166.93 177.02C166.903 177.549 166.676 178.049 166.294 178.417C165.913 178.784 165.405 178.993 164.875 179Z" fill="#FAFAFA"/>
    <path d="M182.5 179H170.96C170.706 179.002 170.455 178.952 170.221 178.852C169.988 178.753 169.777 178.608 169.602 178.424C169.426 178.24 169.291 178.023 169.203 177.785C169.115 177.547 169.076 177.293 169.09 177.04L169.59 165.48C169.62 164.955 169.849 164.46 170.229 164.096C170.61 163.733 171.114 163.527 171.64 163.52H183.195C183.449 163.519 183.7 163.57 183.934 163.669C184.167 163.768 184.378 163.914 184.554 164.097C184.729 164.281 184.865 164.498 184.954 164.736C185.043 164.973 185.082 165.227 185.07 165.48L184.545 177.04C184.516 177.565 184.289 178.059 183.909 178.423C183.529 178.787 183.026 178.993 182.5 179Z" fill="#FAFAFA"/>
    </g>
    <path d="M93.5001 196.93H81.9301C81.6763 196.932 81.4249 196.882 81.1913 196.782C80.9577 196.683 80.7468 196.538 80.5716 196.354C80.3965 196.17 80.2607 195.953 80.1727 195.715C80.0848 195.477 80.0464 195.223 80.0601 194.97L80.5601 183.415C80.5904 182.89 80.8188 182.395 81.1992 182.031C81.5796 181.668 82.0838 181.462 82.6101 181.455H94.1701C94.4238 181.453 94.6752 181.503 94.9089 181.603C95.1425 181.702 95.3533 181.847 95.5285 182.031C95.7037 182.215 95.8394 182.432 95.9274 182.67C96.0154 182.908 96.0537 183.162 96.0401 183.415L95.5401 194.97C95.511 195.494 95.2844 195.988 94.9059 196.352C94.5273 196.715 94.025 196.922 93.5001 196.93Z" fill="#38A1FF"/>
    <path d="M111.135 196.93H99.5751C99.3213 196.932 99.0699 196.882 98.8363 196.783C98.6027 196.683 98.3918 196.538 98.2166 196.354C98.0415 196.17 97.9057 195.953 97.8177 195.715C97.7298 195.477 97.6914 195.223 97.7051 194.97L98.2051 183.415C98.2342 182.889 98.4623 182.394 98.8429 182.03C99.2236 181.666 99.7284 181.461 100.255 181.455H111.81C112.064 181.453 112.316 181.502 112.55 181.601C112.785 181.7 112.996 181.846 113.172 182.029C113.348 182.213 113.484 182.431 113.572 182.669C113.66 182.907 113.699 183.161 113.685 183.415L113.185 194.97C113.157 195.496 112.929 195.992 112.549 196.356C112.168 196.721 111.662 196.926 111.135 196.93Z" fill="#38A1FF"/>
    <path d="M128.775 196.93H117.22C116.966 196.932 116.715 196.882 116.481 196.782C116.247 196.683 116.037 196.538 115.861 196.354C115.686 196.17 115.551 195.953 115.463 195.715C115.375 195.477 115.336 195.223 115.35 194.97L115.85 183.415C115.879 182.889 116.107 182.394 116.488 182.03C116.868 181.666 117.373 181.461 117.9 181.455H129.5C129.754 181.453 130.005 181.504 130.239 181.603C130.473 181.702 130.684 181.847 130.86 182.031C131.035 182.214 131.172 182.432 131.26 182.67C131.349 182.908 131.388 183.161 131.375 183.415L130.85 194.97C130.82 195.5 130.589 195.999 130.203 196.363C129.817 196.728 129.306 196.931 128.775 196.93Z" fill="#38A1FF"/>
    <path d="M146.42 196.93H134.865C134.611 196.932 134.359 196.882 134.126 196.782C133.892 196.683 133.68 196.538 133.505 196.354C133.329 196.171 133.193 195.953 133.105 195.715C133.016 195.477 132.977 195.224 132.99 194.97L133.49 183.415C133.518 182.89 133.745 182.395 134.125 182.03C134.505 181.666 135.009 181.461 135.535 181.455H147.095C147.349 181.453 147.6 181.503 147.834 181.603C148.067 181.702 148.278 181.847 148.453 182.031C148.629 182.215 148.764 182.432 148.852 182.67C148.94 182.908 148.979 183.162 148.965 183.415L148.465 194.97C148.436 195.495 148.209 195.989 147.829 196.353C147.449 196.717 146.946 196.923 146.42 196.93Z" fill="#38A1FF"/>
    <path d="M164.065 196.93H152.5C152.246 196.932 151.995 196.882 151.761 196.782C151.527 196.683 151.317 196.538 151.141 196.354C150.966 196.17 150.831 195.953 150.743 195.715C150.655 195.477 150.616 195.223 150.63 194.97L151.13 183.415C151.16 182.89 151.389 182.395 151.769 182.031C152.149 181.668 152.654 181.462 153.18 181.455H164.74C164.994 181.453 165.245 181.503 165.479 181.603C165.712 181.702 165.923 181.847 166.098 182.031C166.273 182.215 166.409 182.432 166.497 182.67C166.585 182.908 166.624 183.162 166.61 183.415L166.11 194.97C166.08 195.495 165.852 195.988 165.473 196.352C165.093 196.715 164.59 196.922 164.065 196.93Z" fill="#38A1FF"/>
    <path d="M181.71 196.93H170.15C169.896 196.932 169.645 196.882 169.411 196.782C169.178 196.683 168.967 196.538 168.792 196.354C168.616 196.17 168.481 195.953 168.393 195.715C168.305 195.477 168.266 195.223 168.28 194.97L168.78 183.415C168.809 182.889 169.037 182.394 169.418 182.03C169.799 181.666 170.303 181.461 170.83 181.455H182.385C182.639 181.453 182.891 181.504 183.125 181.603C183.358 181.702 183.57 181.847 183.745 182.031C183.921 182.214 184.057 182.432 184.145 182.67C184.234 182.908 184.273 183.161 184.26 183.415L183.735 194.97C183.707 195.492 183.483 195.984 183.108 196.348C182.732 196.711 182.233 196.919 181.71 196.93Z" fill="#38A1FF"/>
    <g opacity="0.8">
    <path d="M93.5001 196.93H81.9301C81.6763 196.932 81.4249 196.882 81.1913 196.783C80.9577 196.684 80.7468 196.538 80.5716 196.354C80.3965 196.171 80.2607 195.953 80.1727 195.715C80.0848 195.477 80.0464 195.224 80.0601 194.97L80.5601 183.415C80.5904 182.89 80.8188 182.395 81.1992 182.032C81.5796 181.668 82.0838 181.462 82.6101 181.455H94.1701C94.4238 181.453 94.6752 181.504 94.9089 181.603C95.1425 181.702 95.3533 181.848 95.5285 182.031C95.7037 182.215 95.8394 182.432 95.9274 182.67C96.0154 182.908 96.0537 183.162 96.0401 183.415L95.5401 194.97C95.511 195.494 95.2844 195.988 94.9059 196.352C94.5273 196.715 94.025 196.922 93.5001 196.93Z" fill="#FAFAFA"/>
    <path d="M111.135 196.93H99.5751C99.3213 196.932 99.0699 196.882 98.8363 196.783C98.6027 196.683 98.3918 196.538 98.2166 196.354C98.0415 196.17 97.9057 195.953 97.8177 195.715C97.7298 195.477 97.6914 195.223 97.7051 194.97L98.2051 183.415C98.2342 182.889 98.4623 182.394 98.8429 182.03C99.2236 181.666 99.7284 181.461 100.255 181.455H111.81C112.064 181.453 112.316 181.502 112.55 181.601C112.785 181.7 112.996 181.846 113.172 182.029C113.348 182.213 113.484 182.431 113.572 182.669C113.66 182.907 113.699 183.161 113.685 183.415L113.185 194.97C113.157 195.496 112.929 195.992 112.549 196.356C112.168 196.721 111.662 196.926 111.135 196.93Z" fill="#FAFAFA"/>
    <path d="M128.775 196.93H117.22C116.966 196.932 116.715 196.882 116.481 196.783C116.248 196.684 116.037 196.538 115.862 196.354C115.686 196.171 115.551 195.953 115.463 195.715C115.375 195.477 115.336 195.224 115.35 194.97L115.85 183.415C115.879 182.889 116.107 182.394 116.488 182.03C116.869 181.666 117.373 181.461 117.9 181.455H129.5C129.754 181.453 130.006 181.504 130.24 181.603C130.473 181.702 130.685 181.847 130.86 182.031C131.036 182.214 131.172 182.432 131.261 182.67C131.349 182.908 131.388 183.161 131.375 183.415L130.85 194.97C130.821 195.5 130.589 195.999 130.203 196.364C129.817 196.728 129.306 196.931 128.775 196.93Z" fill="#FAFAFA"/>
    <path d="M146.42 196.93H134.865C134.611 196.932 134.359 196.882 134.126 196.783C133.892 196.684 133.68 196.538 133.505 196.354C133.329 196.171 133.193 195.953 133.105 195.715C133.016 195.477 132.977 195.224 132.99 194.97L133.49 183.415C133.518 182.89 133.745 182.395 134.125 182.031C134.505 181.666 135.009 181.461 135.535 181.455H147.095C147.349 181.453 147.6 181.504 147.834 181.603C148.067 181.702 148.278 181.848 148.453 182.031C148.629 182.215 148.764 182.432 148.852 182.67C148.94 182.908 148.979 183.162 148.965 183.415L148.465 194.97C148.436 195.495 148.209 195.99 147.829 196.353C147.449 196.717 146.946 196.923 146.42 196.93Z" fill="#FAFAFA"/>
    <path d="M164.065 196.93H152.5C152.246 196.932 151.995 196.882 151.761 196.783C151.528 196.684 151.317 196.538 151.142 196.354C150.967 196.171 150.831 195.953 150.743 195.715C150.655 195.477 150.616 195.224 150.63 194.97L151.13 183.415C151.16 182.89 151.389 182.395 151.769 182.032C152.15 181.668 152.654 181.462 153.18 181.455H164.74C164.994 181.453 165.245 181.504 165.479 181.603C165.713 181.702 165.923 181.848 166.099 182.031C166.274 182.215 166.409 182.432 166.497 182.67C166.585 182.908 166.624 183.162 166.61 183.415L166.11 194.97C166.08 195.495 165.852 195.988 165.473 196.352C165.093 196.716 164.591 196.922 164.065 196.93Z" fill="#FAFAFA"/>
    <path d="M181.71 196.93H170.15C169.896 196.932 169.645 196.882 169.411 196.783C169.178 196.684 168.967 196.538 168.792 196.354C168.616 196.171 168.481 195.953 168.393 195.715C168.305 195.477 168.266 195.224 168.28 194.97L168.78 183.415C168.809 182.889 169.037 182.394 169.418 182.03C169.799 181.666 170.303 181.461 170.83 181.455H182.385C182.639 181.453 182.891 181.504 183.125 181.603C183.358 181.702 183.57 181.847 183.745 182.031C183.921 182.214 184.057 182.432 184.145 182.67C184.234 182.908 184.273 183.161 184.26 183.415L183.735 194.97C183.707 195.492 183.483 195.984 183.108 196.348C182.732 196.711 182.233 196.919 181.71 196.93Z" fill="#FAFAFA"/>
    </g>
    <path d="M90.225 136.22C85.965 136.22 82.625 131.265 82.625 124.94C82.625 118.615 85.965 113.665 90.225 113.665C94.485 113.665 97.83 118.62 97.83 124.94C97.8106 125.236 97.6791 125.514 97.4623 125.718C97.2455 125.921 96.9596 126.034 96.6625 126.034C96.3654 126.034 96.0795 125.921 95.8627 125.718C95.6459 125.514 95.5144 125.236 95.495 124.94C95.495 120.095 93.085 115.995 90.225 115.995C87.365 115.995 84.955 120.095 84.955 124.94C84.955 129.785 87.37 133.885 90.225 133.885C90.3847 133.875 90.5449 133.897 90.6957 133.951C90.8464 134.005 90.9844 134.089 91.1013 134.199C91.2181 134.308 91.3113 134.44 91.3749 134.587C91.4386 134.734 91.4714 134.892 91.4714 135.053C91.4714 135.213 91.4386 135.371 91.3749 135.518C91.3113 135.665 91.2181 135.797 91.1013 135.906C90.9844 136.016 90.8464 136.1 90.6957 136.154C90.5449 136.208 90.3847 136.23 90.225 136.22Z" fill="#38A1FF"/>
    <path d="M107.87 136.22C103.61 136.22 100.27 131.265 100.27 124.94C100.27 118.615 103.61 113.665 107.87 113.665C112.13 113.665 115.5 118.62 115.5 124.94C115.481 125.236 115.349 125.514 115.132 125.718C114.916 125.921 114.63 126.034 114.333 126.034C114.035 126.034 113.75 125.921 113.533 125.718C113.316 125.514 113.184 125.236 113.165 124.94C113.165 120.095 110.755 115.995 107.895 115.995C105.035 115.995 102.625 120.095 102.625 124.94C102.625 129.785 105.04 133.885 107.895 133.885C108.191 133.904 108.469 134.036 108.672 134.253C108.876 134.47 108.989 134.755 108.989 135.053C108.989 135.35 108.876 135.636 108.672 135.852C108.469 136.069 108.191 136.201 107.895 136.22H107.87Z" fill="#38A1FF"/>
    <path d="M125.5 136.22C121.235 136.22 117.895 131.265 117.895 124.94C117.895 118.615 121.235 113.665 125.5 113.665C129.765 113.665 133.1 118.62 133.1 124.94C133.1 125.249 132.977 125.545 132.759 125.764C132.54 125.982 132.244 126.105 131.935 126.105C131.626 126.105 131.33 125.982 131.111 125.764C130.893 125.545 130.77 125.249 130.77 124.94C130.77 120.095 128.355 115.995 125.5 115.995C122.645 115.995 120.23 120.095 120.23 124.94C120.23 129.785 122.645 133.885 125.5 133.885C125.796 133.904 126.074 134.036 126.277 134.253C126.481 134.47 126.594 134.755 126.594 135.053C126.594 135.35 126.481 135.636 126.277 135.852C126.074 136.069 125.796 136.201 125.5 136.22Z" fill="#38A1FF"/>
    <path d="M143.16 136.22C138.895 136.22 135.555 131.265 135.555 124.94C135.555 118.615 138.895 113.665 143.16 113.665C147.425 113.665 150.76 118.62 150.76 124.94C150.76 125.249 150.637 125.545 150.419 125.764C150.2 125.982 149.904 126.105 149.595 126.105C149.286 126.105 148.99 125.982 148.771 125.764C148.553 125.545 148.43 125.249 148.43 124.94C148.43 120.095 146.015 115.995 143.16 115.995C140.305 115.995 137.89 120.095 137.89 124.94C137.89 129.785 140.3 133.885 143.16 133.885C143.456 133.904 143.734 134.036 143.937 134.253C144.14 134.47 144.253 134.755 144.253 135.053C144.253 135.35 144.14 135.636 143.937 135.852C143.734 136.069 143.456 136.201 143.16 136.22Z" fill="#38A1FF"/>
    <path d="M160.8 136.22C156.54 136.22 153.2 131.265 153.2 124.94C153.2 118.615 156.54 113.665 160.8 113.665C165.06 113.665 168.405 118.62 168.405 124.94C168.386 125.236 168.254 125.514 168.037 125.718C167.82 125.921 167.535 126.034 167.237 126.034C166.94 126.034 166.654 125.921 166.438 125.718C166.221 125.514 166.089 125.236 166.07 124.94C166.07 120.095 163.66 115.995 160.8 115.995C157.94 115.995 155.53 120.095 155.53 124.94C155.53 129.785 157.945 133.885 160.8 133.885C160.96 133.875 161.12 133.897 161.271 133.951C161.421 134.005 161.559 134.089 161.676 134.199C161.793 134.308 161.886 134.44 161.95 134.587C162.014 134.734 162.046 134.892 162.046 135.053C162.046 135.213 162.014 135.371 161.95 135.518C161.886 135.665 161.793 135.797 161.676 135.906C161.559 136.016 161.421 136.1 161.271 136.154C161.12 136.208 160.96 136.23 160.8 136.22Z" fill="#38A1FF"/>
    <path d="M178.445 136.22C174.185 136.22 170.845 131.265 170.845 124.94C170.845 118.615 174.185 113.665 178.445 113.665C182.705 113.665 186.05 118.62 186.05 124.94C186.031 125.236 185.899 125.514 185.682 125.718C185.465 125.921 185.18 126.034 184.882 126.034C184.585 126.034 184.299 125.921 184.083 125.718C183.866 125.514 183.734 125.236 183.715 124.94C183.715 120.095 181.3 115.995 178.445 115.995C175.59 115.995 173.175 120.095 173.175 124.94C173.175 129.785 175.59 133.885 178.445 133.885C178.741 133.904 179.019 134.036 179.222 134.253C179.426 134.47 179.539 134.755 179.539 135.053C179.539 135.35 179.426 135.636 179.222 135.852C179.019 136.069 178.741 136.201 178.445 136.22Z" fill="#38A1FF"/>
    <g opacity="0.3">
    <path d="M90.225 136.22C85.965 136.22 82.625 131.265 82.625 124.94C82.625 118.615 85.965 113.665 90.225 113.665C94.485 113.665 97.83 118.62 97.83 124.94C97.8106 125.236 97.6791 125.514 97.4623 125.718C97.2455 125.921 96.9596 126.034 96.6625 126.034C96.3654 126.034 96.0795 125.921 95.8627 125.718C95.6459 125.514 95.5144 125.236 95.495 124.94C95.495 120.095 93.085 115.995 90.225 115.995C87.365 115.995 84.955 120.095 84.955 124.94C84.955 129.785 87.37 133.885 90.225 133.885C90.3847 133.875 90.5449 133.897 90.6957 133.951C90.8464 134.005 90.9844 134.089 91.1013 134.199C91.2181 134.308 91.3113 134.44 91.3749 134.587C91.4386 134.734 91.4714 134.892 91.4714 135.053C91.4714 135.213 91.4386 135.371 91.3749 135.518C91.3113 135.665 91.2181 135.797 91.1013 135.906C90.9844 136.016 90.8464 136.1 90.6957 136.154C90.5449 136.208 90.3847 136.23 90.225 136.22Z" fill="black"/>
    <path d="M107.87 136.22C103.61 136.22 100.27 131.265 100.27 124.94C100.27 118.615 103.61 113.665 107.87 113.665C112.13 113.665 115.5 118.62 115.5 124.94C115.481 125.236 115.349 125.514 115.132 125.718C114.916 125.921 114.63 126.034 114.333 126.034C114.035 126.034 113.75 125.921 113.533 125.718C113.316 125.514 113.184 125.236 113.165 124.94C113.165 120.095 110.755 115.995 107.895 115.995C105.035 115.995 102.625 120.095 102.625 124.94C102.625 129.785 105.04 133.885 107.895 133.885C108.191 133.904 108.469 134.036 108.672 134.253C108.876 134.47 108.989 134.755 108.989 135.053C108.989 135.35 108.876 135.636 108.672 135.852C108.469 136.069 108.191 136.201 107.895 136.22H107.87Z" fill="black"/>
    <path d="M125.5 136.22C121.235 136.22 117.895 131.265 117.895 124.94C117.895 118.615 121.235 113.665 125.5 113.665C129.765 113.665 133.1 118.62 133.1 124.94C133.1 125.249 132.977 125.545 132.759 125.764C132.54 125.982 132.244 126.105 131.935 126.105C131.626 126.105 131.33 125.982 131.111 125.764C130.893 125.545 130.77 125.249 130.77 124.94C130.77 120.095 128.355 115.995 125.5 115.995C122.645 115.995 120.23 120.095 120.23 124.94C120.23 129.785 122.645 133.885 125.5 133.885C125.796 133.904 126.074 134.036 126.277 134.253C126.481 134.47 126.594 134.755 126.594 135.053C126.594 135.35 126.481 135.636 126.277 135.852C126.074 136.069 125.796 136.201 125.5 136.22Z" fill="black"/>
    <path d="M143.16 136.22C138.895 136.22 135.555 131.265 135.555 124.94C135.555 118.615 138.895 113.665 143.16 113.665C147.425 113.665 150.76 118.62 150.76 124.94C150.76 125.249 150.637 125.545 150.419 125.764C150.2 125.982 149.904 126.105 149.595 126.105C149.286 126.105 148.99 125.982 148.771 125.764C148.553 125.545 148.43 125.249 148.43 124.94C148.43 120.095 146.015 115.995 143.16 115.995C140.305 115.995 137.89 120.095 137.89 124.94C137.89 129.785 140.3 133.885 143.16 133.885C143.456 133.904 143.734 134.036 143.937 134.253C144.14 134.47 144.253 134.755 144.253 135.053C144.253 135.35 144.14 135.636 143.937 135.852C143.734 136.069 143.456 136.201 143.16 136.22Z" fill="black"/>
    <path d="M160.8 136.22C156.54 136.22 153.2 131.265 153.2 124.94C153.2 118.615 156.54 113.665 160.8 113.665C165.06 113.665 168.405 118.62 168.405 124.94C168.386 125.236 168.254 125.514 168.037 125.718C167.82 125.921 167.535 126.034 167.237 126.034C166.94 126.034 166.654 125.921 166.438 125.718C166.221 125.514 166.089 125.236 166.07 124.94C166.07 120.095 163.66 115.995 160.8 115.995C157.94 115.995 155.53 120.095 155.53 124.94C155.53 129.785 157.945 133.885 160.8 133.885C160.96 133.875 161.12 133.897 161.271 133.951C161.421 134.005 161.559 134.089 161.676 134.199C161.793 134.308 161.886 134.44 161.95 134.587C162.014 134.734 162.046 134.892 162.046 135.053C162.046 135.213 162.014 135.371 161.95 135.518C161.886 135.665 161.793 135.797 161.676 135.906C161.559 136.016 161.421 136.1 161.271 136.154C161.12 136.208 160.96 136.23 160.8 136.22Z" fill="black"/>
    <path d="M178.445 136.22C174.185 136.22 170.845 131.265 170.845 124.94C170.845 118.615 174.185 113.665 178.445 113.665C182.705 113.665 186.05 118.62 186.05 124.94C186.031 125.236 185.899 125.514 185.682 125.718C185.465 125.921 185.18 126.034 184.882 126.034C184.585 126.034 184.299 125.921 184.083 125.718C183.866 125.514 183.734 125.236 183.715 124.94C183.715 120.095 181.3 115.995 178.445 115.995C175.59 115.995 173.175 120.095 173.175 124.94C173.175 129.785 175.59 133.885 178.445 133.885C178.741 133.904 179.019 134.036 179.222 134.253C179.426 134.47 179.539 134.755 179.539 135.053C179.539 135.35 179.426 135.636 179.222 135.852C179.019 136.069 178.741 136.201 178.445 136.22Z" fill="black"/>
    </g>
    <path d="M144.34 161.71C140.26 160.9 135.68 161.845 134.045 166.145C132.73 169.605 134.415 173.355 138.045 174.27C141.245 175.075 146.765 174.09 147.905 170.4C149.21 166.18 143.905 164.81 140.93 164.56C140.035 164.485 140.04 165.885 140.93 165.96C142.285 166.075 143.835 166.15 145.035 166.895C147.535 168.46 146.505 170.97 144.375 172.17C142.245 173.37 138.98 173.67 136.875 172.34C134.575 170.875 134.5 167.655 135.875 165.555C137.68 162.78 140.975 162.47 143.945 163.055C144.825 163.23 145.2 161.88 144.315 161.705L144.34 161.71Z" fill="#38A1FF"/>
    <path opacity="0.1" d="M144.34 161.71C140.26 160.9 135.68 161.845 134.045 166.145C132.73 169.605 134.415 173.355 138.045 174.27C141.245 175.075 146.765 174.09 147.905 170.4C149.21 166.18 143.905 164.81 140.93 164.56C140.035 164.485 140.04 165.885 140.93 165.96C142.285 166.075 143.835 166.15 145.035 166.895C147.535 168.46 146.505 170.97 144.375 172.17C142.245 173.37 138.98 173.67 136.875 172.34C134.575 170.875 134.5 167.655 135.875 165.555C137.68 162.78 140.975 162.47 143.945 163.055C144.825 163.23 145.2 161.88 144.315 161.705L144.34 161.71Z" fill="#FAFAFA"/>
    <path d="M99.325 145.605C103.227 150.778 107.577 155.596 112.325 160.005C112.985 160.62 113.98 159.63 113.325 159.005C108.658 154.683 104.38 149.96 100.54 144.89C100.005 144.18 98.79 144.89 99.335 145.595L99.325 145.605Z" fill="#38A1FF"/>
    <path d="M100.77 159.42C103.72 154.175 108.885 149.7 113.77 146.275C114.5 145.775 113.805 144.545 113.065 145.065C107.985 148.635 102.645 153.245 99.5651 158.71C99.4806 158.869 99.4608 159.055 99.5097 159.228C99.5587 159.402 99.6727 159.55 99.828 159.641C99.9834 159.733 100.168 159.761 100.343 159.72C100.519 159.678 100.672 159.571 100.77 159.42Z" fill="#38A1FF"/>
    <g opacity="0.2">
    <path d="M99.325 145.605C103.227 150.778 107.577 155.596 112.325 160.005C112.985 160.62 113.98 159.63 113.325 159.005C108.658 154.683 104.38 149.96 100.54 144.89C100.005 144.18 98.79 144.89 99.335 145.595L99.325 145.605Z" fill="black"/>
    <path d="M100.77 159.42C103.72 154.175 108.885 149.7 113.77 146.275C114.5 145.775 113.805 144.545 113.065 145.065C107.985 148.635 102.645 153.245 99.5651 158.71C99.4806 158.869 99.4608 159.055 99.5097 159.228C99.5587 159.402 99.6727 159.55 99.828 159.641C99.9834 159.733 100.168 159.761 100.343 159.72C100.519 159.678 100.672 159.571 100.77 159.42Z" fill="black"/>
    </g>
    <path d="M154.935 150.08H164.06C164.235 150.065 164.398 149.985 164.516 149.856C164.635 149.727 164.701 149.558 164.701 149.383C164.701 149.207 164.635 149.038 164.516 148.909C164.398 148.78 164.235 148.7 164.06 148.685H154.935C154.76 148.7 154.597 148.78 154.479 148.909C154.36 149.038 154.294 149.207 154.294 149.383C154.294 149.558 154.36 149.727 154.479 149.856C154.597 149.985 154.76 150.065 154.935 150.08Z" fill="#38A1FF"/>
    <path d="M154.83 152.675H160.12C160.306 152.675 160.484 152.601 160.615 152.47C160.746 152.339 160.82 152.161 160.82 151.975C160.82 151.789 160.746 151.611 160.615 151.48C160.484 151.349 160.306 151.275 160.12 151.275H154.83C154.644 151.275 154.466 151.349 154.335 151.48C154.204 151.611 154.13 151.789 154.13 151.975C154.13 152.161 154.204 152.339 154.335 152.47C154.466 152.601 154.644 152.675 154.83 152.675Z" fill="#38A1FF"/>
    <g opacity="0.1">
    <path d="M154.935 150.08H164.06C164.235 150.065 164.397 149.985 164.516 149.856C164.635 149.727 164.701 149.558 164.701 149.383C164.701 149.207 164.635 149.038 164.516 148.909C164.397 148.78 164.235 148.7 164.06 148.685H154.935C154.76 148.7 154.597 148.78 154.478 148.909C154.36 149.038 154.294 149.207 154.294 149.383C154.294 149.558 154.36 149.727 154.478 149.856C154.597 149.985 154.76 150.065 154.935 150.08Z" fill="#FAFAFA"/>
    <path d="M154.83 152.675H160.12C160.306 152.675 160.484 152.601 160.615 152.47C160.746 152.339 160.82 152.161 160.82 151.975C160.82 151.789 160.746 151.611 160.615 151.48C160.484 151.349 160.306 151.275 160.12 151.275H154.83C154.644 151.275 154.466 151.349 154.335 151.48C154.204 151.611 154.13 151.789 154.13 151.975C154.13 152.161 154.204 152.339 154.335 152.47C154.466 152.601 154.644 152.675 154.83 152.675Z" fill="#FAFAFA"/>
    </g>
    <path d="M100.28 185.9H108.105C108.291 185.9 108.469 185.826 108.6 185.695C108.731 185.564 108.805 185.386 108.805 185.2C108.805 185.014 108.731 184.836 108.6 184.705C108.469 184.574 108.291 184.5 108.105 184.5H100.28C100.094 184.5 99.9164 184.574 99.7851 184.705C99.6538 184.836 99.5801 185.014 99.5801 185.2C99.5801 185.386 99.6538 185.564 99.7851 185.695C99.9164 185.826 100.094 185.9 100.28 185.9Z" fill="#38A1FF"/>
    <path d="M100 188.905H110.15C110.336 188.905 110.514 188.831 110.645 188.7C110.776 188.569 110.85 188.391 110.85 188.205C110.85 188.019 110.776 187.841 110.645 187.71C110.514 187.579 110.336 187.505 110.15 187.505H100C99.8144 187.505 99.6363 187.579 99.5051 187.71C99.3738 187.841 99.3 188.019 99.3 188.205C99.3 188.391 99.3738 188.569 99.5051 188.7C99.6363 188.831 99.8144 188.905 100 188.905Z" fill="#38A1FF"/>
    <path d="M100 192H105.075C105.261 192 105.439 191.926 105.57 191.795C105.701 191.664 105.775 191.486 105.775 191.3C105.775 191.114 105.701 190.936 105.57 190.805C105.439 190.674 105.261 190.6 105.075 190.6H100C99.8144 190.6 99.6363 190.674 99.5051 190.805C99.3738 190.936 99.3 191.114 99.3 191.3C99.3 191.486 99.3738 191.664 99.5051 191.795C99.6363 191.926 99.8144 192 100 192Z" fill="#38A1FF"/>
    <g opacity="0.1">
    <path d="M100.28 185.9H108.105C108.291 185.9 108.469 185.826 108.6 185.695C108.731 185.564 108.805 185.386 108.805 185.2C108.805 185.014 108.731 184.836 108.6 184.705C108.469 184.574 108.291 184.5 108.105 184.5H100.28C100.094 184.5 99.9164 184.574 99.7851 184.705C99.6538 184.836 99.5801 185.014 99.5801 185.2C99.5801 185.386 99.6538 185.564 99.7851 185.695C99.9164 185.826 100.094 185.9 100.28 185.9Z" fill="#FAFAFA"/>
    <path d="M100 188.905H110.15C110.336 188.905 110.514 188.831 110.645 188.7C110.776 188.569 110.85 188.391 110.85 188.205C110.85 188.019 110.776 187.841 110.645 187.71C110.514 187.579 110.336 187.505 110.15 187.505H100C99.8144 187.505 99.6363 187.579 99.5051 187.71C99.3738 187.841 99.3 188.019 99.3 188.205C99.3 188.391 99.3738 188.569 99.5051 188.7C99.6363 188.831 99.8144 188.905 100 188.905Z" fill="#FAFAFA"/>
    <path d="M100 192H105.075C105.261 192 105.439 191.926 105.57 191.795C105.701 191.664 105.775 191.486 105.775 191.3C105.775 191.114 105.701 190.936 105.57 190.805C105.439 190.674 105.261 190.6 105.075 190.6H100C99.8144 190.6 99.6363 190.674 99.5051 190.805C99.3738 190.936 99.3 191.114 99.3 191.3C99.3 191.486 99.3738 191.664 99.5051 191.795C99.6363 191.926 99.8144 192 100 192Z" fill="#FAFAFA"/>
    </g>
    <path d="M45.0949 107.395L47.4599 107.29L46.3899 111.79C45.5459 111.212 44.7767 110.532 44.0999 109.765C43.9047 109.535 43.8079 109.238 43.8303 108.938C43.8528 108.637 43.9928 108.358 44.2199 108.16L45.0949 107.395Z" fill="#E4897B"/>
    <path d="M50.2049 109.715L49.1449 113.375L46.3899 111.78L47.4599 107.29L50.2049 109.715Z" fill="#E4897B"/>
    <path d="M49.7385 87.9869L44.8992 88.4349L55.9983 208.307L60.8376 207.859L49.7385 87.9869Z" fill="#38A1FF"/>
    <path opacity="0.3" d="M49.7385 87.9869L44.8992 88.4349L55.9983 208.307L60.8376 207.859L49.7385 87.9869Z" fill="black"/>
    <path d="M59.4194 87.0882L54.5801 87.5363L65.6792 207.409L70.5185 206.96L59.4194 87.0882Z" fill="#38A1FF"/>
    <path opacity="0.3" d="M59.4194 87.0882L54.5801 87.5363L65.6792 207.409L70.5185 206.96L59.4194 87.0882Z" fill="black"/>
    <path d="M54.5815 87.5375L49.7422 87.9856L60.8413 207.858L65.6806 207.41L54.5815 87.5375Z" fill="#38A1FF"/>
    <path opacity="0.1" d="M54.5815 87.5375L49.7422 87.9856L60.8413 207.858L65.6806 207.41L54.5815 87.5375Z" fill="black"/>
    <path d="M53.5599 79.1549L49.2049 79.5599L44.8999 88.4349L59.4199 87.0899L53.5599 79.1549Z" fill="#38A1FF"/>
    <g opacity="0.8">
    <path d="M53.5599 79.1549L49.2049 79.5599L44.8999 88.4349L59.4199 87.0899L53.5599 79.1549Z" fill="#FAFAFA"/>
    </g>
    <path d="M51.0498 75.755L49.2048 79.56L53.5598 79.155L51.0498 75.755Z" fill="#263238"/>
    <path d="M87.6399 82.5299C88.1399 83.0299 88.5549 83.5049 88.9849 84.0299C89.4149 84.5549 89.8249 85.0299 90.2349 85.5299C91.0599 86.5299 91.8299 87.5849 92.5799 88.6599C94.126 90.8456 95.4303 93.1927 96.4699 95.6599C96.5949 95.9799 96.7099 96.3149 96.8299 96.6599L97.0099 97.1599C97.109 97.4592 97.1793 97.7673 97.2199 98.0799C97.3284 99.075 97.1964 100.082 96.8349 101.015C96.2952 102.393 95.539 103.676 94.5949 104.815C92.9255 106.858 91.0034 108.681 88.8749 110.24L86.9899 108.24C88.4734 106.385 89.8298 104.433 91.0499 102.395C91.5843 101.524 91.9949 100.584 92.2699 99.5999C92.3459 99.3585 92.3545 99.1009 92.2949 98.8549L92.1249 98.4849C92.0099 98.2399 91.9099 97.9849 91.7849 97.7449C90.7265 95.6912 89.4883 93.7352 88.0849 91.8999C87.3849 90.9449 86.6449 90.0149 85.8949 89.0849C85.5199 88.6249 85.1399 88.1649 84.7499 87.7149L83.6099 86.3999L87.6399 82.5299Z" fill="#E4897B"/>
    <path d="M83.9648 109.765L86.0948 113.98L88.1798 112.185L86.4698 109.19L83.9648 109.765Z" fill="#E4897B"/>
    <path d="M67.9199 85C66.6233 87.47 65.2766 89.9116 63.8799 92.325C63.1949 93.54 62.4749 94.735 61.7749 95.94L60.6999 97.74L60.4299 98.19C60.2949 98.405 60.1449 98.66 60.0099 98.83C59.8749 99 59.7399 99.205 59.6099 99.36C59.4799 99.515 59.3399 99.69 59.2099 99.835C58.1999 100.935 57.1246 101.974 55.9899 102.945C54.8949 103.88 53.7999 104.79 52.6699 105.655C50.4349 107.4 48.1399 109.025 45.7599 110.575L44.0449 108.415L49.9699 102.58C50.9399 101.58 51.9199 100.64 52.8449 99.65C53.7538 98.7183 54.6101 97.7368 55.4099 96.71C55.5066 96.59 55.5916 96.475 55.6649 96.365C55.7499 96.245 55.8099 96.145 55.8699 96.045C55.9216 95.9645 55.9684 95.8811 56.0099 95.795L56.2399 95.33L57.1649 93.445C57.7999 92.2 58.4199 90.945 59.0649 89.71C60.3416 87.22 61.6749 84.7583 63.0649 82.325L67.9199 85Z" fill="#E4897B"/>
    <path d="M81.9549 68.11C81.8899 68.4 81.9949 68.675 82.1799 68.725C82.3649 68.775 82.5699 68.575 82.6349 68.285C82.6999 67.995 82.5899 67.72 82.4049 67.67C82.2199 67.62 81.9999 67.82 81.9549 68.11Z" fill="#263238"/>
    <path d="M81.965 68.6699C82.1216 69.6452 82.4075 70.5952 82.815 71.4949C82.5849 71.586 82.3376 71.6256 82.0906 71.6109C81.8435 71.5962 81.6027 71.5276 81.385 71.4099L81.965 68.6699Z" fill="#DE5753"/>
    <path d="M82.72 66.3499C82.6844 66.35 82.6496 66.3396 82.62 66.3199C82.4353 66.2071 82.2259 66.1408 82.0098 66.1269C81.7938 66.1129 81.5777 66.1517 81.38 66.2399C81.3368 66.2568 81.2888 66.2563 81.2459 66.2386C81.2031 66.2209 81.1687 66.1873 81.15 66.1449C81.1331 66.1017 81.1336 66.0537 81.1513 66.0109C81.169 65.968 81.2026 65.9337 81.245 65.9149C81.4977 65.8064 81.773 65.7606 82.0472 65.7815C82.3215 65.8024 82.5866 65.8894 82.82 66.0349C82.839 66.0475 82.8553 66.0637 82.8678 66.0827C82.8804 66.1017 82.8891 66.123 82.8933 66.1454C82.8975 66.1678 82.8972 66.1908 82.8923 66.213C82.8874 66.2353 82.8781 66.2563 82.865 66.2749C82.8487 66.2983 82.827 66.3173 82.8018 66.3304C82.7765 66.3434 82.7484 66.3502 82.72 66.3499Z" fill="#263238"/>
    <path d="M71.84 69.215C72.47 71.905 73.185 76.825 71.375 78.62C71.375 78.62 72.215 81.345 77.21 81.345C82.71 81.345 79.71 78.62 79.71 78.62C76.685 77.905 76.675 75.68 77.115 73.595L71.84 69.215Z" fill="#E4897B"/>
    <path d="M70.6949 79.555C70.2649 78.695 69.7949 77.705 70.6949 77.395C71.6649 77.055 77.0499 76.71 78.9349 77.345C79.4371 77.4793 79.8673 77.804 80.1342 78.2502C80.4012 78.6963 80.4839 79.2289 80.3649 79.735L70.6949 79.555Z" fill="#38A1FF"/>
    <path opacity="0.6" d="M70.6949 79.555C70.2649 78.695 69.7949 77.705 70.6949 77.395C71.6649 77.055 77.0499 76.71 78.9349 77.345C79.4371 77.4793 79.8673 77.804 80.1342 78.2502C80.4012 78.6963 80.4839 79.2289 80.3649 79.735L70.6949 79.555Z" fill="#FAFAFA"/>
    <path d="M63.4999 205C63.1771 204.998 62.8554 204.963 62.5399 204.895C62.5237 204.892 62.5087 204.884 62.4971 204.873C62.4855 204.861 62.4777 204.846 62.4749 204.83C62.4715 204.813 62.4731 204.796 62.4793 204.78C62.4855 204.764 62.4961 204.75 62.5099 204.74C62.5499 204.71 63.5099 204.02 64.0699 204.14C64.1304 204.151 64.1877 204.174 64.2379 204.21C64.288 204.245 64.3297 204.291 64.3599 204.345C64.4049 204.405 64.4292 204.478 64.4292 204.552C64.4292 204.627 64.4049 204.7 64.3599 204.76C64.2399 204.955 63.8749 205 63.4999 205ZM62.7849 204.77C63.3349 204.86 64.0849 204.86 64.2349 204.655C64.2349 204.655 64.2949 204.575 64.2099 204.43C64.1915 204.398 64.1663 204.371 64.136 204.35C64.1057 204.329 64.0712 204.316 64.0349 204.31C63.5808 204.339 63.1457 204.503 62.7849 204.78V204.77Z" fill="#FAFAFA"/>
    <path d="M62.5598 204.91H62.5148C62.5018 204.902 62.4911 204.891 62.484 204.878C62.4769 204.865 62.4738 204.85 62.4748 204.835C62.4748 204.79 62.5198 203.73 62.9348 203.38C62.9846 203.335 63.0434 203.302 63.1073 203.282C63.1711 203.262 63.2385 203.256 63.3048 203.265C63.3722 203.265 63.4376 203.288 63.4896 203.331C63.5416 203.374 63.577 203.434 63.5898 203.5C63.6698 203.91 62.9698 204.71 62.5898 204.915L62.5598 204.91ZM63.2448 203.41C63.1729 203.411 63.1037 203.437 63.0498 203.485C62.8045 203.821 62.6684 204.224 62.6598 204.64C63.0198 204.355 63.4648 203.75 63.4198 203.51C63.4198 203.485 63.4198 203.425 63.2848 203.41H63.2448Z" fill="#FAFAFA"/>
    <path d="M85.5598 205C85.1807 205 84.8024 204.965 84.4298 204.895C84.4123 204.892 84.3961 204.884 84.3836 204.871C84.371 204.859 84.3627 204.842 84.3598 204.825C84.357 204.808 84.3593 204.79 84.3664 204.774C84.3735 204.758 84.3851 204.744 84.3998 204.735C84.5848 204.63 86.2148 203.695 86.6098 204.34C86.6494 204.396 86.6706 204.464 86.6706 204.532C86.6706 204.601 86.6494 204.669 86.6098 204.725C86.4998 204.945 86.0298 205 85.5598 205ZM84.7048 204.765C85.3948 204.865 86.3248 204.85 86.4848 204.625C86.4848 204.625 86.5348 204.555 86.4598 204.43C86.2398 204.075 85.2498 204.5 84.7048 204.775V204.765Z" fill="#FAFAFA"/>
    <path d="M84.4448 204.91C84.4284 204.914 84.4112 204.914 84.3948 204.91C84.3823 204.901 84.3724 204.889 84.3663 204.875C84.3601 204.861 84.3579 204.845 84.3598 204.83C84.3598 204.79 84.4198 203.8 84.8598 203.415C84.9265 203.354 85.0061 203.309 85.0926 203.283C85.1792 203.257 85.2706 203.251 85.3598 203.265C85.6048 203.29 85.6748 203.415 85.6898 203.515C85.7598 203.94 84.9248 204.715 84.4848 204.915L84.4448 204.91ZM85.2848 203.41C85.1738 203.409 85.0665 203.45 84.9848 203.525C84.722 203.847 84.5695 204.245 84.5498 204.66C84.9898 204.39 85.5498 203.775 85.5148 203.52C85.5148 203.495 85.5148 203.43 85.3348 203.41H85.2848Z" fill="#FAFAFA"/>
    <path d="M80.405 204.82H84.08L84.115 196.315H80.445L80.405 204.82Z" fill="#E4897B"/>
    <path d="M58.3499 204.82H62.0249L63.5449 196.315H59.8699L58.3499 204.82Z" fill="#E4897B"/>
    <path d="M62.2698 204.395H58.1448C58.0719 204.394 58.001 204.419 57.9451 204.466C57.8891 204.513 57.8518 204.578 57.8398 204.65L57.2398 207.915C57.2275 207.996 57.2329 208.079 57.2558 208.157C57.2786 208.236 57.3182 208.309 57.372 208.371C57.4257 208.432 57.4923 208.482 57.567 208.515C57.6418 208.549 57.7229 208.566 57.8048 208.565C59.2448 208.54 59.9398 208.455 61.7548 208.455C62.8698 208.455 65.1748 208.575 66.7198 208.575C68.2648 208.575 68.3998 207.075 67.7648 206.91C64.9098 206.29 63.8098 205.435 62.8748 204.625C62.7079 204.477 62.4928 204.395 62.2698 204.395Z" fill="#263238"/>
    <path d="M84.0399 204.395H80.0399C79.967 204.394 79.8961 204.419 79.8402 204.466C79.7842 204.513 79.7469 204.578 79.7349 204.65L79.1349 207.915C79.1209 207.995 79.1249 208.078 79.1464 208.157C79.168 208.235 79.2066 208.308 79.2596 208.37C79.3126 208.432 79.3787 208.482 79.453 208.516C79.5274 208.549 79.6083 208.566 79.6899 208.565C81.1349 208.54 83.2199 208.455 85.0399 208.455C87.1699 208.455 89.0099 208.575 91.5049 208.575C93.0049 208.575 93.3699 207.075 92.7349 206.91C89.8349 206.28 87.4849 206.215 84.9449 204.685C84.6762 204.506 84.3627 204.405 84.0399 204.395Z" fill="#263238"/>
    <path d="M64.3699 79.45C60.9549 80.24 57.3699 89.625 57.3699 89.625L64.4649 94.365C66.0938 91.8951 67.5217 89.2984 68.7349 86.6C70.6099 82.305 67.8549 78.645 64.3699 79.45Z" fill="#38A1FF"/>
    <path opacity="0.7" d="M64.3699 79.45C60.9549 80.24 57.3699 89.625 57.3699 89.625L64.4649 94.365C66.0938 91.8951 67.5217 89.2984 68.7349 86.6C70.6099 82.305 67.8549 78.645 64.3699 79.45Z" fill="black"/>
    <path d="M67.0649 85.4349L64.1299 94.1399L64.4649 94.3649C64.4649 94.3649 65.8049 92.3649 67.2299 89.6999L67.0649 85.4349Z" fill="#38A1FF"/>
    <path opacity="0.8" d="M67.0649 85.4349L64.1299 94.1399L64.4649 94.3649C64.4649 94.3649 65.8049 92.3649 67.2299 89.6999L67.0649 85.4349Z" fill="black"/>
    <path d="M87.2849 95.86C87.2549 99.96 87.0099 105.06 86.3999 111.39H66.7499C66.4949 108.39 67.8249 93.66 64.3699 79.45C66.5311 79.031 68.7175 78.7538 70.9149 78.62C73.6959 78.4599 76.4838 78.4599 79.2649 78.62C81.1828 78.8064 83.0834 79.1407 84.9499 79.62C84.9499 79.62 86.6299 81.44 87.1399 89.975C87.2399 91.68 87.2949 93.62 87.2849 95.86Z" fill="#38A1FF"/>
    <path opacity="0.7" d="M87.2849 95.86C87.2549 99.96 87.0099 105.06 86.3999 111.39H66.7499C66.4949 108.39 67.8249 93.66 64.3699 79.45C66.5311 79.031 68.7175 78.7538 70.9149 78.62C73.6959 78.4599 76.4838 78.4599 79.2649 78.62C81.1828 78.8064 83.0834 79.1407 84.9499 79.62C84.9499 79.62 86.6299 81.44 87.1399 89.975C87.2399 91.68 87.2949 93.62 87.2849 95.86Z" fill="black"/>
    <path d="M87.2849 95.86C86.0949 93.69 83.9349 89.335 84.2399 86.86L87.1399 90C87.2399 91.68 87.2949 93.62 87.2849 95.86Z" fill="#38A1FF"/>
    <path opacity="0.8" d="M87.2849 95.86C86.0949 93.69 83.9349 89.335 84.2399 86.86L87.1399 90C87.2399 91.68 87.2949 93.62 87.2849 95.86Z" fill="black"/>
    <path d="M81.0999 82.96C80.7899 86.46 88.7249 94.88 88.7249 94.88L95.0849 89.7C93.4191 86.889 91.4233 84.2872 89.1399 81.95C85.4199 78.355 81.4499 79.04 81.0999 82.96Z" fill="#38A1FF"/>
    <path opacity="0.7" d="M81.0999 82.96C80.7899 86.46 88.7249 94.88 88.7249 94.88L95.0849 89.7C93.4191 86.889 91.4233 84.2872 89.1399 81.95C85.4199 78.355 81.4499 79.04 81.0999 82.96Z" fill="black"/>
    <path d="M84.1148 196.32L84.0948 200.7H80.4248L80.4398 196.32H84.1148Z" fill="#CE6F64"/>
    <path d="M59.87 196.32H63.545L62.76 200.7H59.085L59.87 196.32Z" fill="#CE6F64"/>
    <path d="M72.5 65.0749C71.965 68.6949 71.47 70.7749 72.86 73.0749C73.3019 73.8198 73.9392 74.4295 74.7028 74.838C75.4665 75.2465 76.3273 75.4382 77.1922 75.3924C78.057 75.3466 78.8928 75.0649 79.609 74.5779C80.3251 74.091 80.8944 73.4173 81.255 72.6299C82.69 69.6299 83.33 64.2099 80.175 61.9199C79.5093 61.4059 78.7199 61.0762 77.8863 60.964C77.0528 60.8519 76.2043 60.9612 75.4264 61.281C74.6485 61.6008 73.9684 62.1198 73.4547 62.7858C72.941 63.4518 72.6118 64.2413 72.5 65.0749Z" fill="#E4897B"/>
    <path d="M83.3748 63.36C82.2927 63.951 81.1021 64.3166 79.8748 64.435C78.9598 68.62 76.5248 73.435 72.5848 72.05C71.0848 71.55 69.5848 67.915 69.4298 64.69C69.1698 65.005 68.9948 65.415 68.8598 65.585C68.635 64.1517 68.7973 62.6844 69.3299 61.335C70.4199 58.245 71.1449 60.295 72.3299 58.42C73.0949 57.18 74.4549 56.54 76.8299 56.46C76.1649 56.805 76.0399 57.36 77.0249 57.28C78.0099 57.2 82.2149 56.97 84.6649 58.625C83.0099 59 84.0199 61.625 86.2299 60.225C85.4249 61.53 84.4248 62.77 83.3748 63.36Z" fill="#263238"/>
    <path d="M77.0449 67.315C77.0589 68.2356 77.3673 69.1274 77.9249 69.86C78.6699 70.82 79.5249 70.36 79.7299 69.28C79.9099 68.32 79.7299 66.66 78.7999 66.08C77.8699 65.5 77.0399 66.215 77.0449 67.315Z" fill="#E4897B"/>
    <path d="M72.565 58.8099C72.0661 58.7783 71.5824 58.6251 71.1562 58.3636C70.7301 58.1022 70.3743 57.7404 70.12 57.3099C70.12 57.3099 70.055 60.2399 72.565 58.8099Z" fill="#1E2A4C"/>
    <path d="M79.425 111.39C79.425 111.39 76.345 139.46 74.46 149.975C72.4 161.475 64.46 199.855 64.46 199.855H57.71C57.71 199.855 62.5 162.42 63.5 151C64.575 138.625 66.77 111.37 66.77 111.37L79.425 111.39Z" fill="#38A1FF"/>
    <path opacity="0.6" d="M79.425 111.39C79.425 111.39 76.345 139.46 74.46 149.975C72.4 161.475 64.46 199.855 64.46 199.855H57.71C57.71 199.855 62.5 162.42 63.5 151C64.575 138.625 66.77 111.37 66.77 111.37L79.425 111.39Z" fill="#FAFAFA"/>
    <path d="M65.4149 197.375C65.4449 197.375 64.8199 199.96 64.8199 199.96H57.2549L57.3049 197.655L65.4149 197.375Z" fill="#38A1FF"/>
    <path opacity="0.1" d="M65.4149 197.375C65.4449 197.375 64.8199 199.96 64.8199 199.96H57.2549L57.3049 197.655L65.4149 197.375Z" fill="#FAFAFA"/>
    <path d="M77.18 121.39C72.395 122.335 73.6 140.31 74.535 149.555C75.675 143.02 77.225 130.445 78.27 121.52C77.9317 121.355 77.5476 121.309 77.18 121.39Z" fill="#38A1FF"/>
    <path opacity="0.4" d="M77.18 121.39C72.395 122.335 73.6 140.31 74.535 149.555C75.675 143.02 77.225 130.445 78.27 121.52C77.9317 121.355 77.5476 121.309 77.18 121.39Z" fill="#FAFAFA"/>
    <path d="M86.395 111.39C86.395 111.39 87.965 138.85 87.995 150.055C88.03 161.705 85.435 199.855 85.435 199.855H79.21C79.21 199.855 77.535 162.385 76.815 150.945C76.035 138.47 73.48 111.39 73.48 111.39H86.395Z" fill="#38A1FF"/>
    <path opacity="0.6" d="M86.395 111.39C86.395 111.39 87.965 138.85 87.995 150.055C88.03 161.705 85.435 199.855 85.435 199.855H79.21C79.21 199.855 77.535 162.385 76.815 150.945C76.035 138.47 73.48 111.39 73.48 111.39H86.395Z" fill="#FAFAFA"/>
    <path d="M87.8999 107.86L86.1549 108C86.0127 108.012 85.875 108.055 85.7518 108.127C85.6285 108.199 85.5228 108.297 85.4424 108.415C85.3619 108.533 85.3087 108.667 85.2867 108.808C85.2646 108.949 85.2743 109.093 85.3149 109.23L86.0349 111.655C86.0957 111.852 86.2032 112.031 86.3482 112.178C86.4932 112.325 86.6715 112.434 86.8679 112.497C87.0643 112.56 87.273 112.574 87.4761 112.539C87.6793 112.504 87.871 112.42 88.0349 112.295C88.9363 111.456 89.5827 110.38 89.8999 109.19L87.8999 107.86Z" fill="#E4897B"/>
    <path d="M83.9599 195.385C83.9431 195.383 83.9278 195.374 83.9168 195.361C83.9057 195.348 83.8997 195.332 83.8999 195.315C84.5899 184.76 86.1899 159.215 86.1599 150.055C86.1599 140.68 85.0199 119.71 84.6599 113.505C84.6592 113.497 84.6602 113.488 84.663 113.48C84.6657 113.473 84.67 113.465 84.6756 113.459C84.6813 113.453 84.6881 113.448 84.6957 113.445C84.7034 113.442 84.7116 113.44 84.7199 113.44C84.7363 113.44 84.7521 113.446 84.7642 113.457C84.7762 113.468 84.7836 113.484 84.7849 113.5C85.1249 119.705 86.2399 140.675 86.2849 150.055C86.3149 159.22 84.7149 184.765 84.0249 195.325C84.0249 195.333 84.0232 195.341 84.0199 195.349C84.0166 195.357 84.0117 195.364 84.0056 195.369C83.9995 195.375 83.9923 195.379 83.9844 195.382C83.9765 195.385 83.9682 195.386 83.9599 195.385Z" fill="#38A1FF"/>
    <path opacity="0.3" d="M83.9599 195.385C83.9431 195.383 83.9278 195.374 83.9168 195.361C83.9057 195.348 83.8997 195.332 83.8999 195.315C84.5899 184.76 86.1899 159.215 86.1599 150.055C86.1599 140.68 85.0199 119.71 84.6599 113.505C84.6592 113.497 84.6602 113.488 84.663 113.48C84.6657 113.473 84.67 113.465 84.6756 113.459C84.6813 113.453 84.6881 113.448 84.6957 113.445C84.7034 113.442 84.7116 113.44 84.7199 113.44C84.7363 113.44 84.7521 113.446 84.7642 113.457C84.7762 113.468 84.7836 113.484 84.7849 113.5C85.1249 119.705 86.2399 140.675 86.2849 150.055C86.3149 159.22 84.7149 184.765 84.0249 195.325C84.0249 195.333 84.0232 195.341 84.0199 195.349C84.0166 195.357 84.0117 195.364 84.0056 195.369C83.9995 195.375 83.9923 195.379 83.9844 195.382C83.9765 195.385 83.9682 195.386 83.9599 195.385Z" fill="#FAFAFA"/>
    <path d="M86.5349 197.375C86.5649 197.375 86.2849 199.96 86.2849 199.96H78.7149L78.4199 197.655L86.5349 197.375Z" fill="#38A1FF"/>
    <path opacity="0.1" d="M86.5349 197.375C86.5649 197.375 86.2849 199.96 86.2849 199.96H78.7149L78.4199 197.655L86.5349 197.375Z" fill="#FAFAFA"/>
    </svg>
    