<svg width="250" height="250" viewBox="0 0 250 250" fill="none" xmlns="http://www.w3.org/2000/svg">
    <path d="M193.115 38.615C193.115 38.615 170.17 19.875 140.325 28.185C110.48 36.495 97.985 62.185 80.87 79.88C71.905 89.135 58.665 92.545 48.015 99.67C13.965 122.45 19.015 173.67 45.265 192.99C67.995 209.715 96.395 211.465 133.36 199.13C170.325 186.795 196.77 179.38 219.69 144.045C242.61 108.71 221.38 64.05 193.115 38.615Z" fill="#38A1FF"/>
    <path opacity="0.7" d="M193.115 38.615C193.115 38.615 170.17 19.875 140.325 28.185C110.48 36.495 97.985 62.185 80.87 79.88C71.905 89.135 58.665 92.545 48.015 99.67C13.965 122.45 19.015 173.67 45.265 192.99C67.995 209.715 96.395 211.465 133.36 199.13C170.325 186.795 196.77 179.38 219.69 144.045C242.61 108.71 221.38 64.05 193.115 38.615Z" fill="white"/>
    <path d="M197.5 229.5H51.5L66.1 208.5H182.9L197.5 229.5Z" fill="#263238" stroke="#263238" stroke-linecap="round" stroke-linejoin="round"/>
    <path d="M202.57 201.29C202.57 201.29 187.8 178.765 190 173.595C192.2 168.425 200 177.29 200 177.29C200 177.29 188.55 147.01 196.305 140.36C204.06 133.71 206.645 167.69 206.645 167.69C206.645 167.69 213.645 148.115 219.2 155.5C224.755 162.885 210.7 178.395 210.7 178.395C210.7 178.395 220.3 178.765 217.7 185.045C215.1 191.325 208.1 197.97 208.1 197.97L202.57 201.29Z" fill="#38A1FF"/>
    <path d="M198.5 196.12C198.5 196.12 189.64 183.565 194.07 180.98C198.5 178.395 200.715 186.15 200.715 186.15C200.715 186.15 201.085 152.18 208.105 154.765C215.125 157.35 212.535 178.025 212.535 178.025C212.535 178.025 221.395 172.12 221.035 180.61C220.675 189.1 208.845 196.5 208.845 196.5" stroke="#263238" stroke-linecap="round" stroke-linejoin="round"/>
    <path d="M206.63 196.86L198.875 188.365" stroke="#263238" stroke-linecap="round" stroke-linejoin="round"/>
    <path d="M207 200.92L206.63 179.875" stroke="#263238" stroke-linecap="round" stroke-linejoin="round"/>
    <path d="M207.37 193.905L214.385 184.675" stroke="#263238" stroke-linecap="round" stroke-linejoin="round"/>
    <path d="M213.645 194.645H194.075L196.03 212H211.69L213.645 194.645Z" fill="#263238" stroke="#263238" stroke-linecap="round" stroke-linejoin="round"/>
    <path d="M45.5701 201.29C45.5701 201.29 30.8001 178.765 33.0001 173.595C35.2001 168.425 43.0001 177.29 43.0001 177.29C43.0001 177.29 31.5351 147 39.2901 140.36C47.0451 133.72 49.6301 167.69 49.6301 167.69C49.6301 167.69 56.6301 148.115 62.1851 155.5C67.7401 162.885 53.6851 178.395 53.6851 178.395C53.6851 178.395 63.2851 178.765 60.6851 185.045C58.0851 191.325 51.0851 197.97 51.0851 197.97L45.5701 201.29Z" fill="#38A1FF"/>
    <path d="M42.575 196.4C42.575 196.4 33.395 187.775 33.115 183.9C32.835 180.025 38.96 184.735 41.46 186.4C43.96 188.065 35.065 175.55 35.34 166.37C35.615 157.19 40.625 160.81 42.295 164.705C43.965 168.6 44.795 172.205 45.635 173.05C46.475 173.895 47.86 166.65 51.475 168.595C57.255 171.71 47.86 182.225 49.805 184.175C51.75 186.125 56.205 175.83 58.43 181.395C60.655 186.96 51.195 196.97 51.195 196.97" stroke="#263238" stroke-linecap="round" stroke-linejoin="round"/>
    <path d="M48.415 195.84L41.46 174.98" stroke="#263238" stroke-linecap="round" stroke-linejoin="round"/>
    <path d="M44.8 185.27L47.5801 178.875" stroke="#263238" stroke-linecap="round" stroke-linejoin="round"/>
    <path d="M39.2351 189.445L47.0251 191.39L50.9201 188.61" stroke="#263238" stroke-linecap="round" stroke-linejoin="round"/>
    <path d="M56.645 194.645H37.075L39.0299 212H54.6899L56.645 194.645Z" fill="#263238" stroke="#263238" stroke-linecap="round" stroke-linejoin="round"/>
    <path d="M112.835 147C112.835 147 105.5 147.665 102.835 143C100.17 138.335 104.835 132.665 99.835 130.665C94.835 128.665 88.835 135.335 78.835 129.665C68.835 123.995 74.165 116.665 76.835 111C79.505 105.335 80.835 102.665 74.5 99C68.165 95.335 61.165 84.665 65.5 74.335C69.835 64.005 80.835 68.665 86.5 63.335C92.165 58.005 87.165 51.665 86.835 43C86.505 34.335 98.165 27.665 109.5 29.335C120.835 31.005 123.165 43 123.165 50.665C123.165 58.33 135.165 60.335 140.835 51.665C146.505 42.995 151.165 41 159.5 44.665C167.835 48.33 160.835 60.665 164.835 62.665C168.835 64.665 172.165 55 184.165 60.665C196.165 66.33 189.5 81.33 183.5 85C174.77 90.345 185.065 100.71 186.72 107.055C189.145 116.33 181.68 123.75 172.5 123.335C157.835 122.665 154.165 120.335 151.165 124.665C148.165 128.995 157.5 130 156.165 137C154.83 144 152.165 146.665 146.165 146.665C140.165 146.665 136.5 141.335 130.165 144C123.83 146.665 115.835 148.665 112.835 147Z" fill="#263238" stroke="#263238" stroke-linecap="round" stroke-linejoin="round"/>
    <path d="M101.25 194.75C100.175 198.739 99.7944 202.882 100.125 207C100.75 213.375 104 216.75 118.125 218.875C132.25 221 142 219.25 149.875 215.5C157.75 211.75 155.965 198.295 153.92 195.21C151.875 192.125 144 191.5 131.25 192.625C118.5 193.75 110.625 191.75 106 192.5C101.375 193.25 101.25 194.75 101.25 194.75Z" fill="#696969" stroke="#263238" stroke-linecap="round" stroke-linejoin="round"/>
    <path opacity="0.3" d="M146.25 196.75C146.25 196.75 139.5 198.5 134.75 199.75C130 201 129.5 201.5 133.75 202C138 202.5 146 202 146 202C146 202 134.75 207.25 128.75 208.5C122.75 209.75 111.75 205.75 110.5 204.75C109.25 203.75 115.75 203.75 117.5 203C119.25 202.25 118.25 201.25 112 200.25C105.75 199.25 107 205 112.5 209C118 213 121.25 214.25 128.375 213C135.5 211.75 145.25 208.75 148.5 202.75C151.75 196.75 146.25 196.75 146.25 196.75Z" fill="black"/>
    <path d="M98.0649 156.725L97.2349 173.425C97.2349 173.425 95.7348 177.305 98.4348 179.795C101.135 182.285 104.615 181.55 106.435 178.32C108.255 175.09 108.005 167.615 108.465 164.66C108.925 161.705 105.33 158.66 102.375 157.555C99.4198 156.45 98.0649 156.725 98.0649 156.725Z" fill="white" stroke="#263238" stroke-linecap="round" stroke-linejoin="round"/>
    <path d="M156.535 156.725L157.365 173.425C157.365 173.425 158.84 177.305 156.165 179.795C153.49 182.285 149.98 181.55 148.135 178.32C146.29 175.09 146.565 167.615 146.105 164.66C145.645 161.705 149.245 158.66 152.195 157.555C155.145 156.45 156.535 156.725 156.535 156.725Z" fill="white" stroke="#263238" stroke-linecap="round" stroke-linejoin="round"/>
    <path d="M120.66 131.84C120.66 131.84 120.975 138.79 119.29 141.735C117.605 144.68 112.235 144.5 108.765 144.5C105.295 144.5 100.13 147.34 98.4451 150.185C97.1738 152.518 96.084 154.945 95.1851 157.445L106.765 163.655C106.765 163.655 105.5 166.08 106.765 169.655C108.03 173.23 109.92 174.605 109.395 176.395C108.87 178.185 102.025 190.92 101.395 192.92C101.077 193.846 100.831 194.796 100.66 195.76C100.66 195.76 115.29 198.605 128.025 198.185C140.76 197.765 153.92 195.235 153.92 195.235C153.92 195.235 150.025 188.395 147.92 184.5C145.815 180.605 143.92 176.605 144.34 175.235C144.76 173.865 147.185 170.185 147.08 163.76C147.08 163.76 156.445 161.34 159.92 157.445C159.92 157.445 155.815 147.235 151.605 145.55C147.395 143.865 142.555 145.55 139.105 144.605C135.655 143.66 133.84 141.97 133.315 140.71C132.79 139.45 132.26 133.55 132.47 132.185L120.66 131.84Z" fill="#38A1FF" stroke="#263238" stroke-linecap="round" stroke-linejoin="round"/>
    <path opacity="0.3" d="M110 172.5C110 172.5 106.5 168.75 110.5 168.25C114.5 167.75 120.25 171.75 126.5 173.25C132.75 174.75 140.25 168 143.5 169C146.75 170 144.75 175 141.25 177.25C137.75 179.5 128 179.25 122.5 179C117 178.75 114.25 177.25 110 172.5Z" fill="black"/>
    <path d="M114.5 174.82C114.5 174.82 116.405 176.345 121.5 176.345C126.595 176.345 130.5 174.06 134.07 174.695" stroke="#263238" stroke-linecap="round" stroke-linejoin="round"/>
    <path d="M112.34 175.2C112.34 175.2 114.495 176.98 118.94 177.105" stroke="#263238" stroke-linecap="round" stroke-linejoin="round"/>
    <path d="M106.765 163.63C106.765 163.63 107.13 161.745 109.545 159.965" stroke="#263238" stroke-linecap="round" stroke-linejoin="round"/>
    <path d="M147.08 163.735C147.08 163.735 146.235 160.095 143.95 159.33" stroke="#263238" stroke-linecap="round" stroke-linejoin="round"/>
    <path d="M127.395 157.42C135.63 157.095 138.215 149.17 139.025 144.565C135.59 143.615 133.815 141.94 133.29 140.685C132.765 139.43 132.235 133.525 132.445 132.16L120.66 131.84C120.66 131.84 120.975 138.79 119.29 141.735C118.43 143.235 116.6 143.925 114.555 144.235C115.335 147.54 118.5 157.775 127.395 157.42Z" fill="white"/>
    <mask id="mask0_101_807" style="mask-type:luminance" maskUnits="userSpaceOnUse" x="114" y="131" width="26" height="27">
    <path d="M127.395 157.42C135.63 157.095 138.215 149.17 139.025 144.565C135.59 143.615 133.815 141.94 133.29 140.685C132.765 139.43 132.235 133.525 132.445 132.16L120.66 131.84C120.66 131.84 120.975 138.79 119.29 141.735C118.43 143.235 116.6 143.925 114.555 144.235C115.335 147.54 118.5 157.775 127.395 157.42Z" fill="white"/>
    </mask>
    <g mask="url(#mask0_101_807)">
    <path opacity="0.3" d="M132.65 137.03C132.44 135.416 132.372 133.786 132.445 132.16L120.66 131.84C120.722 133.63 120.66 135.423 120.475 137.205C122.545 138.56 126.74 140.18 132.65 137.03Z" fill="black"/>
    </g>
    <path d="M127.395 157.42C135.63 157.095 138.215 149.17 139.025 144.565C135.59 143.615 133.815 141.94 133.29 140.685C132.765 139.43 132.235 133.525 132.445 132.16L120.66 131.84C120.66 131.84 120.975 138.79 119.29 141.735C118.43 143.235 116.6 143.925 114.555 144.235C115.335 147.54 118.5 157.775 127.395 157.42Z" stroke="#263238" stroke-linecap="round" stroke-linejoin="round"/>
    <path d="M115.66 117.5C115.66 117.5 114.16 115.055 112.685 116.545C111.21 118.035 112.685 121.005 113.64 122.385C114.595 123.765 116.4 124.825 116.825 124.295C117.25 123.765 115.66 117.5 115.66 117.5Z" fill="white" stroke="#263238" stroke-linecap="round" stroke-linejoin="round"/>
    <path d="M138.7 117.28C138.7 117.28 140.825 114.52 141.995 117.175C143.165 119.83 139.995 123.865 138.495 124.61C136.995 125.355 137.75 122.91 137.855 122.06C137.96 121.21 138.7 117.28 138.7 117.28Z" fill="white" stroke="#263238" stroke-linecap="round" stroke-linejoin="round"/>
    <path d="M114.5 108.15C114.5 108.15 115.245 118.24 115.775 123.335C116.305 128.43 118.205 133 124.045 134.5C129.885 136 134.545 133.97 136.26 130.57C137.975 127.17 138.915 120.695 138.915 115.385V106.885C138.915 106.885 123.835 102.63 114.5 108.15Z" fill="white" stroke="#263238" stroke-linecap="round" stroke-linejoin="round"/>
    <path d="M125.745 122.59C126.285 122.948 126.905 123.168 127.55 123.23C128.226 123.16 128.878 122.941 129.46 122.59" stroke="#263238" stroke-linecap="round" stroke-linejoin="round"/>
    <path d="M124.365 125.885C124.365 125.885 127.02 127.585 130.865 125.67" stroke="#263238" stroke-linecap="round" stroke-linejoin="round"/>
    <path d="M120.12 117.28C120.12 117.28 122.35 116.965 123.62 117.815" stroke="#263238" stroke-width="2" stroke-linecap="round" stroke-linejoin="round"/>
    <path d="M130.525 117.705C130.525 117.705 132.65 116.645 134.665 117.6" stroke="#263238" stroke-width="2" stroke-linecap="round" stroke-linejoin="round"/>
    <path d="M115.13 116.315C115.858 115.087 116.428 113.771 116.825 112.4C117.471 110.605 117.671 108.68 117.41 106.79C116.401 107.154 115.427 107.609 114.5 108.15C114.5 108.15 114.78 112.105 115.13 116.315Z" fill="#263238" stroke="#263238" stroke-linecap="round" stroke-linejoin="round"/>
    <path d="M138.91 115.47C138.91 115.435 138.91 115.405 138.91 115.37V106.87C138.91 106.87 137.87 106.58 136.175 106.25C136.285 107.9 136.78 112.875 138.91 115.47Z" fill="#263238" stroke="#263238" stroke-linecap="round" stroke-linejoin="round"/>
    <path d="M119.27 113.565C119.27 113.565 121.075 111.125 124.895 111.865" stroke="#263238" stroke-linecap="round" stroke-linejoin="round"/>
    <path d="M130.31 112.185C131.182 111.866 132.123 111.786 133.035 111.954C133.948 112.122 134.799 112.532 135.5 113.14" stroke="#263238" stroke-linecap="round" stroke-linejoin="round"/>
    <path d="M128.375 213C128.375 213 123.5 213 114.75 204.375C106 195.75 100.5 188.5 93.7499 185.5C86.9999 182.5 80.4999 189.125 80.8749 196.25C81.2499 203.375 86.4999 213.375 102.125 219.125C117.75 224.875 131.125 222.5 132.5 222.5C133.875 222.5 140.625 225.875 144.625 226.25C146.827 226.486 149.048 226.486 151.25 226.25C151.25 226.25 152.375 226.375 153 226.375C153.625 226.375 154.375 225.625 154.375 225.625C154.375 225.625 155.64 225.955 156.14 225.08C156.64 224.205 156.25 223.875 156.25 223.875C156.25 223.875 158.39 224.06 159.14 222.685C159.89 221.31 158.82 221.365 158.82 221.365C158.82 221.365 160.285 221.08 160.25 219.9C160.277 219.461 160.191 219.021 160 218.625C160 218.625 160.875 217.25 160.5 216.125C160.125 215 158.75 214.625 157.375 215.25C156 215.875 149.375 215.625 144 215.25C138.625 214.875 128.375 213 128.375 213Z" fill="white" stroke="#263238" stroke-linecap="round" stroke-linejoin="round"/>
    <path d="M126.2 212.5C123.97 211.695 120.08 209.645 114.75 204.39C106 195.75 100.5 188.5 93.7499 185.5C86.9999 182.5 80.4999 189.125 80.8749 196.25C81.2499 203.375 86.4999 213.375 102.125 219.125C107.952 221.254 114.061 222.515 120.255 222.87C125.935 220.5 126.465 215.5 126.2 212.5Z" fill="#696969"/>
    <mask id="mask1_101_807" style="mask-type:luminance" maskUnits="userSpaceOnUse" x="80" y="184" width="47" height="39">
    <path d="M126.2 212.5C123.97 211.695 120.08 209.645 114.75 204.39C106 195.75 100.5 188.5 93.7499 185.5C86.9999 182.5 80.4999 189.125 80.8749 196.25C81.2499 203.375 86.4999 213.375 102.125 219.125C107.952 221.254 114.061 222.515 120.255 222.87C125.935 220.5 126.465 215.5 126.2 212.5Z" fill="white"/>
    </mask>
    <g mask="url(#mask1_101_807)">
    <path opacity="0.3" d="M124.075 220.17C121.61 219.235 118.73 218.235 115.5 217.25C104 213.75 95.4999 209.5 89.7499 203C83.9999 196.5 85.9999 188.25 85.9999 188.25L84.6749 187.05C83.4027 188.209 82.4023 189.634 81.7453 191.225C81.0884 192.815 80.7912 194.531 80.8749 196.25C81.2499 203.375 86.4999 213.375 102.125 219.125C107.952 221.254 114.061 222.515 120.255 222.87C121.725 222.286 123.034 221.361 124.075 220.17Z" fill="black"/>
    </g>
    <path d="M126.2 212.5C123.97 211.695 120.08 209.645 114.75 204.39C106 195.75 100.5 188.5 93.7499 185.5C86.9999 182.5 80.4999 189.125 80.8749 196.25C81.2499 203.375 86.4999 213.375 102.125 219.125C107.952 221.254 114.061 222.515 120.255 222.87C125.935 220.5 126.465 215.5 126.2 212.5Z" stroke="#263238" stroke-linecap="round" stroke-linejoin="round"/>
    <path d="M160 218.625C159.616 218.452 159.199 218.368 158.778 218.379C158.358 218.389 157.945 218.494 157.57 218.685" fill="white"/>
    <path d="M160 218.625C159.616 218.452 159.199 218.368 158.778 218.379C158.358 218.389 157.945 218.494 157.57 218.685" stroke="#263238" stroke-linecap="round" stroke-linejoin="round"/>
    <path d="M158.82 221.365C158.174 221.131 157.466 221.131 156.82 221.365H158.82Z" fill="white"/>
    <path d="M158.82 221.365C158.174 221.131 157.466 221.131 156.82 221.365" stroke="#263238" stroke-linecap="round" stroke-linejoin="round"/>
    <path d="M156.25 223.875C155.788 223.528 155.216 223.359 154.64 223.4L156.25 223.875Z" fill="white"/>
    <path d="M156.25 223.875C155.788 223.528 155.216 223.359 154.64 223.4" stroke="#263238" stroke-linecap="round" stroke-linejoin="round"/>
    <path d="M154.245 225.5C154.245 225.5 153.71 224.535 152.925 224.535L154.245 225.5Z" fill="white"/>
    <path d="M154.245 225.5C154.245 225.5 153.71 224.535 152.925 224.535" stroke="#263238" stroke-linecap="round" stroke-linejoin="round"/>
    <path d="M122.83 213C122.83 213 127.705 213 136.455 204.375C145.205 195.75 150.705 188.5 157.455 185.5C164.205 182.5 170.705 189.125 170.33 196.25C169.955 203.375 164.705 213.375 149.08 219.125C133.455 224.875 120.08 222.5 118.705 222.5C117.33 222.5 110.58 225.875 106.58 226.25C104.378 226.486 102.157 226.486 99.955 226.25C99.955 226.25 98.83 226.375 98.205 226.375C97.58 226.375 96.83 225.625 96.83 225.625C96.83 225.625 95.565 225.955 95.065 225.08C94.565 224.205 94.955 223.875 94.955 223.875C94.955 223.875 92.81 224.06 92.06 222.685C91.31 221.31 92.38 221.365 92.38 221.365C92.38 221.365 90.915 221.08 90.95 219.9C90.921 219.46 91.009 219.02 91.205 218.625C91.205 218.625 90.33 217.25 90.705 216.125C91.08 215 92.455 214.625 93.83 215.25C95.205 215.875 101.83 215.625 107.205 215.25C112.58 214.875 122.83 213 122.83 213Z" fill="white" stroke="#263238" stroke-linecap="round" stroke-linejoin="round"/>
    <path d="M125 212.5C127.225 211.695 131.115 209.645 136.45 204.39C145.2 195.765 150.7 188.515 157.45 185.515C164.2 182.515 170.7 189.14 170.325 196.265C169.95 203.39 164.7 213.39 149.075 219.14C143.246 221.269 137.136 222.531 130.94 222.885C125.265 220.5 124.74 215.5 125 212.5Z" fill="#696969"/>
    <mask id="mask2_101_807" style="mask-type:luminance" maskUnits="userSpaceOnUse" x="124" y="184" width="47" height="39">
    <path d="M125 212.5C127.225 211.695 131.115 209.645 136.45 204.39C145.2 195.765 150.7 188.515 157.45 185.515C164.2 182.515 170.7 189.14 170.325 196.265C169.95 203.39 164.7 213.39 149.075 219.14C143.246 221.269 137.136 222.531 130.94 222.885C125.265 220.5 124.74 215.5 125 212.5Z" fill="white"/>
    </mask>
    <g mask="url(#mask2_101_807)">
    <path opacity="0.3" d="M170.33 196.25C170.59 191.285 167.51 186.57 163.33 185.175L161.5 186.5C161.5 186.5 167.75 190.25 166.25 197.5C164.75 204.75 152.5 212.25 142.75 216.25C137.895 218.153 132.913 219.712 127.84 220.915C128.751 221.745 129.802 222.407 130.945 222.87C137.141 222.516 143.251 221.254 149.08 219.125C164.705 213.375 169.955 203.375 170.33 196.25Z" fill="black"/>
    </g>
    <path d="M125 212.5C127.225 211.695 131.115 209.645 136.45 204.39C145.2 195.765 150.7 188.515 157.45 185.515C164.2 182.515 170.7 189.14 170.325 196.265C169.95 203.39 164.7 213.39 149.075 219.14C143.246 221.269 137.136 222.531 130.94 222.885C125.265 220.5 124.74 215.5 125 212.5Z" stroke="#263238" stroke-linecap="round" stroke-linejoin="round"/>
    <path d="M91.2051 218.625C91.5888 218.452 92.0063 218.368 92.4269 218.379C92.8475 218.389 93.2604 218.494 93.6351 218.685" fill="white"/>
    <path d="M91.2051 218.625C91.5888 218.452 92.0063 218.368 92.4269 218.379C92.8475 218.389 93.2604 218.494 93.6351 218.685" stroke="#263238" stroke-linecap="round" stroke-linejoin="round"/>
    <path d="M92.3799 221.365C93.026 221.131 93.7338 221.131 94.3799 221.365H92.3799Z" fill="white"/>
    <path d="M92.3799 221.365C93.026 221.131 93.7338 221.131 94.3799 221.365" stroke="#263238" stroke-linecap="round" stroke-linejoin="round"/>
    <path d="M94.9551 223.875C95.4169 223.528 95.9887 223.359 96.5651 223.4L94.9551 223.875Z" fill="white"/>
    <path d="M94.9551 223.875C95.4169 223.528 95.9887 223.359 96.5651 223.4" stroke="#263238" stroke-linecap="round" stroke-linejoin="round"/>
    <path d="M96.96 225.5C96.96 225.5 97.5 224.5 98.28 224.5L96.96 225.5Z" fill="white"/>
    <path d="M96.96 225.5C96.96 225.5 97.5 224.5 98.28 224.5" stroke="#263238" stroke-linecap="round" stroke-linejoin="round"/>
    <path d="M100.185 174.535C100.185 174.535 98.3399 174.165 95.0199 175.825C91.6999 177.485 88.6499 180.44 86.8949 181.455C85.1399 182.47 83.9449 183.12 82.3949 181.55C80.8449 179.98 77.5049 175.64 74.3649 175.735C71.2249 175.83 70.1199 180.165 70.6749 181.085C71.2299 182.005 72.0599 182.195 72.7049 181.455C73.3499 180.715 74.1799 179.24 75.0099 179.795C75.8399 180.35 75.3799 182.935 74.0899 183.395C72.7999 183.855 69.2899 186.07 70.1199 187.365C70.9499 188.66 75.6599 190.41 79.1649 190.685C82.6699 190.96 87.0099 188.565 89.8699 188.1C92.7299 187.635 100.485 187.1 104.08 184.135C105.115 183.292 105.909 182.191 106.38 180.942C106.85 179.693 106.982 178.341 106.76 177.025" fill="white"/>
    <path d="M100.185 174.535C100.185 174.535 98.3399 174.165 95.0199 175.825C91.6999 177.485 88.6499 180.44 86.8949 181.455C85.1399 182.47 83.9449 183.12 82.3949 181.55C80.8449 179.98 77.5049 175.64 74.3649 175.735C71.2249 175.83 70.1199 180.165 70.6749 181.085C71.2299 182.005 72.0599 182.195 72.7049 181.455C73.3499 180.715 74.1799 179.24 75.0099 179.795C75.8399 180.35 75.3799 182.935 74.0899 183.395C72.7999 183.855 69.2899 186.07 70.1199 187.365C70.9499 188.66 75.6599 190.41 79.1649 190.685C82.6699 190.96 87.0099 188.565 89.8699 188.1C92.7299 187.635 100.485 187.1 104.08 184.135C105.115 183.292 105.909 182.191 106.38 180.942C106.85 179.693 106.982 178.341 106.76 177.025" stroke="#263238" stroke-linecap="round" stroke-linejoin="round"/>
    <path d="M70.56 185.425C70.56 185.425 70.195 181.365 68.995 181.085C67.795 180.805 67.61 183.585 67.795 186.255C67.98 188.925 69.455 189.67 70.375 188.93C71.295 188.19 70.56 185.425 70.56 185.425Z" fill="white" stroke="#263238" stroke-linecap="round" stroke-linejoin="round"/>
    <path d="M73.445 186.57C73.445 186.57 73.795 182.505 72.665 182.02C71.535 181.535 70.865 184.23 70.57 186.895C70.275 189.56 71.605 190.55 72.645 189.99C73.685 189.43 73.445 186.57 73.445 186.57Z" fill="white" stroke="#263238" stroke-linecap="round" stroke-linejoin="round"/>
    <path d="M75.9351 187.5C75.9351 187.5 76.2901 183.44 75.1551 182.955C74.0201 182.47 73.3551 185.165 73.0651 187.83C72.7751 190.495 74.0951 191.485 75.1351 190.92C76.1751 190.355 75.9351 187.5 75.9351 187.5Z" fill="white" stroke="#263238" stroke-linecap="round" stroke-linejoin="round"/>
    <path d="M82.4649 190.5C80.7894 191.273 78.9595 191.652 77.1149 191.61C77.0081 190.844 76.9463 190.073 76.9299 189.3C76.9299 188.3 79.0499 184.135 82.1899 184.41" fill="white"/>
    <path d="M82.4649 190.5C80.7894 191.273 78.9595 191.652 77.1149 191.61C77.0081 190.844 76.9463 190.073 76.9299 189.3C76.9299 188.3 79.0499 184.135 82.1899 184.41" stroke="#263238" stroke-linecap="round" stroke-linejoin="round"/>
    <path d="M78.5801 189.085C78.5801 189.085 79.7551 185.905 78.7851 185.165C77.8151 184.425 76.6201 186.395 75.7851 188.465C74.9501 190.535 76.0051 191.745 77.1051 191.61C78.2051 191.475 78.5801 189.085 78.5801 189.085Z" fill="white" stroke="#263238" stroke-linecap="round" stroke-linejoin="round"/>
    <path d="M154.41 174.535C154.41 174.535 156.255 174.165 159.58 175.825C162.905 177.485 165.945 180.44 167.7 181.455C169.455 182.47 170.655 183.12 172.225 181.55C173.795 179.98 177.115 175.64 180.25 175.735C183.385 175.83 184.495 180.165 183.945 181.085C183.395 182.005 182.56 182.195 181.915 181.455C181.27 180.715 180.415 179.24 179.605 179.795C178.795 180.35 179.235 182.935 180.53 183.395C181.825 183.855 185.33 186.07 184.495 187.365C183.66 188.66 178.96 190.41 175.455 190.685C171.95 190.96 167.61 188.565 164.745 188.1C161.88 187.635 154.135 187.1 150.535 184.135C149.5 183.293 148.707 182.191 148.237 180.941C147.767 179.692 147.637 178.341 147.86 177.025" fill="white"/>
    <path d="M154.41 174.535C154.41 174.535 156.255 174.165 159.58 175.825C162.905 177.485 165.945 180.44 167.7 181.455C169.455 182.47 170.655 183.12 172.225 181.55C173.795 179.98 177.115 175.64 180.25 175.735C183.385 175.83 184.495 180.165 183.945 181.085C183.395 182.005 182.56 182.195 181.915 181.455C181.27 180.715 180.415 179.24 179.605 179.795C178.795 180.35 179.235 182.935 180.53 183.395C181.825 183.855 185.33 186.07 184.495 187.365C183.66 188.66 178.96 190.41 175.455 190.685C171.95 190.96 167.61 188.565 164.745 188.1C161.88 187.635 154.135 187.1 150.535 184.135C149.5 183.293 148.707 182.191 148.237 180.941C147.767 179.692 147.637 178.341 147.86 177.025" stroke="#263238" stroke-linecap="round" stroke-linejoin="round"/>
    <path d="M184.035 185.425C184.035 185.425 184.405 181.365 185.605 181.085C186.805 180.805 186.99 183.585 186.805 186.255C186.62 188.925 185.145 189.67 184.22 188.93C183.295 188.19 184.035 185.425 184.035 185.425Z" fill="white" stroke="#263238" stroke-linecap="round" stroke-linejoin="round"/>
    <path d="M181.155 186.57C181.155 186.57 180.8 182.505 181.93 182.02C183.06 181.535 183.735 184.23 184.025 186.895C184.315 189.56 183 190.55 181.955 190C180.91 189.45 181.155 186.57 181.155 186.57Z" fill="white" stroke="#263238" stroke-linecap="round" stroke-linejoin="round"/>
    <path d="M178.66 187.5C178.66 187.5 178.31 183.44 179.44 182.955C180.57 182.47 181.245 185.165 181.535 187.83C181.825 190.495 180.5 191.485 179.465 190.92C178.43 190.355 178.66 187.5 178.66 187.5Z" fill="white" stroke="#263238" stroke-linecap="round" stroke-linejoin="round"/>
    <path d="M172.13 190.5C173.812 191.275 175.649 191.655 177.5 191.61C177.607 190.844 177.668 190.073 177.685 189.3C177.685 188.3 175.56 184.135 172.42 184.41" fill="white"/>
    <path d="M172.13 190.5C173.812 191.275 175.649 191.655 177.5 191.61C177.607 190.844 177.668 190.073 177.685 189.3C177.685 188.3 175.56 184.135 172.42 184.41" stroke="#263238" stroke-linecap="round" stroke-linejoin="round"/>
    <path d="M176 189.085C176 189.085 174.825 185.905 175.795 185.165C176.765 184.425 177.955 186.395 178.795 188.465C179.635 190.535 178.575 191.745 177.475 191.61C176.375 191.475 176 189.085 176 189.085Z" fill="white" stroke="#263238" stroke-linecap="round" stroke-linejoin="round"/>
    <path d="M136.5 102C135.325 100.295 133.5 101.955 133.03 102.465C132.53 101.965 130.735 100.295 129.565 102C128.29 103.855 132.99 107.72 133.03 107.7C133.07 107.68 137.76 103.855 136.5 102Z" stroke="#38A1FF" stroke-linecap="round" stroke-linejoin="round"/>
    <path d="M124.825 103.53C123.357 101.554 121.38 100.014 119.105 99.075C115.445 97.645 117.83 94.785 119.42 95.575C120.446 96.0789 121.509 96.5035 122.6 96.845C122.6 96.845 118.465 93.505 118.31 90.645C118.155 87.785 122.6 91.44 122.6 91.44C122.6 91.44 117.195 84 118.945 82.7C120.695 81.4 122.28 83.815 123.395 85.88C124.187 87.4232 124.876 89.0167 125.46 90.65C125.46 90.65 125.145 85.405 126.895 86.995C128.645 88.585 127.53 96.535 127.53 96.535C127.53 96.535 129.915 90.035 131.03 93.535C132.145 97.035 125.305 103.05 124.825 103.53Z" stroke="#38A1FF" stroke-linecap="round" stroke-linejoin="round"/>
    <path d="M124.825 103.53C124.825 103.53 127.37 95.895 122.125 86.03" stroke="#38A1FF" stroke-linecap="round" stroke-linejoin="round"/>
    <path d="M116.1 52.845C114.277 52.8311 112.485 53.3134 110.915 54.24C108.415 55.74 107.815 53.075 108.995 52.49C109.75 52.1075 110.475 51.6696 111.165 51.18C111.165 51.18 107.345 52.13 105.585 50.945C103.825 49.76 107.97 48.765 107.97 48.765C107.97 48.765 101.145 48.625 101.175 47.025C101.205 45.425 103.32 45.525 105.04 45.815C106.305 46.0364 107.554 46.3387 108.78 46.72C108.78 46.72 105.54 44.565 107.255 44.22C108.97 43.875 113.175 48.1 113.175 48.1C113.175 48.1 110.39 43.785 112.95 44.685C115.51 45.585 116.03 52.35 116.1 52.845Z" stroke="#38A1FF" stroke-linecap="round" stroke-linejoin="round"/>
    <path d="M116.1 52.845C116.1 52.845 112.73 47.935 104.565 46.635" stroke="#38A1FF" stroke-linecap="round" stroke-linejoin="round"/>
    <path d="M147.68 84.435C147.538 84.4379 147.397 84.4563 147.26 84.49C147.471 84.2883 147.631 84.0388 147.726 83.7624C147.821 83.4861 147.849 83.1909 147.806 82.9018C147.763 82.6128 147.651 82.3382 147.48 82.1012C147.309 81.8642 147.084 81.6718 146.823 81.5401C146.562 81.4084 146.273 81.3413 145.981 81.3443C145.689 81.3474 145.402 81.4206 145.144 81.5578C144.886 81.695 144.664 81.8922 144.498 82.1327C144.332 82.3732 144.227 82.6501 144.19 82.94C144.073 82.693 143.902 82.4754 143.689 82.3034C143.477 82.1314 143.228 82.0093 142.962 81.9462C142.696 81.8831 142.42 81.8805 142.152 81.9387C141.885 81.9969 141.635 82.1144 141.419 82.2824C141.203 82.4505 141.028 82.6648 140.907 82.9096C140.785 83.1545 140.72 83.4235 140.716 83.6968C140.712 83.9702 140.77 84.2409 140.885 84.4889C141 84.737 141.169 84.9561 141.38 85.13C141.144 85.2482 140.937 85.4161 140.772 85.6222C140.607 85.8283 140.489 86.0677 140.426 86.3239C140.362 86.58 140.355 86.8469 140.405 87.106C140.455 87.3651 140.56 87.6104 140.714 87.8249C140.868 88.0393 141.066 88.2179 141.295 88.3483C141.525 88.4787 141.78 88.5578 142.043 88.5801C142.306 88.6025 142.57 88.5676 142.818 88.4778C143.067 88.388 143.292 88.2454 143.48 88.06C143.521 88.5182 143.734 88.9437 144.077 89.251C144.419 89.5584 144.865 89.7246 145.325 89.7164C145.785 89.7082 146.225 89.526 146.556 89.2067C146.887 88.8873 147.085 88.4544 147.11 87.995C147.294 88.0565 147.486 88.0902 147.68 88.095C148.165 88.095 148.631 87.9022 148.974 87.559C149.317 87.2158 149.51 86.7503 149.51 86.265C149.51 85.7796 149.317 85.3142 148.974 84.971C148.631 84.6278 148.165 84.435 147.68 84.435Z" stroke="#38A1FF" stroke-linecap="round" stroke-linejoin="round"/>
    <path d="M144.565 87.14C145.263 87.14 145.83 86.5736 145.83 85.875C145.83 85.1763 145.263 84.61 144.565 84.61C143.866 84.61 143.3 85.1763 143.3 85.875C143.3 86.5736 143.866 87.14 144.565 87.14Z" stroke="#38A1FF" stroke-linecap="round" stroke-linejoin="round"/>
    <path d="M111.09 98.83C110.947 98.8326 110.804 98.8511 110.665 98.885C110.878 98.6839 111.039 98.4345 111.135 98.1579C111.231 97.8813 111.259 97.5857 111.217 97.296C111.175 97.0062 111.064 96.7309 110.893 96.4932C110.722 96.2555 110.496 96.0624 110.235 95.9303C109.973 95.7982 109.684 95.7308 109.391 95.734C109.099 95.7372 108.811 95.8107 108.552 95.9485C108.294 96.0862 108.073 96.2841 107.907 96.5254C107.741 96.7668 107.636 97.0444 107.6 97.335C107.421 96.9619 107.12 96.6608 106.747 96.4811C106.374 96.3015 105.951 96.254 105.547 96.3464C105.144 96.4389 104.784 96.6658 104.526 96.9899C104.268 97.314 104.129 97.716 104.13 98.13C104.13 98.3968 104.19 98.6602 104.304 98.9014C104.418 99.1426 104.584 99.3555 104.79 99.525C104.554 99.6432 104.346 99.8111 104.182 100.017C104.017 100.223 103.899 100.463 103.836 100.719C103.772 100.975 103.765 101.242 103.815 101.501C103.865 101.76 103.97 102.005 104.124 102.22C104.278 102.434 104.476 102.613 104.705 102.743C104.935 102.874 105.19 102.953 105.453 102.975C105.716 102.998 105.98 102.963 106.228 102.873C106.476 102.783 106.702 102.64 106.89 102.455C106.938 102.907 107.154 103.325 107.495 103.625C107.836 103.926 108.277 104.089 108.732 104.08C109.187 104.072 109.622 103.894 109.952 103.581C110.282 103.269 110.483 102.844 110.515 102.39C110.7 102.454 110.894 102.488 111.09 102.49C111.575 102.49 112.041 102.297 112.384 101.954C112.727 101.611 112.92 101.145 112.92 100.66C112.92 100.175 112.727 99.7092 112.384 99.366C112.041 99.0228 111.575 98.83 111.09 98.83Z" stroke="#38A1FF" stroke-linecap="round" stroke-linejoin="round"/>
    <path d="M107.97 101.535C108.668 101.535 109.235 100.969 109.235 100.27C109.235 99.5714 108.668 99.005 107.97 99.005C107.271 99.005 106.705 99.5714 106.705 100.27C106.705 100.969 107.271 101.535 107.97 101.535Z" stroke="#38A1FF" stroke-linecap="round" stroke-linejoin="round"/>
    <path d="M110.09 76.09C110.001 76.0915 109.912 76.1032 109.825 76.125C109.938 76.0202 110.027 75.8933 110.088 75.7521C110.149 75.611 110.181 75.4588 110.18 75.305C110.194 75.0078 110.09 74.7172 109.892 74.4956C109.693 74.2739 109.416 74.1391 109.119 74.1201C108.822 74.1011 108.529 74.1994 108.304 74.3939C108.079 74.5884 107.939 74.8635 107.915 75.16C107.842 75.0065 107.735 74.8713 107.603 74.7645C107.471 74.6577 107.316 74.582 107.15 74.543C106.985 74.504 106.813 74.5027 106.647 74.5392C106.481 74.5756 106.325 74.649 106.191 74.7538C106.057 74.8585 105.948 74.9921 105.873 75.1445C105.797 75.2969 105.757 75.4643 105.755 75.6344C105.753 75.8044 105.789 75.9728 105.861 76.1269C105.933 76.2811 106.039 76.4171 106.17 76.525C105.982 76.6164 105.824 76.7585 105.712 76.9352C105.601 77.1119 105.541 77.3162 105.54 77.525C105.533 77.755 105.596 77.9817 105.721 78.1752C105.845 78.3687 106.025 78.52 106.237 78.6093C106.449 78.6986 106.683 78.7216 106.909 78.6753C107.134 78.629 107.34 78.5156 107.5 78.35C107.532 78.6313 107.667 78.8906 107.88 79.0771C108.093 79.2637 108.368 79.3639 108.651 79.3583C108.934 79.3527 109.204 79.2415 109.409 79.0467C109.615 78.8518 109.74 78.5873 109.76 78.305C109.874 78.3472 109.994 78.3692 110.115 78.37C110.417 78.37 110.707 78.2499 110.921 78.0361C111.135 77.8223 111.255 77.5324 111.255 77.23C111.255 76.9277 111.135 76.6377 110.921 76.4239C110.707 76.2101 110.417 76.09 110.115 76.09H110.09Z" stroke="#38A1FF" stroke-linecap="round" stroke-linejoin="round"/>
    <path d="M108.15 77.7749C108.586 77.7749 108.94 77.4213 108.94 76.9849C108.94 76.5486 108.586 76.1949 108.15 76.1949C107.714 76.1949 107.36 76.5486 107.36 76.9849C107.36 77.4213 107.714 77.7749 108.15 77.7749Z" stroke="#38A1FF" stroke-linecap="round" stroke-linejoin="round"/>
    <path d="M99.7849 111C99.6972 111.001 99.6099 111.013 99.5249 111.035C99.6358 110.929 99.724 110.802 99.7842 110.661C99.8444 110.52 99.8752 110.368 99.8749 110.215C99.8736 109.927 99.7632 109.651 99.566 109.442C99.3688 109.233 99.0995 109.106 98.8126 109.088C98.5256 109.069 98.2424 109.16 98.0201 109.343C97.7978 109.525 97.653 109.785 97.6149 110.07C97.5411 109.918 97.4342 109.784 97.302 109.678C97.1698 109.572 97.0156 109.498 96.8507 109.459C96.6858 109.421 96.5144 109.42 96.3491 109.456C96.1838 109.493 96.0287 109.565 95.8953 109.67C95.7618 109.774 95.6533 109.906 95.5777 110.058C95.5021 110.209 95.4614 110.376 95.4585 110.545C95.4556 110.714 95.4906 110.882 95.5609 111.036C95.6312 111.19 95.7351 111.326 95.8649 111.435C95.7188 111.509 95.5905 111.613 95.4886 111.741C95.3868 111.869 95.3138 112.018 95.2747 112.177C95.2357 112.336 95.2315 112.501 95.2623 112.662C95.2932 112.823 95.3585 112.975 95.4537 113.108C95.5489 113.241 95.6717 113.352 95.8138 113.433C95.9559 113.515 96.1139 113.564 96.2769 113.578C96.4399 113.593 96.6041 113.572 96.7582 113.517C96.9124 113.462 97.0528 113.374 97.1699 113.26C97.2014 113.541 97.3369 113.801 97.5498 113.987C97.7626 114.174 98.0375 114.274 98.3204 114.268C98.6034 114.263 98.874 114.151 99.0793 113.957C99.2845 113.762 99.4096 113.497 99.4299 113.215C99.5437 113.257 99.6637 113.279 99.7849 113.28C100.087 113.28 100.377 113.16 100.591 112.946C100.805 112.732 100.925 112.442 100.925 112.14C100.925 111.838 100.805 111.548 100.591 111.334C100.377 111.12 100.087 111 99.7849 111Z" stroke="#38A1FF" stroke-linecap="round" stroke-linejoin="round"/>
    <path d="M97.8449 112.685C98.2812 112.685 98.6349 112.331 98.6349 111.895C98.6349 111.459 98.2812 111.105 97.8449 111.105C97.4086 111.105 97.0549 111.459 97.0549 111.895C97.0549 112.331 97.4086 112.685 97.8449 112.685Z" stroke="#38A1FF" stroke-linecap="round" stroke-linejoin="round"/>
    <path d="M121.915 57.145C121.827 57.1465 121.74 57.1582 121.655 57.18C121.786 57.0546 121.885 56.8996 121.944 56.7281C122.002 56.5566 122.019 56.3734 121.993 56.1941C121.966 56.0147 121.897 55.8443 121.791 55.6972C121.685 55.55 121.545 55.4303 121.384 55.3482C121.222 55.2661 121.043 55.224 120.862 55.2252C120.681 55.2265 120.502 55.2712 120.342 55.3556C120.181 55.44 120.043 55.5616 119.939 55.7103C119.836 55.8589 119.769 56.0303 119.745 56.21C119.634 55.9763 119.446 55.7876 119.213 55.6752C118.98 55.5627 118.716 55.5332 118.464 55.5915C118.212 55.6499 117.987 55.7926 117.827 55.996C117.668 56.1994 117.582 56.4513 117.585 56.71C117.585 56.8756 117.621 57.0391 117.692 57.1887C117.763 57.3383 117.867 57.4703 117.995 57.575C117.764 57.6876 117.578 57.8752 117.468 58.1071C117.358 58.3389 117.329 58.6014 117.387 58.8515C117.445 59.1017 117.586 59.3248 117.787 59.4843C117.989 59.6439 118.238 59.7305 118.495 59.73C118.643 59.7301 118.789 59.7011 118.925 59.6444C119.062 59.5878 119.186 59.5047 119.29 59.4C119.321 59.6812 119.456 59.9407 119.668 60.1276C119.881 60.3145 120.155 60.4153 120.438 60.4103C120.721 60.4053 120.992 60.2948 121.197 60.1005C121.403 59.9062 121.529 59.6421 121.55 59.36C121.664 59.3994 121.784 59.4213 121.905 59.425C122.207 59.425 122.497 59.3049 122.711 59.0911C122.925 58.8773 123.045 58.5873 123.045 58.285C123.045 57.9826 122.925 57.6927 122.711 57.4789C122.497 57.2651 122.207 57.145 121.905 57.145H121.915Z" stroke="#38A1FF" stroke-linecap="round" stroke-linejoin="round"/>
    <path d="M119.975 58.83C120.411 58.83 120.765 58.4763 120.765 58.04C120.765 57.6037 120.411 57.25 119.975 57.25C119.539 57.25 119.185 57.6037 119.185 58.04C119.185 58.4763 119.539 58.83 119.975 58.83Z" stroke="#38A1FF" stroke-linecap="round" stroke-linejoin="round"/>
    <path d="M146.34 64.34C146.251 64.3415 146.162 64.3532 146.075 64.375C146.188 64.2702 146.277 64.1433 146.338 64.0021C146.399 63.861 146.431 63.7088 146.43 63.555C146.444 63.2578 146.34 62.9672 146.142 62.7456C145.943 62.5239 145.666 62.3891 145.369 62.3701C145.072 62.3511 144.779 62.4494 144.554 62.6439C144.329 62.8384 144.189 63.1135 144.165 63.41C144.092 63.2565 143.985 63.1213 143.853 63.0145C143.721 62.9077 143.566 62.832 143.4 62.793C143.235 62.754 143.063 62.7527 142.897 62.7892C142.731 62.8256 142.575 62.899 142.441 63.0038C142.307 63.1085 142.198 63.2421 142.123 63.3945C142.047 63.5469 142.007 63.7144 142.005 63.8844C142.003 64.0544 142.039 64.2228 142.111 64.3769C142.183 64.5311 142.289 64.6671 142.42 64.775C142.232 64.8664 142.074 65.0085 141.962 65.1852C141.851 65.3619 141.791 65.5662 141.79 65.775C141.79 65.999 141.857 66.2179 141.981 66.4044C142.105 66.5908 142.281 66.7367 142.488 66.8236C142.694 66.9105 142.921 66.9347 143.141 66.8932C143.362 66.8517 143.565 66.7462 143.725 66.59C143.757 66.8713 143.892 67.1306 144.105 67.3171C144.318 67.5037 144.593 67.6039 144.876 67.5983C145.159 67.5927 145.429 67.4815 145.634 67.2867C145.84 67.0918 145.965 66.8273 145.985 66.545C146.099 66.5872 146.219 66.6092 146.34 66.61C146.642 66.61 146.932 66.4899 147.146 66.2761C147.36 66.0623 147.48 65.7724 147.48 65.47C147.48 65.1677 147.36 64.8777 147.146 64.6639C146.932 64.4501 146.642 64.33 146.34 64.33V64.34Z" stroke="#38A1FF" stroke-linecap="round" stroke-linejoin="round"/>
    <path d="M144.4 66.0249C144.836 66.0249 145.19 65.6713 145.19 65.2349C145.19 64.7986 144.836 64.4449 144.4 64.4449C143.964 64.4449 143.61 64.7986 143.61 65.2349C143.61 65.6713 143.964 66.0249 144.4 66.0249Z" stroke="#38A1FF" stroke-linecap="round" stroke-linejoin="round"/>
    <path d="M131.5 79C132.136 77.2706 132.917 75.598 133.835 74C135 72.165 139.165 71.835 139.165 71.835C139.165 71.835 137 75.335 136 77C135 78.665 131.5 79 131.5 79Z" stroke="#38A1FF" stroke-linecap="round" stroke-linejoin="round"/>
    <path d="M131.5 79C131.5 79 134.665 74.5 138.335 72.335" stroke="#38A1FF" stroke-linecap="round" stroke-linejoin="round"/>
    <path d="M83.4348 95.22C85.2319 94.8128 87.06 94.5569 88.8998 94.455C91.0698 94.455 93.6248 97.745 93.6248 97.745C93.6248 97.745 89.5048 97.835 87.5648 97.905C85.6248 97.975 83.4348 95.22 83.4348 95.22Z" stroke="#38A1FF" stroke-linecap="round" stroke-linejoin="round"/>
    <path d="M83.4348 95.22C83.4348 95.22 88.9348 95.425 92.7498 97.315" stroke="#38A1FF" stroke-linecap="round" stroke-linejoin="round"/>
    <path d="M157.615 91.415C157.615 91.415 156.805 87.65 155.04 87.87C153.275 88.09 154.7 92.52 154.7 92.52C154.7 92.52 152.38 93.18 152.49 94.175C152.6 95.17 154.25 94.34 155.68 94.12C155.68 94.12 155.105 96.705 156.65 97.12C158.195 97.535 157.9 93.71 157.9 93.71C157.9 93.71 161.35 94.415 162.32 92.87C163.445 91.095 159.05 91.19 157.615 91.415Z" stroke="#38A1FF" stroke-linecap="round" stroke-linejoin="round"/>
    <path d="M157.615 90.255C157.615 90.255 154.395 95.15 154.585 95.665C154.775 96.18 158.26 91.415 158.84 90.835C159.42 90.255 158.39 89.415 157.615 90.255Z" fill="#263238" stroke="#38A1FF" stroke-linecap="round" stroke-linejoin="round"/>
    <path d="M158.84 90.835C158.84 90.835 160.965 88.9 161.995 89.675C163.025 90.45 161.805 90.575 161.675 90.32" stroke="#38A1FF" stroke-linecap="round" stroke-linejoin="round"/>
    <path d="M157.81 89.865C157.81 89.865 158.39 87.03 157.745 86.45C157.1 85.87 156.84 86.645 157.295 87.095" stroke="#38A1FF" stroke-linecap="round" stroke-linejoin="round"/>
    <path d="M127 67.7799C125.28 65.2799 122.62 67.7149 121.905 68.4599C121.185 67.7149 118.525 65.2699 116.805 67.7799C114.93 70.5049 121.84 76.1849 121.905 76.1599C121.97 76.1349 128.865 70.4999 127 67.7799Z" stroke="#38A1FF" stroke-linecap="round" stroke-linejoin="round"/>
    <path d="M103.135 58.03C101.355 56.97 100.41 59.235 100.175 59.895C99.5199 59.64 97.1749 58.895 96.8299 60.925C96.4499 63.14 102.33 64.69 102.365 64.655C102.4 64.62 105.065 59.18 103.135 58.03Z" stroke="#38A1FF" stroke-linecap="round" stroke-linejoin="round"/>
    <path d="M86.5398 78.65C84.4748 78.495 84.6348 80.945 84.7248 81.65C84.0248 81.715 81.5948 82.08 82.1898 84.06C82.8348 86.215 88.7948 84.975 88.8048 84.93C88.8148 84.885 88.7798 78.82 86.5398 78.65Z" stroke="#38A1FF" stroke-linecap="round" stroke-linejoin="round"/>
    <path d="M152.085 111.04C153.725 109.775 151.97 108.04 151.44 107.6C151.94 107.1 153.485 105.19 151.72 104.1C149.8 102.925 146.19 107.825 146.22 107.865C146.25 107.905 150.305 112.41 152.085 111.04Z" stroke="#38A1FF" stroke-linecap="round" stroke-linejoin="round"/>
    <path d="M142.525 77.39C143.645 76.3503 144.898 75.4626 146.25 74.75" stroke="#38A1FF" stroke-linecap="round" stroke-linejoin="round"/>
    <path d="M133.25 97.4999C133.25 97.4999 134.42 87.5449 139.9 80.2949" stroke="#38A1FF" stroke-linecap="round" stroke-linejoin="round"/>
    <path d="M118.47 101.725C118.943 102.457 119.37 103.216 119.75 104" stroke="#38A1FF" stroke-linecap="round" stroke-linejoin="round"/>
    <path d="M99.855 89.91C100.575 90.4849 101.384 90.9376 102.25 91.25C106.205 92.75 111.725 94.25 116.02 98.66" stroke="#38A1FF" stroke-linecap="round" stroke-linejoin="round"/>
    <path d="M97.9998 85.25C97.8053 86.2987 97.9821 87.3825 98.4998 88.315" stroke="#38A1FF" stroke-linecap="round" stroke-linejoin="round"/>
    <path d="M144.205 59.28C145.462 58.1378 146.494 56.7711 147.25 55.25" stroke="#38A1FF" stroke-linecap="round" stroke-linejoin="round"/>
    <path d="M129.39 73.8899C130.204 71.844 131.338 69.9403 132.75 68.2499C135.595 64.8649 138.66 63.2499 141.385 61.4249" stroke="#38A1FF" stroke-linecap="round" stroke-linejoin="round"/>
    <path d="M127.75 82C127.75 80.8258 127.859 79.6541 128.075 78.5" stroke="#38A1FF" stroke-linecap="round" stroke-linejoin="round"/>
    <path d="M143.34 102.29C145.42 101.24 148.34 100.45 152.25 100.75C162 101.5 166.5 104.5 170.75 98.75" stroke="#38A1FF" stroke-linecap="round" stroke-linejoin="round"/>
    <path d="M139 106C139.449 105.306 139.994 104.68 140.62 104.14" stroke="#38A1FF" stroke-linecap="round" stroke-linejoin="round"/>
    <path d="M159.73 79.675H158.395C157.59 79.675 156.12 78.74 156.79 77.935C157.46 77.13 159.73 79.005 159.73 79.005L157.73 72.72L162.01 70.72L163.75 76.605C163.75 76.605 161.075 75.535 160.805 76.735C160.535 77.935 162.545 77.805 163.75 77.27" stroke="#38A1FF" stroke-linecap="round" stroke-linejoin="round"/>
    <path d="M158.125 74.055L162.27 72.05" stroke="#38A1FF" stroke-linecap="round" stroke-linejoin="round"/>
    <path d="M168.925 77.675H168.045C167.51 77.675 166.545 77.055 166.98 76.525C167.415 75.995 168.925 77.23 168.925 77.23L167.6 73.075L170.43 71.75L171.58 75.64C171.58 75.64 169.81 74.935 169.635 75.73C169.46 76.525 170.785 76.435 171.58 76.08" stroke="#38A1FF" stroke-linecap="round" stroke-linejoin="round"/>
    <path d="M167.865 73.96L170.605 72.635" stroke="#38A1FF" stroke-linecap="round" stroke-linejoin="round"/>
    <path d="M91.1749 73.175H90.2949C89.7599 73.175 88.7949 72.555 89.2299 72.025C89.6649 71.495 91.1749 72.73 91.1749 72.73L89.8499 68.575L92.6799 67.25L93.8299 71.14C93.8299 71.14 92.0599 70.435 91.8849 71.23C91.7099 72.025 93.0349 71.935 93.8299 71.58" stroke="#38A1FF" stroke-linecap="round" stroke-linejoin="round"/>
    <path d="M90.115 69.46L92.855 68.135" stroke="#38A1FF" stroke-linecap="round" stroke-linejoin="round"/>
    <path d="M175 87.23C175 87.23 178.62 86.14 178.045 84C177.545 82.19 175.855 84 175.855 84C175.855 84 176.905 82.3 175.355 81.5C173.805 80.7 173.355 82.89 173.355 82.89C173.355 82.89 173.045 80.86 171.635 81.795C170.225 82.73 173.2 87.74 173.2 87.74L175 87.23Z" stroke="#38A1FF" stroke-linecap="round" stroke-linejoin="round"/>
    <path d="M170.36 94.955C171.776 92.7701 172.733 90.3207 173.175 87.755L174.715 82.995" stroke="#38A1FF" stroke-linecap="round" stroke-linejoin="round"/>
    <path d="M172.235 91.2C172.385 90.215 172.162 89.2093 171.61 88.38C171.058 87.4527 170.374 86.6106 169.58 85.88C169.58 85.88 169.11 87.6 169.42 88.695C169.73 89.79 172.235 91.2 172.235 91.2Z" stroke="#38A1FF" stroke-linecap="round" stroke-linejoin="round"/>
    <path d="M171.77 92.45C172.378 91.9276 173.159 91.6496 173.96 91.67H176.93C176.93 91.67 173.175 94.64 171.77 92.45Z" stroke="#38A1FF" stroke-linecap="round" stroke-linejoin="round"/>
    <path d="M172.695 83.8L173.165 87.5L175.79 85.55" stroke="#38A1FF" stroke-linecap="round" stroke-linejoin="round"/>
    <path d="M90.7349 103.365C90.7349 103.365 88.3649 100.425 86.5999 101.76C85.0999 102.895 87.4249 103.79 87.4249 103.79C87.4249 103.79 85.4499 103.46 85.3149 105.205C85.1799 106.95 87.3499 106.5 87.3499 106.5C87.3499 106.5 85.5849 107.555 86.9849 108.5C88.3849 109.445 91.9049 104.81 91.9049 104.81L90.7349 103.365Z" stroke="#38A1FF" stroke-linecap="round" stroke-linejoin="round"/>
    <path d="M99.63 104.74C97.0749 104.249 94.4466 104.283 91.905 104.84L86.905 105.21" stroke="#38A1FF" stroke-linecap="round" stroke-linejoin="round"/>
    <path d="M95.445 104.415C94.4768 104.647 93.63 105.232 93.07 106.055C92.419 106.916 91.8969 107.868 91.52 108.88C91.52 108.88 93.29 108.67 94.185 107.965C95.08 107.26 95.445 104.415 95.445 104.415Z" stroke="#38A1FF" stroke-linecap="round" stroke-linejoin="round"/>
    <path d="M96.78 104.38C96.066 104.014 95.5136 103.396 95.23 102.645C94.705 101.34 94.115 99.89 94.115 99.89C94.115 99.89 98.28 102.25 96.78 104.38Z" stroke="#38A1FF" stroke-linecap="round" stroke-linejoin="round"/>
    <path d="M88.4199 106.775L91.6699 104.945L88.8749 103.25" stroke="#38A1FF" stroke-linecap="round" stroke-linejoin="round"/>
    <path d="M114.92 90.7949C114.77 90.4533 114.603 90.1195 114.42 89.7949C113.525 88.1499 112.21 86.7049 110.145 86.9999C106.645 87.4999 113.145 92.9999 114.315 93.1649C115.755 93.3699 115.385 91.9049 114.92 90.7949Z" fill="#38A1FF"/>
    <path d="M112.255 70.13C112.075 69.705 111.885 69.335 111.755 69.13C110.855 67.48 109.545 66.04 107.48 66.335C103.98 66.835 110.48 72.335 111.65 72.5C113.09 72.705 112.72 71.235 112.255 70.13Z" fill="#38A1FF"/>
    <path d="M147.435 92.825C146.99 92.955 146.6 93.105 146.385 93.19C144.645 93.89 143.06 95.03 143.115 97.115C143.21 100.65 149.42 94.825 149.72 93.68C150.085 92.295 148.585 92.5 147.435 92.825Z" fill="#38A1FF"/>
    <path d="M151.935 74.16C151.579 74.2633 151.228 74.3852 150.885 74.525C149.145 75.225 147.56 76.36 147.615 78.445C147.71 81.98 153.92 76.155 154.22 75.015C154.585 73.625 153.085 73.825 151.935 74.16Z" fill="#38A1FF"/>
    <path d="M177.56 73C177.205 73.1017 176.856 73.2236 176.515 73.365C174.775 74.065 173.19 75.2 173.245 77.285C173.34 80.82 179.55 74.995 179.85 73.855C180.215 72.45 178.715 72.65 177.56 73Z" fill="#38A1FF"/>
    <path d="M107.295 89.9999C107.226 89.8293 107.147 89.6624 107.06 89.4999C106.625 88.6999 105.985 87.9999 104.975 88.1349C103.265 88.3799 106.44 91.0649 107.01 91.1349C107.705 91.2549 107.525 90.5399 107.295 89.9999Z" fill="#38A1FF"/>
    <path d="M95.09 77.03C94.92 76.885 94.75 76.765 94.66 76.7C93.905 76.175 93.02 75.835 92.185 76.415C90.765 77.415 94.805 78.375 95.35 78.195C96 77.97 95.535 77.415 95.09 77.03Z" fill="#38A1FF"/>
    <path d="M113.13 83.165C113.061 82.9941 112.982 82.8272 112.895 82.665C112.455 81.86 111.815 81.165 110.81 81.3C109.1 81.545 112.275 84.225 112.845 84.3C113.535 84.425 113.355 83.705 113.13 83.165Z" fill="#38A1FF"/>
    <path d="M83.6949 71.9049C83.6265 71.7338 83.548 71.5668 83.4599 71.4049C83.0249 70.5999 82.3849 69.9049 81.3749 70.0399C79.6649 70.2849 82.8399 72.9699 83.4099 73.0399C84.1049 73.1599 83.9249 72.4449 83.6949 71.9049Z" fill="#38A1FF"/>
    <path d="M91.6498 89.42C91.4884 89.3221 91.3215 89.2336 91.1498 89.155C90.3298 88.755 89.3998 88.555 88.6498 89.255C87.3998 90.45 91.5448 90.79 92.0548 90.525C92.7148 90.205 92.1498 89.725 91.6498 89.42Z" fill="#38A1FF"/>
    <path d="M111.63 63.4999C111.56 63.3293 111.482 63.1624 111.395 62.9999C110.955 62.1999 110.315 61.4999 109.31 61.6349C107.6 61.8799 110.775 64.5649 111.345 64.6349C112.035 64.7549 111.855 64.0399 111.63 63.4999Z" fill="#38A1FF"/>
    <path d="M130.435 83.8199C130.3 83.9949 130.185 84.1649 130.125 84.2599C129.625 85.0299 129.32 85.9349 129.935 86.7599C130.975 88.1399 131.795 84.0649 131.59 83.5249C131.34 82.8549 130.8 83.3599 130.435 83.8199Z" fill="#38A1FF"/>
    <path d="M138.435 94.3199C138.3 94.4949 138.185 94.6649 138.125 94.7599C137.625 95.5299 137.32 96.4349 137.935 97.2599C138.975 98.6399 139.795 94.5649 139.59 94.0249C139.34 93.3549 138.8 93.8599 138.435 94.3199Z" fill="#38A1FF"/>
    <path d="M149.575 67C149.405 67.0461 149.239 67.1012 149.075 67.165C148.22 67.49 147.435 68.03 147.44 69.045C147.44 70.77 150.54 67.995 150.7 67.44C150.875 66.74 150.145 66.82 149.575 67Z" fill="#38A1FF"/>
    <path d="M130.265 60.715C130.105 60.87 129.965 61.02 129.89 61.105C129.285 61.79 128.84 62.635 129.325 63.53C130.14 65.03 131.57 61.15 131.455 60.59C131.31 59.9 130.695 60.315 130.265 60.715Z" fill="#38A1FF"/>
    <path d="M95.7899 96C95.9198 96.1243 96.0567 96.2411 96.1998 96.35C96.9248 96.915 97.7949 97.3 98.6599 96.765C100.125 95.86 96.1598 94.67 95.5898 94.825C94.9148 95 95.3649 95.585 95.7899 96Z" fill="#38A1FF"/>
    <path d="M158.26 67.1849C158.04 67.1849 157.835 67.1849 157.72 67.1849C156.805 67.2399 155.895 67.5199 155.595 68.4899C155.095 70.1399 158.87 68.4149 159.185 67.9349C159.57 67.3499 158.85 67.2099 158.26 67.1849Z" fill="#38A1FF"/>
    </svg>
    