<svg width="500" height="500" viewBox="0 0 500 500" fill="none" xmlns="http://www.w3.org/2000/svg">
<path d="M253.55 481.68C385.369 481.68 492.23 426.974 492.23 359.49C492.23 292.006 385.369 237.3 253.55 237.3C121.731 237.3 14.8701 292.006 14.8701 359.49C14.8701 426.974 121.731 481.68 253.55 481.68Z" fill="#FAFAFA"/>
<path d="M389.62 438.37C425.535 438.37 454.65 420.385 454.65 398.2C454.65 376.015 425.535 358.03 389.62 358.03C353.705 358.03 324.59 376.015 324.59 398.2C324.59 420.385 353.705 438.37 389.62 438.37Z" fill="#E0E0E0"/>
<path d="M235.25 326.12L193.58 302.07C192.888 301.715 192.122 301.531 191.345 301.531C190.568 301.531 189.802 301.715 189.11 302.07L51.0001 381.82C50.7295 381.91 50.4941 382.083 50.3273 382.315C50.1605 382.547 50.0708 382.825 50.0708 383.11C50.0708 383.395 50.1605 383.673 50.3273 383.905C50.4941 384.136 50.7295 384.31 51.0001 384.4L92.6601 408.46C93.3541 408.807 94.1193 408.987 94.8951 408.987C95.6709 408.987 96.4361 408.807 97.1301 408.46L109.44 401.35L222.93 336L235.26 328.75C235.539 328.66 235.782 328.484 235.954 328.247C236.126 328.01 236.218 327.724 236.217 327.431C236.215 327.138 236.121 326.854 235.947 326.618C235.774 326.382 235.529 326.208 235.25 326.12Z" fill="#E0E0E0"/>
<path d="M422.57 383.26L416.13 379.84C416.13 379.84 416.76 348.4 423.28 324.05C429.96 299.12 449.4 271.58 467.77 281.9C486.14 292.22 453.49 313.43 443.67 333.9C433.85 354.37 422.57 383.26 422.57 383.26Z" fill="#38A1FF"/>
<path opacity="0.15" d="M422.57 383.26L416.13 379.84C416.13 379.84 416.76 348.4 423.28 324.05C429.96 299.12 449.4 271.58 467.77 281.9C486.14 292.22 453.49 313.43 443.67 333.9C433.85 354.37 422.57 383.26 422.57 383.26Z" fill="black"/>
<path d="M421.72 375.8C421.635 375.797 421.551 375.778 421.473 375.743C421.395 375.708 421.325 375.658 421.266 375.596C421.208 375.533 421.162 375.46 421.132 375.38C421.102 375.3 421.087 375.215 421.09 375.13C422.47 326.34 443.8 296.55 461.65 285.87C461.799 285.781 461.976 285.755 462.144 285.797C462.312 285.839 462.456 285.946 462.545 286.095C462.634 286.244 462.66 286.421 462.618 286.589C462.576 286.757 462.469 286.901 462.32 286.99C444.75 297.5 423.76 326.9 422.39 375.16C422.389 375.246 422.37 375.331 422.336 375.41C422.301 375.489 422.252 375.561 422.189 375.62C422.127 375.68 422.053 375.726 421.973 375.757C421.892 375.788 421.806 375.803 421.72 375.8Z" fill="white"/>
<path d="M425.48 384.76L419.73 381.81C419.73 381.81 420.44 366.37 432.27 346.25C442.77 328.38 464.05 314.38 472.99 319.37C479.93 323.23 481.53 331.69 474.88 337.32C468.23 342.95 437.53 354.76 425.48 384.76Z" fill="#38A1FF"/>
<path d="M423.17 379.83C424.17 380.03 424.52 377.56 424.72 376.93C425.1 375.75 425.5 374.59 425.94 373.43C426.801 371.174 427.779 368.964 428.87 366.81C430.97 362.666 433.43 358.714 436.22 355C438.828 351.523 441.671 348.228 444.73 345.14C447.49 342.363 450.394 339.733 453.43 337.26C455.97 335.18 458.61 333.21 461.32 331.36C463.32 330 465.32 328.7 467.41 327.48C468.5 326.84 469.59 326.21 470.72 325.63L471.04 325.47C471.219 325.382 471.356 325.227 471.421 325.039C471.485 324.85 471.473 324.644 471.385 324.465C471.298 324.286 471.143 324.149 470.954 324.084C470.766 324.02 470.559 324.032 470.38 324.12C469.68 324.46 469.01 324.84 468.38 325.22C466.62 326.22 464.9 327.22 463.21 328.34C460.703 329.96 458.257 331.673 455.87 333.48C452.91 335.72 450.067 338.097 447.34 340.61C444.232 343.456 441.306 346.496 438.58 349.71C435.625 353.175 432.95 356.87 430.58 360.76C428.06 364.877 425.949 369.231 424.28 373.76C423.967 374.633 423.667 375.503 423.38 376.37C422.96 377.235 422.705 378.171 422.63 379.13C422.642 379.282 422.697 379.428 422.787 379.552C422.877 379.675 422.999 379.772 423.14 379.83H423.17Z" fill="white"/>
<path d="M96.8401 355.84C96.8401 355.84 97.0001 336.23 89.2901 320C81.5801 303.77 69.5201 292.79 57.2901 290.28C45.0601 287.77 33.7801 297.87 45.9801 307.28C58.1801 316.69 80.5901 327.58 87.7501 358.06L96.8401 355.84Z" fill="#38A1FF"/>
<path opacity="0.15" d="M96.8401 355.84C96.8401 355.84 97.0001 336.23 89.2901 320C81.5801 303.77 69.5201 292.79 57.2901 290.28C45.0601 287.77 33.7801 297.87 45.9801 307.28C58.1801 316.69 80.5901 327.58 87.7501 358.06L96.8401 355.84Z" fill="black"/>
<path d="M91.74 352.45C91.6124 352.45 91.4896 352.402 91.3966 352.314C91.3036 352.227 91.2476 352.107 91.24 351.98C89.36 320.59 63.5 300.18 50.72 296.7C50.5931 296.665 50.4851 296.581 50.4196 296.467C50.3541 296.353 50.3362 296.217 50.37 296.09C50.4051 295.961 50.49 295.85 50.606 295.783C50.7221 295.715 50.86 295.696 50.99 295.73C63.99 299.28 90.33 320.03 92.24 351.92C92.2431 352.051 92.1964 352.179 92.1092 352.277C92.022 352.376 91.9008 352.437 91.77 352.45H91.74Z" fill="white"/>
<path d="M98.42 382.76C100.897 379.634 102.56 375.942 103.258 372.015C103.956 368.087 103.668 364.048 102.42 360.26C101.694 357.972 100.533 355.847 99 354C97.77 352.55 96 351.8 94.56 350.59C91.46 348.02 87.86 345.29 86.74 341.21C85.84 337.96 86.03 334.88 84.23 331.83C83.1694 329.92 81.4805 328.436 79.45 327.63C76.8 326.63 73.88 327.29 71.08 327.63C67.08 328.08 64.08 326.7 60.62 324.86C56.81 322.86 52.36 321.28 48.23 322.51C46.8868 322.908 45.6423 323.584 44.5769 324.493C43.5116 325.403 42.6493 326.527 42.0459 327.791C41.4425 329.055 41.1115 330.432 41.0743 331.833C41.0371 333.233 41.2946 334.626 41.83 335.92C42.75 338.16 44.45 339.98 45.7 342.06C46.95 344.14 47.61 346.52 46.7 348.79C46 350.47 44.7 351.79 44.18 353.5C42.7 358 43.53 362 48 364.32C52.67 366.71 60 364.91 62.34 370.78C63.22 373.01 63.25 375.48 63.73 377.83C64.7152 382.559 67.465 386.736 71.42 389.51C76.79 393.24 84.08 392.33 89.65 389.73C93.072 388.115 96.0737 385.729 98.42 382.76Z" fill="#38A1FF"/>
<path d="M56.32 354.36C56.4293 354.379 56.5416 354.361 56.64 354.31C60.5787 352.788 64.8055 352.156 69.0172 352.46C73.2289 352.764 77.3211 353.997 81 356.07C81.126 356.137 81.2736 356.152 81.4104 356.111C81.5473 356.07 81.6622 355.976 81.73 355.85C81.7651 355.789 81.7875 355.721 81.796 355.65C81.8044 355.58 81.7987 355.509 81.7791 355.441C81.7595 355.373 81.7265 355.309 81.682 355.254C81.6375 355.199 81.5824 355.153 81.52 355.12C77.6978 352.974 73.4475 351.701 69.0747 351.393C64.7018 351.085 60.3151 351.75 56.23 353.34C56.1339 353.393 56.0562 353.473 56.007 353.571C55.9579 353.669 55.9397 353.78 55.9549 353.888C55.9701 353.997 56.018 354.098 56.0921 354.179C56.1662 354.26 56.2631 354.316 56.37 354.34L56.32 354.36Z" fill="white"/>
<path d="M91.2402 382.93C91.1092 382.933 90.9825 382.884 90.8871 382.794C90.7917 382.704 90.7354 382.581 90.7302 382.45C89.8002 359.85 67.1102 335.95 51.9002 329.45C51.8387 329.425 51.7829 329.388 51.736 329.341C51.6891 329.294 51.652 329.238 51.6268 329.177C51.6017 329.115 51.589 329.049 51.5896 328.983C51.5902 328.917 51.604 328.851 51.6302 328.79C51.6849 328.667 51.7861 328.571 51.9116 328.522C52.0371 328.473 52.1768 328.476 52.3002 328.53C67.7502 335.15 90.7902 359.45 91.7402 382.43C91.7428 382.497 91.7323 382.564 91.7091 382.627C91.6859 382.69 91.6506 382.747 91.6051 382.797C91.5595 382.846 91.5048 382.886 91.4439 382.914C91.383 382.942 91.3172 382.957 91.2502 382.96L91.2402 382.93Z" fill="white"/>
<path d="M216.48 60L103.3 125.32C102.179 126.052 101.248 127.038 100.582 128.2C99.9165 129.361 99.5354 130.663 99.4702 132V398.53C99.4702 400.97 101.19 401.96 103.3 400.73L216.48 335.39C217.593 334.66 218.52 333.679 219.185 332.526C219.85 331.372 220.236 330.079 220.31 328.75V62.18C220.31 59.74 218.59 58.74 216.48 60ZM214.8 309C214.8 311.09 213.33 312.42 211.52 313.46L107.88 373.32C106.08 374.32 104.6 373.52 104.6 371.42V149.77C104.601 148.624 104.903 147.498 105.477 146.506C106.051 145.514 106.877 144.691 107.87 144.12L211.51 84.25C211.843 84.0568 212.22 83.9546 212.605 83.9537C212.99 83.9528 213.368 84.0531 213.701 84.2447C214.035 84.4363 214.312 84.7123 214.505 85.045C214.698 85.3777 214.8 85.7554 214.8 86.14V309Z" fill="#455A64"/>
<path d="M214.8 309C214.8 311.09 213.33 312.42 211.52 313.46L107.88 373.32C106.08 374.32 104.6 373.52 104.6 371.42V149.77C104.6 148.624 104.903 147.498 105.477 146.506C106.051 145.514 106.877 144.691 107.87 144.12L211.51 84.25C211.843 84.0568 212.22 83.9546 212.605 83.9537C212.989 83.9528 213.368 84.0531 213.701 84.2447C214.035 84.4363 214.312 84.7123 214.505 85.045C214.698 85.3777 214.799 85.7554 214.8 86.14V309Z" fill="#263238"/>
<path d="M107.88 373.32L211.52 313.48C212.248 313.087 212.92 312.599 213.52 312.03L104.6 250.69V371.42C104.6 373.52 106.08 374.36 107.88 373.32Z" fill="#37474F"/>
<path d="M206.41 305.11V87.2L107.87 144.12C106.877 144.691 106.051 145.514 105.477 146.506C104.903 147.498 104.6 148.624 104.6 149.77V366.46L203.13 309.57C204.94 308.53 206.41 307.2 206.41 305.11Z" fill="#38A1FF"/>
<path d="M102.82 401C101.677 401.482 100.443 401.71 99.2038 401.669C97.9642 401.627 96.7483 401.317 95.6402 400.76L91.2602 398.23C90.1425 397.506 89.2119 396.528 88.5445 395.376C87.8771 394.224 87.4918 392.93 87.4202 391.6V125C87.4454 124.012 87.6699 123.039 88.0802 122.14C88.2202 121.83 88.3702 121.53 88.5402 121.22L100.54 128.22C100.288 128.671 100.067 129.139 99.8802 129.62C99.5889 130.377 99.4299 131.179 99.4102 131.99V398.53C99.4702 400.78 100.93 401.8 102.82 401Z" fill="#263238"/>
<path d="M163.27 347.3C165.72 347.3 165.98 350.05 165.98 351.23C165.834 353.594 165.141 355.892 163.956 357.943C162.77 359.994 161.126 361.742 159.15 363.05C158.358 363.553 157.448 363.843 156.51 363.89C154.06 363.89 153.8 361.14 153.8 359.96C153.948 357.596 154.64 355.298 155.823 353.245C157.007 351.193 158.648 349.442 160.62 348.13C161.42 347.634 162.331 347.349 163.27 347.3Z" fill="#38A1FF"/>
<path d="M159.81 96.91C160.81 96.31 161.68 96.79 161.68 97.99C161.644 98.6387 161.456 99.2699 161.131 99.8326C160.806 100.395 160.354 100.874 159.81 101.23C158.81 101.82 157.93 101.34 157.93 100.15C157.964 99.4996 158.153 98.8667 158.48 98.3033C158.806 97.74 159.263 97.2625 159.81 96.91Z" fill="#263238"/>
<path d="M147.73 112.7C148.65 112.17 149.39 112.6 149.39 113.7C149.36 114.275 149.193 114.835 148.905 115.334C148.616 115.833 148.214 116.257 147.73 116.57C146.81 117.1 146.07 116.67 146.07 115.57C146.102 114.995 146.269 114.435 146.557 113.937C146.846 113.438 147.248 113.015 147.73 112.7Z" fill="#263238"/>
<path d="M153.28 109.42L171.87 98.69C172.87 98.1 173.71 98.52 173.71 99.62C173.661 100.238 173.47 100.836 173.151 101.367C172.831 101.898 172.393 102.347 171.87 102.68L153.28 113.41C152.28 114 151.44 113.58 151.44 112.48C151.489 111.862 151.68 111.264 152 110.733C152.319 110.202 152.757 109.753 153.28 109.42Z" fill="#263238"/>
<path d="M220.27 61.57C219.99 59.57 218.4 58.86 216.49 59.97L103.29 125.32C102.157 126.023 101.227 127.009 100.59 128.18L88.5901 121.18C89.2369 120.018 90.1697 119.041 91.3001 118.34L204.43 53C205.617 52.3982 206.929 52.0846 208.26 52.0846C209.591 52.0846 210.903 52.3982 212.09 53L216.49 55.52C217.515 56.2002 218.383 57.0921 219.035 58.1356C219.687 59.1792 220.108 60.3502 220.27 61.57Z" fill="#37474F"/>
<path d="M190.58 69.66C189.993 69.9737 189.339 70.1437 188.674 70.1558C188.008 70.168 187.349 70.0221 186.75 69.73C186.55 69.6445 186.376 69.5064 186.248 69.3304C186.119 69.1544 186.041 68.947 186.02 68.73C186.02 68.45 186.02 67.41 186.02 67.12C186.052 66.8705 186.148 66.6334 186.299 66.432C186.45 66.2305 186.65 66.0713 186.88 65.97L199.01 58.97C199.6 58.6585 200.255 58.4899 200.922 58.4777C201.589 58.4655 202.249 58.6102 202.85 58.9C203.047 58.9895 203.217 59.1288 203.343 59.3042C203.47 59.4796 203.548 59.685 203.57 59.9C203.57 60.19 203.57 61.27 203.57 61.55C203.539 61.801 203.443 62.0397 203.293 62.2429C203.142 62.4461 202.941 62.607 202.71 62.71L190.58 69.66Z" fill="#38A1FF"/>
<path opacity="0.25" d="M190.58 69.66C189.993 69.9737 189.339 70.1437 188.674 70.1558C188.008 70.168 187.349 70.0221 186.75 69.73C186.55 69.6445 186.376 69.5064 186.248 69.3304C186.119 69.1544 186.041 68.947 186.02 68.73C186.02 68.45 186.02 67.41 186.02 67.12C186.052 66.8705 186.148 66.6334 186.299 66.432C186.45 66.2305 186.65 66.0713 186.88 65.97L199.01 58.97C199.6 58.6585 200.255 58.4899 200.922 58.4777C201.589 58.4655 202.249 58.6102 202.85 58.9C203.047 58.9895 203.217 59.1288 203.343 59.3042C203.47 59.4796 203.548 59.685 203.57 59.9C203.57 60.19 203.57 61.27 203.57 61.55C203.539 61.801 203.443 62.0397 203.293 62.2429C203.142 62.4461 202.941 62.607 202.71 62.71L190.58 69.66Z" fill="black"/>
<path d="M190.58 68.07L202.71 61.07C203.81 60.43 203.86 59.44 202.84 58.85C202.239 58.5602 201.579 58.4156 200.912 58.4277C200.245 58.4399 199.59 58.6085 199 58.92L186.87 65.92C185.78 66.55 185.72 67.54 186.75 68.13C187.348 68.4213 188.007 68.5676 188.672 68.5572C189.338 68.5467 189.991 68.3799 190.58 68.07Z" fill="#38A1FF"/>
<path opacity="0.3" d="M190.58 68.07L202.71 61.07C203.81 60.43 203.86 59.44 202.84 58.85C202.239 58.5602 201.579 58.4156 200.912 58.4277C200.245 58.4399 199.59 58.6085 199 58.92L186.87 65.92C185.78 66.55 185.72 67.54 186.75 68.13C187.348 68.4213 188.007 68.5676 188.672 68.5572C189.338 68.5467 189.991 68.3799 190.58 68.07Z" fill="black"/>
<path d="M95.0002 165.17C94.9765 164.504 94.7956 163.854 94.4724 163.272C94.1491 162.689 93.6926 162.192 93.1402 161.82C92.9593 161.686 92.7449 161.605 92.5207 161.586C92.2966 161.566 92.0715 161.609 91.8702 161.71C91.6402 161.85 90.7202 162.36 90.4802 162.51C90.2794 162.662 90.1214 162.864 90.0215 163.095C89.9216 163.326 89.8833 163.579 89.9102 163.83V193.55C89.9344 194.214 90.1144 194.864 90.4358 195.446C90.7572 196.027 91.2108 196.526 91.7602 196.9C91.941 197.022 92.15 197.095 92.3672 197.112C92.5843 197.13 92.8023 197.091 93.0002 197C93.2602 196.87 94.1902 196.33 94.4402 196.18C94.6411 196.028 94.7991 195.826 94.899 195.595C94.9989 195.364 95.0372 195.11 95.0102 194.86L95.0002 165.17Z" fill="#38A1FF"/>
<path opacity="0.3" d="M95.0002 165.17C94.9765 164.504 94.7956 163.854 94.4724 163.272C94.1491 162.689 93.6926 162.192 93.1402 161.82C92.9593 161.686 92.7449 161.605 92.5207 161.586C92.2966 161.566 92.0715 161.609 91.8702 161.71C91.6402 161.85 90.7202 162.36 90.4802 162.51C90.2794 162.662 90.1214 162.864 90.0215 163.095C89.9216 163.326 89.8833 163.579 89.9102 163.83V193.55C89.9344 194.214 90.1144 194.864 90.4358 195.446C90.7572 196.027 91.2108 196.526 91.7602 196.9C91.941 197.022 92.15 197.095 92.3672 197.112C92.5843 197.13 92.8023 197.091 93.0002 197C93.2602 196.87 94.1902 196.33 94.4402 196.18C94.6411 196.028 94.7991 195.826 94.899 195.595C94.9989 195.364 95.0372 195.11 95.0102 194.86L95.0002 165.17Z" fill="black"/>
<path d="M93.6206 166V195.72C93.6206 196.98 92.7906 197.52 91.7606 196.93C91.2113 196.556 90.7576 196.057 90.4362 195.476C90.1148 194.894 89.9348 194.244 89.9106 193.58V163.83C89.9106 162.56 90.7406 162.02 91.7606 162.61C92.3172 162.987 92.7762 163.491 93.0996 164.081C93.423 164.67 93.6016 165.328 93.6206 166Z" fill="#38A1FF"/>
<path opacity="0.4" d="M93.6206 166V195.72C93.6206 196.98 92.7906 197.52 91.7606 196.93C91.2113 196.556 90.7576 196.057 90.4362 195.476C90.1148 194.894 89.9348 194.244 89.9106 193.58V163.83C89.9106 162.56 90.7406 162.02 91.7606 162.61C92.3172 162.987 92.7762 163.491 93.0996 164.081C93.423 164.67 93.6016 165.328 93.6206 166Z" fill="black"/>
<path d="M95.0002 205C94.9765 204.334 94.7956 203.684 94.4724 203.102C94.1491 202.519 93.6926 202.022 93.1402 201.65C92.9593 201.516 92.7449 201.435 92.5207 201.416C92.2966 201.397 92.0715 201.439 91.8702 201.54C91.6402 201.68 90.7202 202.19 90.4802 202.34C90.2794 202.492 90.1214 202.694 90.0215 202.925C89.9216 203.156 89.8833 203.409 89.9102 203.66V217.66C89.9359 218.323 90.1167 218.97 90.438 219.55C90.7593 220.13 91.2122 220.627 91.7602 221C91.9351 221.129 92.1413 221.21 92.3575 221.232C92.5738 221.255 92.7922 221.22 92.9902 221.13C93.2502 221 94.1802 220.46 94.4302 220.31C94.6303 220.159 94.7879 219.96 94.8878 219.73C94.9877 219.5 95.0264 219.249 95.0002 219V205Z" fill="#38A1FF"/>
<path opacity="0.3" d="M95.0002 205C94.9765 204.334 94.7956 203.684 94.4724 203.102C94.1491 202.519 93.6926 202.022 93.1402 201.65C92.9593 201.516 92.7449 201.435 92.5207 201.416C92.2966 201.397 92.0715 201.439 91.8702 201.54C91.6402 201.68 90.7202 202.19 90.4802 202.34C90.2794 202.492 90.1214 202.694 90.0215 202.925C89.9216 203.156 89.8833 203.409 89.9102 203.66V217.66C89.9359 218.323 90.1167 218.97 90.438 219.55C90.7593 220.13 91.2122 220.627 91.7602 221C91.9351 221.129 92.1413 221.21 92.3575 221.232C92.5738 221.255 92.7922 221.22 92.9902 221.13C93.2502 221 94.1802 220.46 94.4302 220.31C94.6303 220.159 94.7879 219.96 94.8878 219.73C94.9877 219.5 95.0264 219.249 95.0002 219V205Z" fill="black"/>
<path d="M93.6206 205.75V219.75C93.6206 221.01 92.7906 221.56 91.7606 220.96C91.2113 220.586 90.7576 220.087 90.4362 219.506C90.1148 218.924 89.9348 218.274 89.9106 217.61V203.61C89.9106 202.35 90.7406 201.8 91.7606 202.39C92.3121 202.765 92.7677 203.265 93.0908 203.848C93.4138 204.432 93.5953 205.083 93.6206 205.75Z" fill="#38A1FF"/>
<path opacity="0.4" d="M93.6206 205.75V219.75C93.6206 221.01 92.7906 221.56 91.7606 220.96C91.2113 220.586 90.7576 220.087 90.4362 219.506C90.1148 218.924 89.9348 218.274 89.9106 217.61V203.61C89.9106 202.35 90.7406 201.8 91.7606 202.39C92.3121 202.765 92.7677 203.265 93.0908 203.848C93.4138 204.432 93.5953 205.083 93.6206 205.75Z" fill="black"/>
<path d="M128.14 180.19C128.239 180.676 128.373 181.153 128.54 181.62C129.19 183.38 130.36 185.04 130.26 186.92C130.15 189.04 128.48 190.68 127.2 192.37C125.537 194.604 124.428 197.202 123.965 199.949C123.503 202.696 123.7 205.514 124.54 208.17C125.77 211.405 127.475 214.438 129.6 217.17L134.43 224.02C135.89 225.938 137.754 227.512 139.89 228.63C144.04 230.976 148.671 232.344 153.43 232.63C161.252 233.158 169.033 231.118 175.59 226.82C182.54 222.22 179.48 210.42 186.59 206.11C195.19 200.91 199.29 182.85 188.75 175.31C188.75 175.31 190.45 164.25 187.33 161.43C184.221 158.828 180.373 157.268 176.33 156.97C170.75 156.39 165.16 157.48 159.59 157.46C153.856 157.442 148.127 157.799 142.44 158.53C140.44 158.8 137.62 159.53 136.54 161.48C136.235 162.245 136.152 163.08 136.3 163.89C136.285 165.175 135.825 166.415 135 167.4C133.76 168.9 132 169.91 130.68 171.32C129.591 172.496 128.793 173.911 128.352 175.452C127.911 176.993 127.838 178.616 128.14 180.19Z" fill="#263238"/>
<path d="M183.64 196.15C192.64 196.4 193.81 198.32 201.87 206.3C208.57 212.93 230.77 233.42 230.77 233.42L257.37 240.5L251.09 256.73C251.09 256.73 245.09 256.48 233.09 256.47C225.72 256.47 223.16 254.82 215.74 249.87C211.96 247.34 190.63 233.38 190.63 233.38L183.64 196.15Z" fill="#E6E6E6"/>
<path d="M286.8 207.68L238.05 224.86L224.61 282.86L225.7 284.02L272.05 266.73L287.88 208.84L286.8 207.68Z" fill="#38A1FF"/>
<path opacity="0.35" d="M239.13 226.02L225.7 284.02L224.61 282.86L238.05 224.86L239.13 226.02Z" fill="black"/>
<path opacity="0.25" d="M287.88 208.84L239.13 226.02L225.7 284.02L272.05 266.73L287.88 208.84Z" fill="black"/>
<g opacity="0.2">
<path d="M264.8 254.93C265.25 256.07 268.99 258.58 274.4 258.13L275.31 254.79L264.8 254.93Z" fill="black"/>
</g>
<g opacity="0.1">
<path d="M273.2 220.72L273.6 218.77C273.82 217.7 270.96 218.26 267.21 220.03L258.41 222.69C254.66 224.46 251.12 225.78 250.89 226.85L250.49 228.79L273.2 220.72Z" fill="black"/>
</g>
<path d="M276.1 211.92C276.24 211.25 275.1 211.39 273.57 211.8L270.76 212.75C270.76 212.75 271.91 209.93 265.26 211.75C257.95 213.75 257.79 217.38 257.79 217.38C256.646 217.876 255.474 218.303 254.28 218.66C251.85 219.45 251.59 219.92 251.39 220.6L251.03 221.83L275.88 213.09C275.88 213.09 276 212.59 276.1 211.92Z" fill="#37474F"/>
<path d="M273.48 215.65C271.18 216.65 270.23 217.2 269.88 218.86C269.49 220.75 269.41 221.54 269.41 221.54L256.47 226.64C256.47 226.64 257.17 223.85 257.34 222.92C257.51 221.99 255.8 221.99 253.56 223.02L254.09 220.7L274.22 213.23L273.48 215.65Z" fill="#37474F"/>
<path d="M273.86 220.75C273.86 220.75 274.05 219.88 274.27 218.8C274.49 217.72 271.63 218.29 267.88 220.06L259.08 222.72C255.33 224.49 251.78 225.81 251.56 226.88L251.16 228.88L273.86 220.75Z" fill="#37474F"/>
<path d="M282.46 228.68C282.46 228.68 280.73 235.04 280.27 236.68C279.81 238.32 271.83 241.97 267.84 242.47C260.2 243.42 259.33 245.07 261.16 250.47C262.86 255.47 267.83 257.37 274.73 256.56C277.97 256.18 282.44 253.31 284.2 248.3C286.44 241.9 285.2 235.07 286.13 231.3C287.06 227.53 284.4 226.45 282.46 228.68Z" fill="#FFA8A7"/>
<path d="M206.92 316.14L201.75 319.14L199.58 320.39L171.14 336.8L167.26 339L160.71 342.78L162.71 322.37L166.53 282.85V282.44L166.71 280.67L171.71 229L173.9 206.39L174.67 198.28L174.93 195.66H175.07C177.386 195.016 179.834 195.016 182.15 195.66C182.667 195.817 183.168 196.017 183.65 196.26C186.65 197.75 188.65 200.65 190.31 203.7C190.718 204.443 191.085 205.207 191.41 205.99C192.643 208.954 193.594 212.028 194.25 215.17C195.56 220.97 197.25 226.9 197.92 236.25C198.026 238.657 197.898 241.068 197.54 243.45C197.09 249.753 197.013 256.078 197.31 262.39C198.15 276.69 201.75 283.17 206.92 316.14Z" fill="#E0E0E0"/>
<path d="M199.58 320.37L171.14 336.78L167.26 339L160.71 342.78L156.2 345.38L128.82 361.18C129.11 350.18 129.24 338.25 128.98 326.98C128.9 323.21 128.87 319.36 129.03 315.42C129.55 301.74 132.15 287.07 141.47 271.63L141.9 270.85C143 277.38 153 281.62 162 282.62L163 282.71C164.13 282.82 165.3 282.87 166.51 282.87H167.27C174.88 282.8 183.89 281.01 194.27 277.5C195.27 283.3 196.27 290.91 197.34 299.81C197.82 303.81 198.307 308.073 198.8 312.6C199 315.13 199.31 317.72 199.58 320.37Z" fill="#FFA8A7"/>
<path d="M201.75 319.12L199.58 320.37L171.14 336.78L167.26 339L160.71 342.78L156.2 345.38L128.82 361.18L125.82 362.91C125.97 351.07 126.07 339.47 126.06 332.19C126.06 325.42 126.21 319.4 126.58 314.06C127.31 303.52 128.83 295.59 131.37 289.59C134.35 283.023 137.876 276.718 141.91 270.74C141.91 270.74 144.41 279.18 163.11 280.51H163.23C164.33 280.59 165.49 280.64 166.71 280.66H168.13C191.41 280.66 193.98 274.79 193.98 274.79C196.254 283.422 198.054 292.171 199.37 301C199.863 304.12 200.34 307.453 200.8 311C201.14 313.6 201.46 316.3 201.75 319.12Z" fill="#38A1FF"/>
<path opacity="0.4" d="M201.75 319.12L199.58 320.37L171.14 336.78L167.26 339L160.71 342.78L156.2 345.38L128.82 361.18L125.82 362.91C125.97 351.07 126.07 339.47 126.06 332.19C126.06 325.42 126.21 319.4 126.58 314.06C127.31 303.52 128.83 295.59 131.37 289.59C134.35 283.023 137.876 276.718 141.91 270.74C141.91 270.74 144.41 279.18 163.11 280.51H163.23C164.33 280.59 165.49 280.64 166.71 280.66H168.13C191.41 280.66 193.98 274.79 193.98 274.79C196.254 283.422 198.054 292.171 199.37 301C199.863 304.12 200.34 307.453 200.8 311C201.14 313.6 201.46 316.3 201.75 319.12Z" fill="black"/>
<path opacity="0.2" d="M188.4 305.85C188.4 305.85 185.8 314.11 174.86 318.74L174.34 321.27L171.14 336.78L167.26 339L169.58 321.89L170.58 314.45C177.341 313.749 183.644 310.707 188.4 305.85Z" fill="black"/>
<path d="M155.13 198.05L144.13 199.21C136.85 200.99 133.56 204.21 132.81 210.64C132.46 213.64 130.65 221.64 133.19 231.64C135.49 240.72 141.63 262.94 141.63 262.94C141.63 262.94 127.5 281.38 124.94 313C150.8 329.88 190.47 320.81 201.2 310.61C200.3 300.95 194.13 274.44 193.36 265.83C193.36 265.83 193.93 252.38 195 246.55C203.18 237.62 202.14 229.08 198.47 222.19C191.69 209.47 181.47 198.29 178.16 198.3L155.13 198.05Z" fill="#38A1FF"/>
<path opacity="0.7" d="M155.13 198.05L144.13 199.21C136.85 200.99 133.56 204.21 132.81 210.64C132.46 213.64 130.65 221.64 133.19 231.64C135.49 240.72 141.63 262.94 141.63 262.94C141.63 262.94 127.5 281.38 124.94 313C150.8 329.88 190.47 320.81 201.2 310.61C200.3 300.95 194.13 274.44 193.36 265.83C193.36 265.83 193.93 252.38 195 246.55C203.18 237.62 202.14 229.08 198.47 222.19C191.69 209.47 181.47 198.29 178.16 198.3L155.13 198.05Z" fill="white"/>
<path d="M164.66 266.9C164.66 267.1 164.66 267.28 164.66 267.43V267.69C164.666 267.773 164.666 267.857 164.66 267.94C164.28 271.94 163.83 276.19 163.35 280.52C163.35 280.52 163.35 280.52 163.35 280.58C163.28 281.28 163.2 281.98 163.12 282.69C161.65 295.74 159.9 309.69 158.55 322.39C158.22 325.47 157.92 328.47 157.65 331.39C157.23 335.76 156.78 340.55 156.32 345.39L128.94 361.19L125.94 362.92L118.29 367.33C119.83 352.18 123.42 317.08 125.42 301.24C125.65 299.45 125.95 297.66 126.29 295.88L126.56 294.58L126.68 294.05C126.81 293.45 126.94 292.87 127.08 292.28C127.22 291.69 127.35 291.19 127.48 290.66C127.79 289.45 128.12 288.26 128.48 287.1C128.65 286.54 128.81 285.98 128.99 285.43C129.17 284.88 129.32 284.33 129.5 283.79C129.86 282.71 130.21 281.65 130.58 280.62C130.576 280.6 130.576 280.58 130.58 280.56C130.75 280.07 130.93 279.56 131.11 279.1C131.35 278.42 131.6 277.76 131.85 277.1L132.15 276.31C132.3 275.95 132.43 275.6 132.57 275.25C133.06 274.02 133.57 272.85 134.02 271.76C134.12 271.52 134.23 271.28 134.33 271.05C134.43 270.82 134.59 270.48 134.71 270.2C135.01 269.5 135.31 268.85 135.6 268.2C135.72 267.92 135.85 267.65 135.97 267.39C136.09 267.13 136.26 266.79 136.39 266.51L136.58 266.11L136.78 265.72C136.793 265.669 136.817 265.621 136.85 265.58C136.877 265.507 136.911 265.437 136.95 265.37C136.974 265.325 136.994 265.278 137.01 265.23C137.093 265.088 137.167 264.941 137.23 264.79L137.9 263.49C137.9 263.42 137.97 263.37 137.99 263.31L138.25 262.83L129.93 228.33L125.79 211.19V210.91C125.98 209.39 127.25 202.22 134.57 200.04C138.703 198.973 142.936 198.343 147.2 198.16C148.84 198.06 150.32 198.02 151.53 197.99H153.44H154.59C154.593 198.013 154.593 198.037 154.59 198.06C154.65 198.21 154.82 198.66 155.08 199.36C155.108 199.477 155.148 199.591 155.2 199.7C155.201 199.717 155.201 199.733 155.2 199.75C157 204.69 162.05 219.07 164.56 231.56C165 233.72 165.36 235.83 165.62 237.83C166.37 244.08 165.82 254.54 164.66 266.9Z" fill="#FAFAFA"/>
<path d="M138.52 246.31C138.52 246.31 139.52 241.38 140.99 230.73C142.7 218.45 142.09 212.38 140.24 208.5L129.81 228.39L138.13 262.89C138.13 262.89 129.58 278.55 126.13 295.89C134.31 272.78 143.26 265.89 143.26 265.89L138.52 246.31Z" fill="#E6E6E6"/>
<path d="M175.06 190.35C178.3 190.35 178.68 190.89 181.47 194.63C183.13 196.86 193.64 214.21 193.64 214.21C193.64 214.21 185.28 203.21 178.97 199.87C177.755 199.158 176.441 198.632 175.07 198.31L175.06 190.35Z" fill="#EBEBEB"/>
<path d="M151.1 227.22C151.1 226.22 151 224.06 150.83 221.34C150 208 149.6 196 154.1 195L154.49 196.84C151.21 197.55 152.29 214.72 152.7 221.18C152.88 223.96 153.02 226.18 152.97 227.26L151.1 227.22Z" fill="#38A1FF"/>
<path d="M136.1 139.88L143.1 145.61C143.481 145.174 143.768 144.666 143.945 144.115C144.123 143.565 144.185 142.984 144.13 142.408C144.075 141.832 143.903 141.274 143.624 140.767C143.346 140.26 142.966 139.815 142.51 139.46C141.59 138.699 140.413 138.319 139.222 138.397C138.03 138.475 136.913 139.005 136.1 139.88Z" fill="#263238"/>
<path d="M154.38 191.2C154.38 186.81 144.15 180.2 138.87 170.97C133.59 161.74 136.23 146.56 143.47 144.23C143.53 144.23 143.73 142.28 143.76 142.14C144.16 140.379 144.835 138.691 145.76 137.14C148.71 132.06 154.96 128.14 160.76 127.32C183.69 123.98 194.23 132.89 198.44 142.69C199.805 145.987 200.413 149.547 200.22 153.11C200.102 155.727 199.131 158.233 197.456 160.246C195.78 162.259 193.492 163.669 190.94 164.26L154.38 191.2Z" fill="#263238"/>
<path d="M186.19 139.41C190.68 141.41 194.95 148.24 194.88 167.46C194.82 183.76 189.82 187.88 187.3 189.09C184.78 190.3 179.85 189.68 175.06 188.95V198.31C175.06 198.31 178.65 201.84 177.39 204.06C176.13 206.28 171.48 208.16 164.25 205.89C156.06 203.32 154.19 197.89 154.19 197.89L154 177.35C154 177.35 151.25 180.24 146.4 176C142.4 172.49 140.96 166.48 143.97 163.18C146.98 159.88 150.84 159.62 154.32 163.31L156.82 161.99C161.28 161.47 167.82 160.72 172.64 158.29C185 152 186.28 145.18 186.19 139.41Z" fill="#FFA8A7"/>
<path d="M154.39 160.65L154.45 169.65C155.028 169.665 155.603 169.562 156.14 169.347C156.676 169.132 157.163 168.81 157.571 168.399C157.978 167.989 158.298 167.5 158.509 166.962C158.72 166.424 158.819 165.848 158.8 165.27C158.789 164.084 158.327 162.946 157.508 162.088C156.689 161.23 155.574 160.716 154.39 160.65Z" fill="#263238"/>
<path d="M186.61 161.93C186.614 162.353 186.743 162.765 186.979 163.116C187.215 163.467 187.549 163.74 187.94 163.903C188.33 164.065 188.76 164.11 189.175 164.03C189.59 163.951 189.973 163.751 190.276 163.456C190.58 163.162 190.789 162.784 190.88 162.371C190.97 161.958 190.938 161.527 190.786 161.133C190.634 160.738 190.37 160.397 190.025 160.151C189.681 159.905 189.273 159.766 188.85 159.75C188.559 159.743 188.27 159.795 187.999 159.901C187.728 160.008 187.481 160.167 187.273 160.37C187.064 160.573 186.898 160.815 186.784 161.083C186.671 161.351 186.611 161.639 186.61 161.93Z" fill="black"/>
<path d="M169.36 162.89C169.343 163.2 169.386 163.511 169.489 163.804C169.592 164.097 169.751 164.367 169.958 164.598C170.166 164.829 170.416 165.017 170.696 165.152C170.976 165.286 171.28 165.363 171.59 165.38C171.905 165.383 172.217 165.323 172.509 165.205C172.8 165.087 173.066 164.912 173.29 164.691C173.514 164.47 173.692 164.206 173.814 163.916C173.935 163.626 173.999 163.315 174 163C174.01 162.695 173.96 162.392 173.852 162.106C173.745 161.821 173.582 161.56 173.374 161.338C173.165 161.115 172.915 160.936 172.637 160.81C172.36 160.685 172.06 160.615 171.755 160.605C171.451 160.595 171.147 160.645 170.862 160.753C170.576 160.86 170.315 161.023 170.093 161.232C169.87 161.44 169.691 161.69 169.566 161.968C169.44 162.246 169.37 162.545 169.36 162.85V162.89Z" fill="black"/>
<path d="M192.33 157.9L186.76 155.69C186.889 155.315 187.094 154.971 187.362 154.679C187.629 154.387 187.955 154.154 188.317 153.993C188.679 153.833 189.071 153.749 189.467 153.746C189.863 153.744 190.256 153.824 190.62 153.98C191.354 154.289 191.941 154.868 192.259 155.598C192.578 156.328 192.603 157.152 192.33 157.9Z" fill="black"/>
<path d="M181.33 160.17L181.05 173.51L188.22 171.92L181.33 160.17Z" fill="#F28F8F"/>
<path d="M172.88 176.23L179.88 178.4C179.778 178.877 179.58 179.328 179.296 179.725C179.013 180.123 178.65 180.457 178.232 180.709C177.814 180.96 177.349 181.123 176.865 181.186C176.381 181.25 175.889 181.214 175.42 181.08C174.46 180.746 173.662 180.059 173.19 179.158C172.719 178.257 172.608 177.21 172.88 176.23Z" fill="#B16668"/>
<path d="M176.75 181.2C176.742 180.227 176.35 179.296 175.659 178.61C174.968 177.925 174.033 177.54 173.06 177.54C172.963 177.535 172.867 177.535 172.77 177.54C172.806 178.321 173.076 179.074 173.545 179.7C174.014 180.326 174.66 180.796 175.4 181.05C175.835 181.193 176.294 181.244 176.75 181.2Z" fill="#F28F8F"/>
<path d="M175.06 189C170.01 188.4 159.6 185.5 157.91 181.27C158.587 183.393 159.887 185.264 161.64 186.64C164.78 189.34 175.06 192.15 175.06 192.15V189Z" fill="#F28F8F"/>
<path d="M154.14 190.4C152.82 190.13 151.65 190.71 150.57 192.53C149.49 194.35 147.12 198.23 147.12 198.23C147.12 198.23 145.89 211.02 147.12 214.23C148.18 216.99 159.87 227.34 159.87 227.34C159.87 227.34 156.82 238.83 156.71 242.6C156.6 246.37 163.71 260.68 164.57 268C164.57 268 167.1 245 166.01 236.71C164.13 222.34 157.39 203.78 154.21 197.88L154.14 190.4Z" fill="#EBEBEB"/>
<path d="M161.29 238C160.51 236.143 159.591 234.348 158.54 232.63C156.88 229.88 154.83 227.24 152.98 226.56C152.7 226.449 152.402 226.388 152.1 226.38H152C151.695 226.397 151.397 226.472 151.12 226.6C149.66 227.25 148.12 229.24 146.87 231.53C145.59 233.83 144.535 236.247 143.72 238.75C143.24 240.3 143.45 243.59 144.02 247.35C145.14 254.65 147.63 263.77 149.02 265.57C150.039 266.828 151.242 267.923 152.59 268.82C151.765 269.366 150.875 269.806 149.94 270.13C149.411 270.323 148.853 270.421 148.29 270.42V271.73H148.45C149.045 271.721 149.634 271.623 150.2 271.44C151.511 271.015 152.749 270.391 153.87 269.59C155.054 270.295 156.339 270.814 157.68 271.13C158.312 271.281 158.965 271.322 159.61 271.25L159.45 269.95C158.89 269.997 158.326 269.953 157.78 269.82C156.818 269.569 155.891 269.2 155.02 268.72C156.289 267.71 157.401 266.517 158.32 265.18C159.1 263.99 160.06 259.89 160.78 255.18C161.22 252.37 161.58 249.35 161.78 246.6C162 242.76 161.9 239.47 161.29 238ZM157.16 264.46C156.222 265.813 155.07 267.006 153.75 267.99C152.348 267.124 151.098 266.033 150.05 264.76C148.75 263.07 146.35 254.17 145.27 247.15C144.72 243.6 144.52 240.53 144.96 239.15C145.776 236.617 146.855 234.177 148.18 231.87C149.56 229.49 151.03 227.74 152.05 227.7C153.26 227.7 155.22 229.89 157.05 232.7C157.42 233.25 157.77 233.85 158.11 234.45C158.856 235.742 159.524 237.078 160.11 238.45C160.66 239.81 160.72 242.88 160.47 246.45C160.33 248.45 160.11 250.54 159.83 252.62C159.07 258.05 158 263.14 157.16 264.43V264.46Z" fill="#455A64"/>
<path d="M161.4 270.48C161.416 270.862 161.318 271.239 161.118 271.565C160.919 271.891 160.628 272.151 160.281 272.311C159.934 272.471 159.547 272.525 159.17 272.465C158.793 272.405 158.442 272.235 158.161 271.975C157.881 271.716 157.684 271.379 157.595 271.008C157.506 270.636 157.529 270.247 157.662 269.888C157.795 269.53 158.031 269.219 158.34 268.995C158.649 268.771 159.018 268.644 159.4 268.63C159.91 268.611 160.407 268.795 160.782 269.142C161.157 269.489 161.379 269.97 161.4 270.48Z" fill="#263238"/>
<path d="M150.19 271C150.208 271.382 150.111 271.761 149.913 272.088C149.715 272.415 149.425 272.676 149.078 272.838C148.731 272.999 148.345 273.054 147.967 272.996C147.589 272.937 147.237 272.768 146.955 272.509C146.674 272.25 146.476 271.913 146.386 271.542C146.296 271.17 146.319 270.78 146.451 270.421C146.583 270.062 146.819 269.751 147.129 269.526C147.439 269.302 147.808 269.174 148.19 269.16C148.442 269.149 148.694 269.188 148.931 269.275C149.168 269.362 149.386 269.494 149.572 269.665C149.757 269.836 149.908 270.042 150.014 270.271C150.12 270.5 150.18 270.748 150.19 271Z" fill="#263238"/>
<path d="M161.62 246.58L160.51 246.5C160.397 246.49 160.292 246.436 160.218 246.351C160.143 246.265 160.105 246.153 160.11 246.04C160.34 242.37 160.22 239.67 159.77 238.59C157.83 233.85 153.77 227.91 152.06 227.98C150.35 228.05 146.81 234.32 145.27 239.2C144.92 240.32 145.03 243.02 145.56 246.66C145.578 246.771 145.551 246.885 145.485 246.976C145.42 247.068 145.321 247.13 145.21 247.15L144.11 247.32C143.995 247.334 143.879 247.302 143.787 247.231C143.695 247.16 143.635 247.055 143.62 246.94C143.01 242.86 142.94 240.06 143.4 238.61C144.22 235.99 148.09 226.18 151.98 226.02C155.87 225.86 160.56 235.3 161.6 237.85C162.17 239.25 162.34 242.05 162.08 246.16C162.072 246.276 162.02 246.384 161.935 246.462C161.849 246.541 161.736 246.583 161.62 246.58Z" fill="#38A1FF"/>
<path d="M137.64 199.91C130.32 199.79 126.94 202.26 122.3 208.47C118.62 213.4 104.3 240.04 99.5501 247.82L73.6901 234C68.4601 230.39 66.7701 224.69 63.4601 221.36C60.1501 218.03 56.7201 217.36 53.0801 214.61C49.4401 211.86 47.9601 209.72 46.9101 212.29C45.8601 214.86 49.9101 219.02 50.6801 220.05C51.4501 221.08 55.5101 223.37 50.2401 223.45C44.9701 223.53 34.5401 218.07 32.0001 217.1C29.4601 216.13 29.6101 219.16 30.8601 221.1C32.1101 223.04 32.0501 228.52 34.1601 231.69C36.3901 235.05 37.6101 236.51 42.5801 238.69C47.2001 240.69 56.9001 241.49 61.8101 244.56C66.7201 247.63 78.8901 258.45 86.2901 264.94C95.7001 273.19 102.19 274.7 107.43 269.75C112.52 264.42 117.68 258.17 120.2 255C126.99 246.45 137.73 227 137.73 227C137.73 227 142.38 217 137.64 199.91Z" fill="#FFA8A7"/>
<path d="M138.65 199.18C127.87 199.18 124.65 203.08 119.13 212.09C113.61 221.1 99.45 246.89 99.45 246.89L79.06 236.21C79.06 236.21 75.39 244.29 71.49 252.62C71.49 252.62 83.03 262.62 88.49 267.35C93.95 272.08 101.19 275.79 107.9 270C115.07 263.82 138.32 231.71 138.32 231.71C143.84 221.69 142.61 206.5 138.65 199.18Z" fill="#F0F0F0"/>
<path d="M99.4502 246.89C102.78 250.81 106.81 255.22 106.63 258.69C106.63 258.69 108.91 255.61 100.9 244.26L99.4502 246.89Z" fill="#E0E0E0"/>
<path d="M60.88 150.72L52.54 155.5L52.57 145.92L46.33 142.32L31.78 150.72V167.52L17.23 175.92V192.72L23.47 196.32L31.78 191.52V201.13L38.02 204.73L52.57 196.32V179.52L67.12 171.12V154.32L60.88 150.72Z" fill="#38A1FF"/>
<path d="M23.47 179.52V196.32L38.02 187.92V204.73L52.57 196.32V179.52L67.12 171.12V154.32L52.52 162.75L52.57 145.92L38.02 154.32V171.12L23.47 179.52Z" fill="#38A1FF"/>
<g opacity="0.2">
<path d="M23.47 196.32L17.23 192.72V175.92L23.47 179.52V196.32Z" fill="black"/>
<path d="M38.02 154.32L31.78 150.72V167.52L38.02 171.12V154.32Z" fill="black"/>
<path d="M38.02 204.73L31.78 201.13V191.52L38.02 187.92V204.73Z" fill="black"/>
</g>
<g opacity="0.5">
<path d="M38.02 171.12L31.78 167.52L17.23 175.92L23.47 179.52L38.02 171.12Z" fill="white"/>
<path d="M52.57 145.92L46.33 142.32L31.78 150.72L38.02 154.32L52.57 145.92Z" fill="white"/>
<path d="M67.12 154.32L60.88 150.72L52.54 155.5L52.52 162.75L67.12 154.32Z" fill="white"/>
</g>
<path d="M300.2 117C299.936 116.771 299.652 116.567 299.35 116.39C298.29 115.76 293.49 113 293.24 112.85C290.7 111.23 286.68 111.59 283.1 113.4C277.97 115.99 273.7 121.46 270.44 130.57C270.44 130.57 267.14 128.2 266.07 127.57C263.42 126.12 260.32 126.82 256.83 129.09C252.9 131.65 250.22 134.97 247.77 139.99V140.08C245.647 144.343 244.486 149.019 244.37 153.78C244.37 164.31 248.68 169.33 254.29 173.1C255.89 174.18 260.12 176.45 260.54 176.73C263.926 178.965 267.67 180.603 271.61 181.57L277.14 182.86L282.67 175.19C286.696 169.535 290.392 163.652 293.74 157.57C299.35 147.32 303.74 137.28 303.66 126.79C303.58 122.3 302.29 119 300.2 117Z" fill="#38A1FF"/>
<path opacity="0.3" d="M300.2 117C299.936 116.771 299.652 116.567 299.35 116.39C298.29 115.76 293.49 113 293.24 112.85C290.7 111.23 286.68 111.59 283.1 113.4C277.97 115.99 273.7 121.46 270.44 130.57C270.44 130.57 267.14 128.2 266.07 127.57C263.42 126.12 260.32 126.82 256.83 129.09C252.9 131.65 250.22 134.97 247.77 139.99V140.08C245.647 144.343 244.486 149.019 244.37 153.78C244.37 164.31 248.68 169.33 254.29 173.1C255.89 174.18 260.12 176.45 260.54 176.73C263.926 178.965 267.67 180.603 271.61 181.57L277.14 182.86L282.67 175.19C286.696 169.535 290.392 163.652 293.74 157.57C299.35 147.32 303.74 137.28 303.66 126.79C303.58 122.3 302.29 119 300.2 117Z" fill="black"/>
<path d="M300.2 117C299.936 116.771 299.652 116.567 299.35 116.39C298.29 115.76 293.49 113 293.24 112.85C290.7 111.23 286.68 111.59 283.1 113.4C277.97 115.99 273.7 121.46 270.44 130.57C270.44 130.57 267.14 128.2 266.07 127.57C263.42 126.12 260.32 126.82 256.83 129.09C252.9 131.65 250.22 134.97 247.77 139.99V140.08C247.66 140.3 247.57 140.52 247.47 140.74L289.47 164.96C290.96 162.54 292.41 160.09 293.79 157.57C299.4 147.32 303.79 137.28 303.71 126.79C303.58 122.3 302.29 119 300.2 117Z" fill="#38A1FF"/>
<path opacity="0.15" d="M300.2 117C299.936 116.771 299.652 116.567 299.35 116.39C298.29 115.76 293.49 113 293.24 112.85C290.7 111.23 286.68 111.59 283.1 113.4C277.97 115.99 273.7 121.46 270.44 130.57C270.44 130.57 267.14 128.2 266.07 127.57C263.42 126.12 260.32 126.82 256.83 129.09C252.9 131.65 250.22 134.97 247.77 139.99V140.08C247.66 140.3 247.57 140.52 247.47 140.74L289.47 164.96C290.96 162.54 292.41 160.09 293.79 157.57C299.4 147.32 303.79 137.28 303.71 126.79C303.58 122.3 302.29 119 300.2 117Z" fill="black"/>
<path d="M270.41 130.53L276.03 137.86L285.09 127.14L274.85 121.23C273.026 124.154 271.537 127.274 270.41 130.53Z" fill="#38A1FF"/>
<path opacity="0.3" d="M270.41 130.53L276.03 137.86L285.09 127.14L274.85 121.23C273.026 124.154 271.537 127.274 270.41 130.53Z" fill="black"/>
<path d="M300.2 117C297.75 114.81 293.29 115 289.35 117C283.98 119.72 279.54 125.59 276.22 135.53C272.9 129.43 268.46 129.24 263.09 132.73C259.15 135.29 256.47 138.61 254.03 143.63L253.98 143.72C251.865 147.988 250.708 152.668 250.59 157.43C250.59 167.96 254.91 172.98 260.51 176.75C263.896 178.985 267.64 180.623 271.58 181.59L277.11 182.88L282.64 175.21C286.666 169.555 290.362 163.672 293.71 157.59C299.32 147.34 303.71 137.3 303.63 126.81C303.58 122.3 302.29 119 300.2 117Z" fill="#38A1FF"/>
<g opacity="0.07">
<path d="M295.48 116C297.022 115.929 298.537 116.416 299.75 117.37C299.771 117.413 299.802 117.451 299.84 117.48C301.9 119.36 303.05 122.7 303.06 126.86C303.06 137.81 298.06 148.44 293.21 157.38C289.887 163.442 286.214 169.305 282.21 174.94L276.9 182.33L271.73 181.12C267.849 180.167 264.159 178.557 260.82 176.36C255.82 172.96 251.1 168.36 251.14 157.48C251.246 152.801 252.369 148.202 254.43 144V143.91C256.89 138.86 259.54 135.67 263.3 133.23C265.047 131.935 267.13 131.171 269.3 131.03C271.84 131.03 273.93 132.6 275.69 135.83C275.734 135.917 275.801 135.989 275.884 136.038C275.968 136.088 276.063 136.113 276.16 136.11H276.21C276.313 136.1 276.411 136.061 276.493 135.998C276.574 135.934 276.636 135.848 276.67 135.75C279.84 126.26 284.05 120.3 289.53 117.53C291.359 116.572 293.385 116.048 295.45 116M295.45 115.47C293.302 115.514 291.194 116.055 289.29 117.05C283.92 119.77 279.48 125.64 276.16 135.58C274.24 132.04 271.94 130.49 269.3 130.49C267.034 130.639 264.858 131.434 263.03 132.78C259.09 135.34 256.41 138.66 253.97 143.68L253.92 143.77C251.805 148.038 250.648 152.718 250.53 157.48C250.53 168.01 254.85 173.03 260.45 176.8C263.836 179.035 267.58 180.673 271.52 181.64L277.05 182.93L282.58 175.26C286.606 169.605 290.302 163.722 293.65 157.64C299.26 147.39 303.65 137.35 303.57 126.86C303.57 122.35 302.26 119 300.17 117.08C298.85 116.005 297.181 115.453 295.48 115.53L295.45 115.47Z" fill="black"/>
</g>
<path d="M299.59 145.35L288.83 151.57L284.83 137.02C284.773 136.8 284.643 136.606 284.462 136.47C284.28 136.333 284.057 136.263 283.83 136.27C283.596 136.265 283.368 136.343 283.185 136.489C283.002 136.635 282.877 136.841 282.83 137.07L276.6 165.53L271.36 151.19C271.349 150.925 271.234 150.675 271.039 150.495C270.844 150.315 270.585 150.219 270.32 150.23C270.055 150.241 269.805 150.356 269.625 150.551C269.445 150.746 269.349 151.005 269.36 151.27L265.82 163.84L253.98 170.68C254.369 171.246 254.79 171.79 255.24 172.31L267.24 165.4C267.472 165.265 267.644 165.047 267.72 164.79L270.51 154.87L275.88 169.53C275.951 169.735 276.087 169.911 276.268 170.032C276.448 170.153 276.663 170.212 276.88 170.2C277.102 170.189 277.314 170.104 277.482 169.959C277.65 169.815 277.766 169.618 277.81 169.4L283.91 141.58L287.13 153.39C287.168 153.542 287.242 153.683 287.344 153.801C287.447 153.92 287.576 154.012 287.721 154.071C287.866 154.131 288.023 154.155 288.179 154.143C288.335 154.13 288.486 154.082 288.62 154L298.18 148.49C298.73 147.44 299.17 146.4 299.59 145.35Z" fill="white"/>
<path d="M344.75 412.79C344.34 414.145 344.306 415.586 344.65 416.96C345.05 417.8 347.55 420.56 352.65 421.56C357.75 422.56 364.76 421.56 367.78 421.38C370.8 421.2 380.28 422.38 383.29 422.76C388.03 423.4 391.67 422.36 393.44 420.65C393.726 420.306 393.938 419.906 394.06 419.475C394.182 419.045 394.213 418.593 394.15 418.15C394.14 417.009 393.971 415.875 393.65 414.78L344.75 412.79Z" fill="#263238"/>
<path d="M392.87 409.82C392.96 410.21 393.05 410.61 393.13 411.01C393.591 413.022 393.737 415.093 393.56 417.15C392.95 418.65 391.28 419.48 389.93 419.9C386.36 421.04 383.65 420.9 379.7 420.11C375.727 419.531 371.714 419.284 367.7 419.37C364.59 419.58 360.31 420.18 357.2 419.89C354.555 419.78 351.946 419.246 349.47 418.31C347.4 417.43 345.28 416.31 344.77 414.15C344.16 409.65 346.05 407.67 348.18 406.41C350.31 405.15 353.34 405.25 356.58 405.04C359.51 404.84 361.65 404.84 364.26 404.64C366.517 404.53 368.759 404.219 370.96 403.71C372.96 403.09 374.96 400.58 375.78 400.49C375.78 400.49 388.83 400.39 390.07 400.49C391.51 400.61 391.95 405.07 392.13 406.04C392.27 406.8 392.3 407.62 392.5 408.35C392.63 408.84 392.75 409.33 392.87 409.82Z" fill="#37474F"/>
<path d="M352.66 419.29C352.25 416.05 351.66 409.03 357.66 404.97H358.41C355.715 404.19 352.855 404.19 350.16 404.97C345.39 406.24 343.27 410.1 344.46 414.18C344.48 414.14 345.54 418.09 352.66 419.29Z" fill="#FAFAFA"/>
<path d="M370.07 403.94C368.14 405.65 367.47 409.54 367.47 409.54C367.22 411 364.58 411.22 364.83 409.81C365.233 407.871 366.011 406.03 367.12 404.39C368.025 403.913 369.064 403.754 370.07 403.94Z" fill="#FAFAFA"/>
<path d="M364.66 404.61C363.204 406.035 362.253 407.896 361.95 409.91C361.68 411.31 359.48 411.29 359.64 409.91C359.64 409.91 359.89 406.46 361.95 404.85C362.349 404.595 362.804 404.439 363.275 404.398C363.747 404.356 364.222 404.429 364.66 404.61Z" fill="#FAFAFA"/>
<path d="M390.47 391C390.47 391 390.12 399.39 389.66 402.14C389.38 403.78 387.23 405.5 381.88 405.32C378.12 405.19 375.16 405.5 375.31 402.56L375.64 393.99L390.47 391Z" fill="#FFA8A7"/>
<path d="M398.86 371.18C398.67 373.47 398.36 375.54 399.3 378.06C400.64 381.68 403.48 383.34 405.15 384.76C406.907 386.501 408.528 388.373 410 390.36C411.64 392.36 412.07 393.55 414.53 395.73C415.756 396.674 417.206 397.283 418.738 397.499C420.27 397.714 421.831 397.529 423.27 396.96C425.4 396.05 426.14 395.33 426.01 392.06C425.88 388.79 415.46 387.68 415.46 387.68L398.86 371.18Z" fill="#263238"/>
<path d="M424.66 382.32C425.55 382.64 425.77 384.25 425.91 387.45C426.01 389.87 427.08 393.45 423.57 394.94C420.74 396.17 416.22 395.35 414.31 393.07C411.93 390.22 410.31 387.71 406.91 384.24C403.91 381.24 400.91 380.24 399.58 374.19C398.73 370.31 399.4 368.71 402.14 367.6C405.91 366.07 411.82 371.06 414.78 371.85C417.32 372.52 423.77 382 424.66 382.32Z" fill="#37474F"/>
<path d="M414.78 371.85L414.28 371.68C412.594 371.743 410.954 372.246 409.522 373.139C408.091 374.032 406.918 375.283 406.12 376.77C405.62 377.82 407.12 378.64 408.12 377.82C410.22 373.82 414.54 372.96 416.27 372.77C415.844 372.361 415.336 372.047 414.78 371.85Z" fill="#FAFAFA"/>
<path d="M417.21 373.67C415.627 373.818 414.106 374.357 412.783 375.239C411.46 376.12 410.376 377.316 409.63 378.72C409.13 379.72 410.68 380.59 411.63 379.72C412.344 378.469 413.322 377.388 414.496 376.554C415.671 375.72 417.013 375.152 418.43 374.89C418 374.49 417.6 374.06 417.21 373.67Z" fill="#FAFAFA"/>
<path d="M425.17 376.54L424.66 383.29C424.66 383.29 420.37 386.42 414.22 383.55C414.04 383.18 413.52 377.14 413.52 377.14L425.17 376.54Z" fill="#FFA8A7"/>
<path d="M401.31 378.64C401.31 378.64 401.6 371.47 411.79 370.48L412.38 370.79C411.22 368.992 409.441 367.683 407.38 367.11C404 366.24 401.32 367.11 399.54 369.25C397.76 371.39 399.55 377.25 401.31 378.64Z" fill="#FAFAFA"/>
<path d="M428.14 331.58C426.68 319.77 426.14 313.19 426.14 313.19C426.14 313.19 425.85 296.56 426.86 281.19C427.3 274.45 427.53 266.99 427.67 260.19C427.856 252.702 427.26 245.214 425.89 237.85C425.89 237.85 373.6 227.45 372.95 246.63C372.16 269.63 372.26 308.94 371.37 323.95C370.88 332.38 371.73 339.37 372.26 355.75C372.69 369.33 372.56 402.75 372.56 402.75C378.32 410.66 391.92 404.63 391.92 404.63C391.92 404.63 396.12 357.7 396.74 348C397.4 337.57 396.3 332.29 396.3 332.29L401.69 283.7C401.69 283.7 402.1 299.29 402.56 307.7C403.02 316.11 404.25 321.28 406.44 336.97C408.34 350.59 412.38 385.35 412.38 385.35C419.38 389.49 426.14 385.35 426.14 385.35C426.14 385.35 429.6 343.39 428.14 331.58Z" fill="#455A64"/>
<path d="M421 264.47C421 264.47 414.45 272.83 406 276.42C406 276.42 402.34 305.81 402.37 305.23L401.42 275.65C401.42 275.65 414 270.09 421 264.47Z" fill="#37474F"/>
<path d="M420.82 170C426.45 168.74 432.82 172.76 437.06 181.73C441.16 190.31 452.36 211.98 452.63 218.05C452.92 224.34 424.94 243.42 425.63 243.05C425.85 242.94 420.8 228.62 420.8 228.62L434.39 217.37L427 202.15L420.82 170Z" fill="#FFA8A7"/>
<path d="M417.86 168.65C422.6 168.07 431.19 169.86 434.47 175.56C439.23 183.81 443.57 193.35 449.1 205.68C449.1 205.68 445 214.56 433.2 215.4L426.13 203L417.86 168.65Z" fill="#37474F"/>
<path d="M394 161.22L394.82 178.72L412.16 177.79L411.63 157.46L394 161.22Z" fill="#FFA8A7"/>
<path d="M429.19 177.46C427.73 172.69 422.69 168.76 416.32 168.57C414.9 168.57 411.92 168.57 411.92 168.57C411.2 171.52 402.17 172.57 394.45 170.8C392.12 171.42 382.45 173.8 380.45 174.4C374.9 176.24 373.19 181.9 372.33 200C372.33 200 372.5 235.68 372.33 252.71C382.09 257.86 397.17 257.22 407.9 256.13C424.76 254.43 427.27 248.32 427.27 248.32C426.56 238.39 426.99 234.65 427.27 224.85C427.48 217.48 429.6 209.69 430.27 201.34C431.26 188.93 430.18 180.74 429.19 177.46Z" fill="#38A1FF"/>
<path d="M391.29 164.54C387.29 164.26 382.29 167.45 381 174.28L384.26 173.41L391.29 164.54Z" fill="#38A1FF"/>
<path opacity="0.3" d="M391.29 164.54C387.29 164.26 382.29 167.45 381 174.28L384.26 173.41L391.29 164.54Z" fill="black"/>
<path d="M394.22 166C397.22 167 405.97 166.86 408.9 166C411.83 165.14 411.8 163.84 411.8 163.84V162.37C413.49 162.365 415.141 162.878 416.53 163.84C418.4 165.36 421.62 170.84 421.53 173.47C421.44 176.1 415.82 183.04 404.98 182.87C394.14 182.7 388.05 178.69 386.18 176.05L384.3 173.4C384.3 173.4 386.87 168.12 389.4 165.9C390.697 164.643 392.361 163.83 394.15 163.58L394.22 166Z" fill="#38A1FF"/>
<path opacity="0.2" d="M394.22 166C397.22 167 405.97 166.86 408.9 166C411.83 165.14 411.8 163.84 411.8 163.84V162.37C413.49 162.365 415.141 162.878 416.53 163.84C418.4 165.36 421.62 170.84 421.53 173.47C421.44 176.1 415.82 183.04 404.98 182.87C394.14 182.7 388.05 178.69 386.18 176.05L384.3 173.4C384.3 173.4 386.87 168.12 389.4 165.9C390.697 164.643 392.361 163.83 394.15 163.58L394.22 166Z" fill="black"/>
<path d="M382.33 139.76C382.33 139.76 378.2 146.03 378.67 146.64C379.14 147.25 382.18 147.82 382.18 147.82L382.33 139.76Z" fill="#F28F8F"/>
<path d="M393.81 122.4C385.45 124.17 382.11 126.62 381.59 140.91C381.09 154.81 382.84 159.39 384.66 161.26C385.89 162.52 392.74 162.75 396.19 161.79C400.51 160.6 410.28 157.14 414.85 150.16C420.23 141.94 421.64 130.8 415.85 126.23C407.78 119.8 397.22 121.68 393.81 122.4Z" fill="#FFA8A7"/>
<path d="M384.66 161.25C385.66 162.25 390.45 162.63 394.05 162.19L394 160.12C391.017 161.22 387.819 161.607 384.66 161.25Z" fill="#F28F8F"/>
<path d="M380.48 127.77C382.563 129.263 385.146 129.884 387.68 129.5C387.63 130.62 387.931 131.729 388.54 132.67C389.389 133.954 390.675 134.885 392.16 135.29C391.245 137.084 390.758 139.066 390.74 141.08C390.684 141.712 390.82 142.346 391.13 142.9C391.226 143.101 391.377 143.271 391.565 143.39C391.754 143.509 391.972 143.572 392.195 143.572C392.418 143.572 392.636 143.509 392.825 143.39C393.013 143.271 393.164 143.101 393.26 142.9C393.73 141.836 394.321 140.83 395.02 139.9C395.926 138.815 397.201 138.103 398.6 137.9C403.85 137.33 404.51 144.2 402.41 147.05C398.97 151.71 396.05 148.55 396.05 148.55C395.916 150.734 396.248 152.922 397.024 154.969C397.8 157.015 399.002 158.873 400.55 160.42C404.282 161.52 408.237 161.62 412.02 160.71C416.68 154.3 419.61 151.18 422.1 145.65C427.36 133.94 424.82 126.59 420.75 123.49C419.95 118.1 415.7 115.68 410.85 114.57C403.61 112.9 396.85 117.2 389.67 115.57C388.492 115.323 387.327 115.016 386.18 114.65C385.738 114.443 385.234 114.411 384.77 114.56C384.513 114.731 384.311 114.974 384.19 115.258C384.069 115.542 384.034 115.856 384.09 116.16C384.18 117.54 385.58 119.07 386.29 119.81C384.722 119.953 383.141 119.862 381.6 119.54C381.065 119.44 380.515 119.44 379.98 119.54C379.393 119.779 378.896 120.198 378.562 120.737C378.228 121.276 378.073 121.908 378.12 122.54C378.126 123.528 378.339 124.504 378.746 125.405C379.152 126.306 379.743 127.112 380.48 127.77Z" fill="#263238"/>
<path d="M420.88 125.23L425.88 122.23C425.482 121.567 424.837 121.089 424.087 120.902C423.337 120.714 422.543 120.832 421.88 121.23C421.217 121.628 420.739 122.273 420.551 123.023C420.364 123.773 420.482 124.567 420.88 125.23Z" fill="#263238"/>
<path d="M355.72 204C354.587 199.547 353.493 195.087 352.44 190.62C351.44 186.51 349.9 181.75 351.31 177.55C352.111 175.716 353.118 173.978 354.31 172.37C355.342 170.675 356.212 168.887 356.91 167.03C357.26 166.13 357.58 165.21 357.91 164.3C358.24 163.39 358.71 162.87 358.49 162C357.76 159.15 354.08 162.89 353.33 164.06C352.997 164.674 352.609 165.257 352.17 165.8C351.69 166.31 350.52 166.95 349.96 166.2C349.773 165.899 349.67 165.554 349.66 165.2C349.28 160.81 350.86 156.88 352.17 152.78C352.377 152.242 352.502 151.675 352.54 151.1C352.564 150.813 352.525 150.524 352.427 150.253C352.328 149.982 352.172 149.735 351.97 149.53C351.644 149.28 351.258 149.12 350.85 149.068C350.443 149.015 350.029 149.071 349.65 149.23C348.91 149.48 348.27 149.95 347.53 150.18C346.79 150.41 346.24 150.41 345.59 150.58C344.048 150.924 342.563 151.486 341.18 152.25C338.78 153.66 337.72 155.72 337.09 158.34C336.333 161.558 336.077 164.874 336.33 168.17C336.5 170.36 336.89 172.52 337.16 174.68L338.06 181.91C338.67 186.73 338.85 210.81 339.68 215.6C340.51 220.39 342.11 223.6 345.9 225.19C351.4 227.43 360.29 217.31 365.34 212.07L355.72 204Z" fill="#FFA8A7"/>
<path d="M353.71 201.27C350.17 203.92 345.76 208.33 344.87 212.75C344.87 212.75 343.99 204.8 353.71 197.75V201.27Z" fill="#F28F8F"/>
<path d="M380.17 174.51C376.77 174.83 371.17 174.95 365.47 181.08C358.86 188.24 348.67 202.36 348.67 202.36C348.67 202.36 350 213.6 360.82 217.63C360.82 217.63 376.55 202.63 379.93 196.17C383.31 189.71 384.07 179 380.17 174.51Z" fill="#37474F"/>
<path d="M375.64 150.75L371.34 148.44L373.81 146.33L364.88 142.15L368.78 139.89L359.16 134.77L364.88 139.82L360.23 142.15L370.72 146.69L368.13 149.28L375.64 150.75Z" fill="#38A1FF"/>
<path d="M377.83 145.08L375.03 142.4L376.56 141.27L374.1 138.35L376.46 137.55L375.64 133.85L377.3 137.84L375.64 138.56L378.3 141.48L376.5 142.76L377.83 145.08Z" fill="#38A1FF"/>
<path d="M376.2 154.98L370.92 159.1L368.97 156.23L364.35 158.74L362.46 155.19L355.31 157.02L363.58 153.06L365.95 156.33L369.79 154.27L371.39 157.02L376.2 154.98Z" fill="#38A1FF"/>
<path d="M339.49 228.71C339.651 228.577 339.858 228.512 340.066 228.531C340.274 228.55 340.466 228.65 340.6 228.81C341.622 229.958 342.95 230.792 344.429 231.213C345.908 231.635 347.476 231.627 348.95 231.19C349.05 231.155 349.157 231.14 349.264 231.147C349.37 231.154 349.474 231.182 349.569 231.23C349.664 231.278 349.749 231.345 349.817 231.427C349.886 231.508 349.937 231.603 349.968 231.705C349.999 231.807 350.01 231.914 349.998 232.02C349.987 232.126 349.954 232.229 349.902 232.322C349.849 232.415 349.779 232.496 349.694 232.561C349.61 232.626 349.513 232.673 349.41 232.7C347.642 233.223 345.761 233.23 343.989 232.72C342.218 232.21 340.629 231.203 339.41 229.82C339.341 229.742 339.289 229.652 339.256 229.554C339.223 229.455 339.21 229.352 339.217 229.248C339.225 229.145 339.253 229.044 339.299 228.952C339.346 228.859 339.411 228.777 339.49 228.71Z" fill="#E0E0E0"/>
<path d="M340.29 234C340.43 233.883 340.607 233.819 340.79 233.819C340.973 233.819 341.15 233.883 341.29 234C342.104 234.588 343.037 234.992 344.023 235.182C345.01 235.372 346.026 235.344 347 235.1C347.207 235.062 347.42 235.106 347.594 235.224C347.768 235.342 347.889 235.524 347.93 235.73C347.95 235.831 347.95 235.935 347.93 236.037C347.91 236.138 347.87 236.234 347.812 236.319C347.754 236.405 347.68 236.478 347.594 236.535C347.508 236.592 347.411 236.631 347.31 236.65C346.105 236.93 344.854 236.941 343.644 236.684C342.435 236.426 341.296 235.906 340.31 235.16C340.231 235.093 340.166 235.011 340.119 234.918C340.073 234.826 340.045 234.725 340.037 234.622C340.03 234.518 340.043 234.415 340.076 234.316C340.109 234.218 340.161 234.128 340.23 234.05C340.248 234.031 340.268 234.014 340.29 234Z" fill="#E0E0E0"/>
<path d="M438.48 173.39C438.388 173.438 438.287 173.467 438.183 173.475C438.079 173.483 437.975 173.471 437.876 173.438C437.777 173.406 437.686 173.354 437.608 173.285C437.529 173.217 437.466 173.133 437.42 173.04C436.69 171.687 435.591 170.568 434.252 169.814C432.912 169.06 431.385 168.702 429.85 168.78C429.746 168.786 429.642 168.771 429.544 168.737C429.446 168.703 429.356 168.65 429.278 168.58C429.122 168.441 429.027 168.244 429.015 168.035C429.003 167.825 429.075 167.62 429.215 167.463C429.354 167.307 429.55 167.212 429.76 167.2C431.603 167.104 433.436 167.535 435.042 168.444C436.649 169.352 437.963 170.701 438.83 172.33C438.921 172.517 438.936 172.733 438.87 172.931C438.805 173.129 438.665 173.294 438.48 173.39Z" fill="#E0E0E0"/>
<path d="M438.92 168.09C438.753 168.178 438.559 168.202 438.375 168.158C438.191 168.114 438.029 168.004 437.92 167.85C437.274 167.096 436.474 166.489 435.573 166.072C434.673 165.654 433.693 165.435 432.7 165.43C432.596 165.426 432.494 165.402 432.4 165.358C432.306 165.315 432.221 165.254 432.15 165.177C432.08 165.101 432.025 165.012 431.989 164.915C431.953 164.817 431.936 164.714 431.94 164.61C431.944 164.506 431.968 164.404 432.012 164.31C432.055 164.216 432.116 164.131 432.193 164.06C432.269 163.99 432.358 163.935 432.455 163.899C432.553 163.863 432.656 163.846 432.76 163.85C433.993 163.862 435.209 164.144 436.321 164.677C437.434 165.209 438.416 165.978 439.2 166.93C439.313 167.099 439.355 167.306 439.318 167.506C439.28 167.706 439.166 167.883 439 168L438.92 168.09Z" fill="#E0E0E0"/>
<path d="M452.9 225.73C452.8 225.547 452.776 225.332 452.834 225.131C452.892 224.931 453.027 224.761 453.21 224.66C454.527 223.868 455.592 222.718 456.281 221.344C456.969 219.97 457.253 218.429 457.1 216.9C457.087 216.797 457.096 216.692 457.124 216.592C457.153 216.492 457.201 216.399 457.267 216.317C457.332 216.236 457.413 216.169 457.504 216.12C457.596 216.07 457.696 216.04 457.8 216.03C458.008 216.008 458.217 216.069 458.38 216.2C458.543 216.331 458.647 216.522 458.67 216.73C458.848 218.559 458.504 220.4 457.678 222.041C456.851 223.682 455.576 225.055 454 226C453.91 226.056 453.81 226.093 453.706 226.11C453.602 226.127 453.495 226.122 453.393 226.097C453.29 226.072 453.194 226.027 453.109 225.964C453.025 225.9 452.953 225.821 452.9 225.73Z" fill="#E0E0E0"/>
<path d="M458.21 225.92C458.121 225.757 458.091 225.568 458.125 225.386C458.16 225.203 458.257 225.039 458.4 224.92C459.126 224.241 459.695 223.413 460.07 222.493C460.445 221.573 460.615 220.582 460.57 219.59C460.57 219.38 460.653 219.18 460.801 219.031C460.949 218.883 461.15 218.8 461.36 218.8C461.569 218.8 461.77 218.883 461.919 219.031C462.067 219.18 462.15 219.38 462.15 219.59C462.193 220.821 461.968 222.047 461.492 223.183C461.015 224.319 460.298 225.338 459.39 226.17C459.309 226.234 459.215 226.282 459.115 226.31C459.016 226.339 458.911 226.347 458.808 226.335C458.705 226.323 458.605 226.291 458.515 226.24C458.424 226.189 458.344 226.121 458.28 226.04L458.21 225.92Z" fill="#E0E0E0"/>
<path d="M366.22 321C366.407 321.094 366.549 321.258 366.616 321.457C366.684 321.655 366.67 321.871 366.58 322.06C365.947 323.46 365.725 325.011 365.941 326.532C366.157 328.054 366.802 329.482 367.8 330.65C367.935 330.811 368.001 331.019 367.985 331.228C367.968 331.438 367.869 331.633 367.71 331.77C367.552 331.906 367.346 331.974 367.138 331.959C366.931 331.944 366.737 331.847 366.6 331.69C365.401 330.284 364.629 328.565 364.373 326.735C364.118 324.905 364.391 323.04 365.16 321.36C365.254 321.173 365.418 321.031 365.616 320.964C365.815 320.896 366.031 320.909 366.22 321Z" fill="#E0E0E0"/>
<path d="M361.74 323.85C361.911 323.931 362.047 324.07 362.124 324.242C362.201 324.415 362.214 324.609 362.16 324.79C361.95 325.761 361.953 326.767 362.169 327.737C362.385 328.707 362.808 329.619 363.41 330.41C363.528 330.582 363.574 330.793 363.538 330.999C363.503 331.204 363.389 331.388 363.22 331.51C363.049 331.63 362.837 331.678 362.631 331.642C362.424 331.607 362.241 331.491 362.12 331.32C361.379 330.331 360.862 329.193 360.606 327.983C360.351 326.774 360.362 325.524 360.64 324.32C360.671 324.22 360.721 324.126 360.788 324.046C360.855 323.965 360.938 323.899 361.031 323.85C361.124 323.802 361.226 323.772 361.33 323.764C361.435 323.755 361.54 323.767 361.64 323.8L361.74 323.85Z" fill="#E0E0E0"/>
<path d="M307.45 46.4499C307.401 45.5174 307.131 44.6098 306.664 43.8016C306.196 42.9933 305.544 42.3073 304.76 41.7999L302.58 40.5299C301.746 40.1127 300.827 39.8956 299.895 39.8956C298.963 39.8956 298.043 40.1127 297.21 40.5299L246.56 69.7999C245.777 70.3085 245.126 70.9948 244.658 71.8028C244.191 72.6108 243.921 73.5178 243.87 74.4499V100.64C243.921 101.572 244.192 102.478 244.659 103.286C245.127 104.094 245.778 104.781 246.56 105.29L248.75 106.55C249.581 106.974 250.501 107.195 251.435 107.195C252.368 107.195 253.288 106.974 254.12 106.55L304.76 77.2899C305.544 76.7824 306.196 76.0964 306.664 75.2882C307.131 74.4799 307.401 73.5723 307.45 72.6399V46.4499Z" fill="#38A1FF"/>
<path opacity="0.5" d="M307.45 46.4499C307.401 45.5174 307.131 44.6098 306.664 43.8016C306.196 42.9933 305.544 42.3073 304.76 41.7999L302.58 40.5299C301.746 40.1127 300.827 39.8956 299.895 39.8956C298.963 39.8956 298.043 40.1127 297.21 40.5299L246.56 69.7999C245.777 70.3085 245.126 70.9948 244.658 71.8028C244.191 72.6108 243.921 73.5178 243.87 74.4499V100.64C243.921 101.572 244.192 102.478 244.659 103.286C245.127 104.094 245.778 104.781 246.56 105.29L248.75 106.55C249.581 106.974 250.501 107.195 251.435 107.195C252.368 107.195 253.288 106.974 254.12 106.55L304.76 77.2899C305.544 76.7824 306.196 76.0964 306.664 75.2882C307.131 74.4799 307.401 73.5723 307.45 72.6399V46.4499Z" fill="white"/>
<path opacity="0.2" d="M243.87 100.64C243.921 101.572 244.192 102.479 244.659 103.287C245.127 104.094 245.778 104.781 246.56 105.29L248.75 106.55C249.506 106.931 250.335 107.148 251.181 107.186C252.028 107.224 252.872 107.082 253.66 106.77C252.39 107.25 251.43 106.54 251.43 105V78.81C251.462 77.8737 251.734 76.9613 252.22 76.16L244.66 71.8C244.173 72.6008 243.901 73.5135 243.87 74.45V100.64Z" fill="black"/>
<path opacity="0.3" d="M307.36 45.69C307.05 44.55 306.01 44.18 304.77 44.9L254.12 74.16C253.323 74.6491 252.668 75.3387 252.22 76.16L244.67 71.8C245.117 70.9813 245.768 70.2923 246.56 69.8L297.2 40.54C298.031 40.116 298.952 39.8949 299.885 39.8949C300.818 39.8949 301.738 40.116 302.57 40.54L304.77 41.8C305.442 42.2396 306.018 42.811 306.464 43.4796C306.909 44.1482 307.214 44.9002 307.36 45.69Z" fill="white"/>
<path d="M251.44 87.28L243.89 82.92L234.79 91.68C234.653 91.8178 234.55 91.9849 234.487 92.1687C234.424 92.3526 234.404 92.5482 234.428 92.7409C234.452 92.9336 234.52 93.1183 234.626 93.2811C234.732 93.4438 234.874 93.5802 235.04 93.68L242.47 98C242.778 98.161 243.124 98.2337 243.47 98.21L251.47 96.68V87.28H251.44Z" fill="#38A1FF"/>
<path opacity="0.5" d="M251.44 87.28L243.89 82.92L234.79 91.68C234.653 91.8178 234.55 91.9849 234.487 92.1687C234.424 92.3526 234.404 92.5482 234.428 92.7409C234.452 92.9336 234.52 93.1183 234.626 93.2811C234.732 93.4438 234.874 93.5802 235.04 93.68L242.47 98C242.778 98.161 243.124 98.2337 243.47 98.21L251.47 96.68V87.28H251.44Z" fill="white"/>
<path opacity="0.3" d="M242.47 98L238.47 95.71L238 95.4L235.86 94.16L235.6 94L235.03 93.67C234.863 93.5702 234.722 93.4337 234.616 93.271C234.51 93.1083 234.442 92.9236 234.418 92.7309C234.394 92.5382 234.414 92.3425 234.477 92.1587C234.539 91.9749 234.643 91.8078 234.78 91.67L243.88 82.91L251.44 87.28L242.34 96C242.195 96.1284 242.082 96.2881 242.009 96.4669C241.935 96.6457 241.904 96.8389 241.916 97.0318C241.929 97.2247 241.985 97.4122 242.081 97.58C242.177 97.7478 242.31 97.8914 242.47 98Z" fill="white"/>
<path d="M266.23 79.23C265.185 79.9096 264.315 80.8262 263.692 81.9053C263.068 82.9844 262.707 84.1954 262.64 85.44C262.64 87.72 264.25 88.65 266.23 87.51C267.273 86.8299 268.142 85.9129 268.764 84.8338C269.386 83.7547 269.744 82.5439 269.81 81.3C269.81 79 268.21 78.09 266.23 79.23Z" fill="white"/>
<path d="M279.44 71.59C278.396 72.2701 277.528 73.1871 276.906 74.2662C276.284 75.3454 275.925 76.5562 275.86 77.8C275.86 80.08 277.46 81.01 279.44 79.86C280.482 79.1809 281.349 78.2655 281.971 77.1882C282.594 76.111 282.953 74.9022 283.02 73.66C283 71.37 281.42 70.44 279.44 71.59Z" fill="white"/>
<path d="M292.65 63.94C291.608 64.6219 290.741 65.5393 290.119 66.6181C289.497 67.6968 289.138 68.9067 289.07 70.15C289.07 72.44 290.67 73.36 292.65 72.22C293.696 71.5395 294.566 70.6213 295.19 69.5403C295.814 68.4594 296.174 67.2463 296.24 66C296.24 63.73 294.63 62.8 292.65 63.94Z" fill="white"/>
<path d="M404.94 97.79L401.31 91L404.23 82.57V77.38L395.29 82.54V87.7L399.13 94.36C399.193 94.4595 399.283 94.5392 399.39 94.59L404.94 97.79Z" fill="#38A1FF"/>
<path opacity="0.2" d="M404.94 97.79L401.31 91L404.23 82.57V77.38L395.29 82.54V87.7L399.13 94.36C399.193 94.4595 399.283 94.5392 399.39 94.59L404.94 97.79Z" fill="black"/>
<path d="M432.09 43.7803C432.04 42.8505 431.772 41.9455 431.306 41.1391C430.84 40.3328 430.191 39.6479 429.41 39.1403L427.23 37.8803C426.4 37.4564 425.482 37.2353 424.55 37.2353C423.618 37.2353 422.7 37.4564 421.87 37.8803L371.34 67.0703C370.563 67.5842 369.916 68.2719 369.451 69.079C368.986 69.8861 368.715 70.7904 368.66 71.7203V97.8503C368.71 98.7802 368.978 99.6852 369.444 100.492C369.91 101.298 370.559 101.983 371.34 102.49L373.52 103.75C374.352 104.166 375.27 104.382 376.2 104.382C377.13 104.382 378.048 104.166 378.88 103.75L400.88 90.9503L404.72 97.5903C404.775 97.6791 404.854 97.7507 404.948 97.7969C405.042 97.843 405.147 97.862 405.251 97.8516C405.355 97.8412 405.454 97.8018 405.537 97.738C405.62 97.6741 405.683 97.5883 405.72 97.4903L409.78 85.8003L429.36 74.5503C430.141 74.0427 430.79 73.3578 431.256 72.5515C431.722 71.7452 431.99 70.8402 432.04 69.9103L432.09 43.7803Z" fill="#38A1FF"/>
<path d="M383.8 76.78L424.2 53.45C425.4 52.76 426.37 53.25 426.37 54.55C426.316 55.2768 426.091 55.9805 425.714 56.6042C425.337 57.2279 424.818 57.7541 424.2 58.14L383.8 81.47C382.61 82.16 381.64 81.67 381.64 80.37C381.694 79.6443 381.917 78.9415 382.293 78.318C382.668 77.6944 383.184 77.1677 383.8 76.78Z" fill="white"/>
<path d="M383.8 87.17L424.2 63.85C425.4 63.16 426.37 63.65 426.37 64.94C426.317 65.6685 426.093 66.3742 425.716 66.9998C425.339 67.6253 424.819 68.153 424.2 68.54L383.8 91.86C382.61 92.56 381.64 92.06 381.64 90.77C381.692 90.0425 381.915 89.3377 382.29 88.7123C382.666 88.0869 383.183 87.5586 383.8 87.17Z" fill="white"/>
<path opacity="0.2" d="M368.66 97.8499C368.71 98.7798 368.978 99.6848 369.444 100.491C369.91 101.297 370.559 101.982 371.34 102.49L373.52 103.75C374.275 104.13 375.102 104.346 375.946 104.384C376.791 104.421 377.634 104.281 378.42 103.97C377.16 104.44 376.2 103.73 376.2 102.2V76.0699C376.232 75.1381 376.5 74.2296 376.98 73.4299L369.44 69.0699C368.96 69.8732 368.692 70.7849 368.66 71.7199V97.8499Z" fill="black"/>
<path opacity="0.2" d="M432 43C431.69 41.86 430.65 41.5 429.41 42.21L378.88 71.41C378.085 71.8983 377.432 72.5883 376.99 73.41L369.45 69.06C369.899 68.2426 370.549 67.554 371.34 67.06L421.86 37.86C422.693 37.4429 423.613 37.2257 424.545 37.2257C425.477 37.2257 426.396 37.4429 427.23 37.86L429.41 39.12C430.083 39.5563 430.66 40.1255 431.105 40.7927C431.551 41.4598 431.855 42.211 432 43Z" fill="white"/>
</svg>
